<?xml version="1.0" encoding="utf-8" ?>
<svg baseProfile="full" height="800" version="1.1" width="800" xmlns="http://www.w3.org/2000/svg" xmlns:ev="http://www.w3.org/2001/xml-events" xmlns:xlink="http://www.w3.org/1999/xlink"><defs /><rect fill="darkcyan" height="0.75" opacity="1.0" stroke="none" width="0.75" x="40.0" y="40.0" /><rect fill="darkcyan" height="9.0" opacity="1.0" stroke="none" width="9.0" x="40.0" y="120.0" /><rect fill="darkcyan" height="17.25" opacity="1.0" stroke="none" width="17.25" x="40.0" y="200.0" /><rect fill="darkcyan" height="25.500000000000004" opacity="1.0" stroke="none" width="25.500000000000004" x="40.0" y="280.0" /><rect fill="darkcyan" height="33.75" opacity="1.0" stroke="none" width="33.75" x="40.0" y="360.0" /><rect fill="darkcyan" height="42.00000000000001" opacity="1.0" stroke="none" width="42.00000000000001" x="40.0" y="440.0" /><rect fill="darkcyan" height="50.25" opacity="1.0" stroke="none" width="50.25" x="40.0" y="520.0" /><rect fill="darkcyan" height="58.5" opacity="1.0" stroke="none" width="58.5" x="40.0" y="600.0" /><rect fill="darkcyan" height="66.75" opacity="1.0" stroke="none" width="66.75" x="40.0" y="680.0" /><rect fill="darkcyan" height="75.0" opacity="1.0" stroke="none" width="75.0" x="40.0" y="760.0" /><rect fill="darkcyan" height="75.0" opacity="1.0" stroke="none" width="75.0" x="40.0" y="840.0" /><rect fill="darkcyan" height="0.75" opacity="1.0" stroke="none" width="0.75" x="120.0" y="40.0" /><rect fill="darkcyan" height="9.0" opacity="1.0" stroke="none" width="9.0" x="120.0" y="120.0" /><rect fill="darkcyan" height="17.25" opacity="1.0" stroke="none" width="17.25" x="120.0" y="200.0" /><rect fill="darkcyan" height="25.500000000000004" opacity="1.0" stroke="none" width="25.500000000000004" x="120.0" y="280.0" /><rect fill="darkcyan" height="33.75" opacity="1.0" stroke="none" width="33.75" x="120.0" y="360.0" /><rect fill="darkcyan" height="42.00000000000001" opacity="1.0" stroke="none" width="42.00000000000001" x="120.0" y="440.0" /><rect fill="darkcyan" height="50.25" opacity="1.0" stroke="none" width="50.25" x="120.0" y="520.0" /><rect fill="darkcyan" height="58.5" opacity="1.0" stroke="none" width="58.5" x="120.0" y="600.0" /><rect fill="darkcyan" height="66.75" opacity="1.0" stroke="none" width="66.75" x="120.0" y="680.0" /><rect fill="darkcyan" height="75.0" opacity="1.0" stroke="none" width="75.0" x="120.0" y="760.0" /><rect fill="darkcyan" height="75.0" opacity="1.0" stroke="none" width="75.0" x="120.0" y="840.0" /><rect fill="darkcyan" height="0.75" opacity="1.0" stroke="none" width="0.75" x="200.0" y="40.0" /><rect fill="darkcyan" height="9.0" opacity="1.0" stroke="none" width="9.0" x="200.0" y="120.0" /><rect fill="darkcyan" height="17.25" opacity="1.0" stroke="none" width="17.25" x="200.0" y="200.0" /><rect fill="darkcyan" height="25.500000000000004" opacity="1.0" stroke="none" width="25.500000000000004" x="200.0" y="280.0" /><rect fill="darkcyan" height="33.75" opacity="1.0" stroke="none" width="33.75" x="200.0" y="360.0" /><rect fill="darkcyan" height="42.00000000000001" opacity="1.0" stroke="none" width="42.00000000000001" x="200.0" y="440.0" /><rect fill="darkcyan" height="50.25" opacity="1.0" stroke="none" width="50.25" x="200.0" y="520.0" /><rect fill="darkcyan" height="58.5" opacity="1.0" stroke="none" width="58.5" x="200.0" y="600.0" /><rect fill="darkcyan" height="66.75" opacity="1.0" stroke="none" width="66.75" x="200.0" y="680.0" /><rect fill="darkcyan" height="75.0" opacity="1.0" stroke="none" width="75.0" x="200.0" y="760.0" /><rect fill="darkcyan" height="75.0" opacity="1.0" stroke="none" width="75.0" x="200.0" y="840.0" /><rect fill="darkcyan" height="0.75" opacity="1.0" stroke="none" width="0.75" x="280.0" y="40.0" /><rect fill="darkcyan" height="9.0" opacity="1.0" stroke="none" width="9.0" x="280.0" y="120.0" /><rect fill="darkcyan" height="17.25" opacity="1.0" stroke="none" width="17.25" x="280.0" y="200.0" /><rect fill="darkcyan" height="25.500000000000004" opacity="1.0" stroke="none" width="25.500000000000004" x="280.0" y="280.0" /><rect fill="darkcyan" height="33.75" opacity="1.0" stroke="none" width="33.75" x="280.0" y="360.0" /><rect fill="darkcyan" height="42.00000000000001" opacity="1.0" stroke="none" width="42.00000000000001" x="280.0" y="440.0" /><rect fill="darkcyan" height="50.25" opacity="1.0" stroke="none" width="50.25" x="280.0" y="520.0" /><rect fill="darkcyan" height="58.5" opacity="1.0" stroke="none" width="58.5" x="280.0" y="600.0" /><rect fill="darkcyan" height="66.75" opacity="1.0" stroke="none" width="66.75" x="280.0" y="680.0" /><rect fill="darkcyan" height="75.0" opacity="1.0" stroke="none" width="75.0" x="280.0" y="760.0" /><rect fill="darkcyan" height="75.0" opacity="1.0" stroke="none" width="75.0" x="280.0" y="840.0" /><rect fill="darkcyan" height="0.75" opacity="1.0" stroke="none" width="0.75" x="360.0" y="40.0" /><rect fill="darkcyan" height="9.0" opacity="1.0" stroke="none" width="9.0" x="360.0" y="120.0" /><rect fill="darkcyan" height="17.25" opacity="1.0" stroke="none" width="17.25" x="360.0" y="200.0" /><rect fill="darkcyan" height="25.500000000000004" opacity="1.0" stroke="none" width="25.500000000000004" x="360.0" y="280.0" /><rect fill="darkcyan" height="33.75" opacity="1.0" stroke="none" width="33.75" x="360.0" y="360.0" /><rect fill="darkcyan" height="42.00000000000001" opacity="1.0" stroke="none" width="42.00000000000001" x="360.0" y="440.0" /><rect fill="darkcyan" height="50.25" opacity="1.0" stroke="none" width="50.25" x="360.0" y="520.0" /><rect fill="darkcyan" height="58.5" opacity="1.0" stroke="none" width="58.5" x="360.0" y="600.0" /><rect fill="darkcyan" height="66.75" opacity="1.0" stroke="none" width="66.75" x="360.0" y="680.0" /><rect fill="darkcyan" height="75.0" opacity="1.0" stroke="none" width="75.0" x="360.0" y="760.0" /><rect fill="darkcyan" height="75.0" opacity="1.0" stroke="none" width="75.0" x="360.0" y="840.0" /><rect fill="darkcyan" height="0.75" opacity="1.0" stroke="none" width="0.75" x="440.0" y="40.0" /><rect fill="darkcyan" height="9.0" opacity="1.0" stroke="none" width="9.0" x="440.0" y="120.0" /><rect fill="darkcyan" height="17.25" opacity="1.0" stroke="none" width="17.25" x="440.0" y="200.0" /><rect fill="darkcyan" height="25.500000000000004" opacity="1.0" stroke="none" width="25.500000000000004" x="440.0" y="280.0" /><rect fill="darkcyan" height="33.75" opacity="1.0" stroke="none" width="33.75" x="440.0" y="360.0" /><rect fill="darkcyan" height="42.00000000000001" opacity="1.0" stroke="none" width="42.00000000000001" x="440.0" y="440.0" /><rect fill="darkcyan" height="50.25" opacity="1.0" stroke="none" width="50.25" x="440.0" y="520.0" /><rect fill="darkcyan" height="58.5" opacity="1.0" stroke="none" width="58.5" x="440.0" y="600.0" /><rect fill="darkcyan" height="66.75" opacity="1.0" stroke="none" width="66.75" x="440.0" y="680.0" /><rect fill="darkcyan" height="75.0" opacity="1.0" stroke="none" width="75.0" x="440.0" y="760.0" /><rect fill="darkcyan" height="75.0" opacity="1.0" stroke="none" width="75.0" x="440.0" y="840.0" /><rect fill="darkcyan" height="0.75" opacity="1.0" stroke="none" width="0.75" x="520.0" y="40.0" /><rect fill="darkcyan" height="9.0" opacity="1.0" stroke="none" width="9.0" x="520.0" y="120.0" /><rect fill="darkcyan" height="17.25" opacity="1.0" stroke="none" width="17.25" x="520.0" y="200.0" /><rect fill="darkcyan" height="25.500000000000004" opacity="1.0" stroke="none" width="25.500000000000004" x="520.0" y="280.0" /><rect fill="darkcyan" height="33.75" opacity="1.0" stroke="none" width="33.75" x="520.0" y="360.0" /><rect fill="darkcyan" height="42.00000000000001" opacity="1.0" stroke="none" width="42.00000000000001" x="520.0" y="440.0" /><rect fill="darkcyan" height="50.25" opacity="1.0" stroke="none" width="50.25" x="520.0" y="520.0" /><rect fill="darkcyan" height="58.5" opacity="1.0" stroke="none" width="58.5" x="520.0" y="600.0" /><rect fill="darkcyan" height="66.75" opacity="1.0" stroke="none" width="66.75" x="520.0" y="680.0" /><rect fill="darkcyan" height="75.0" opacity="1.0" stroke="none" width="75.0" x="520.0" y="760.0" /><rect fill="darkcyan" height="75.0" opacity="1.0" stroke="none" width="75.0" x="520.0" y="840.0" /><rect fill="darkcyan" height="0.75" opacity="1.0" stroke="none" width="0.75" x="600.0" y="40.0" /><rect fill="darkcyan" height="9.0" opacity="1.0" stroke="none" width="9.0" x="600.0" y="120.0" /><rect fill="darkcyan" height="17.25" opacity="1.0" stroke="none" width="17.25" x="600.0" y="200.0" /><rect fill="darkcyan" height="25.500000000000004" opacity="1.0" stroke="none" width="25.500000000000004" x="600.0" y="280.0" /><rect fill="darkcyan" height="33.75" opacity="1.0" stroke="none" width="33.75" x="600.0" y="360.0" /><rect fill="darkcyan" height="42.00000000000001" opacity="1.0" stroke="none" width="42.00000000000001" x="600.0" y="440.0" /><rect fill="darkcyan" height="50.25" opacity="1.0" stroke="none" width="50.25" x="600.0" y="520.0" /><rect fill="darkcyan" height="58.5" opacity="1.0" stroke="none" width="58.5" x="600.0" y="600.0" /><rect fill="darkcyan" height="66.75" opacity="1.0" stroke="none" width="66.75" x="600.0" y="680.0" /><rect fill="darkcyan" height="75.0" opacity="1.0" stroke="none" width="75.0" x="600.0" y="760.0" /><rect fill="darkcyan" height="75.0" opacity="1.0" stroke="none" width="75.0" x="600.0" y="840.0" /><rect fill="darkcyan" height="0.75" opacity="1.0" stroke="none" width="0.75" x="680.0" y="40.0" /><rect fill="darkcyan" height="9.0" opacity="1.0" stroke="none" width="9.0" x="680.0" y="120.0" /><rect fill="darkcyan" height="17.25" opacity="1.0" stroke="none" width="17.25" x="680.0" y="200.0" /><rect fill="darkcyan" height="25.500000000000004" opacity="1.0" stroke="none" width="25.500000000000004" x="680.0" y="280.0" /><rect fill="darkcyan" height="33.75" opacity="1.0" stroke="none" width="33.75" x="680.0" y="360.0" /><rect fill="darkcyan" height="42.00000000000001" opacity="1.0" stroke="none" width="42.00000000000001" x="680.0" y="440.0" /><rect fill="darkcyan" height="50.25" opacity="1.0" stroke="none" width="50.25" x="680.0" y="520.0" /><rect fill="darkcyan" height="58.5" opacity="1.0" stroke="none" width="58.5" x="680.0" y="600.0" /><rect fill="darkcyan" height="66.75" opacity="1.0" stroke="none" width="66.75" x="680.0" y="680.0" /><rect fill="darkcyan" height="75.0" opacity="1.0" stroke="none" width="75.0" x="680.0" y="760.0" /><rect fill="darkcyan" height="75.0" opacity="1.0" stroke="none" width="75.0" x="680.0" y="840.0" /><rect fill="darkcyan" height="0.75" opacity="1.0" stroke="none" width="0.75" x="760.0" y="40.0" /><rect fill="darkcyan" height="9.0" opacity="1.0" stroke="none" width="9.0" x="760.0" y="120.0" /><rect fill="darkcyan" height="17.25" opacity="1.0" stroke="none" width="17.25" x="760.0" y="200.0" /><rect fill="darkcyan" height="25.500000000000004" opacity="1.0" stroke="none" width="25.500000000000004" x="760.0" y="280.0" /><rect fill="darkcyan" height="33.75" opacity="1.0" stroke="none" width="33.75" x="760.0" y="360.0" /><rect fill="darkcyan" height="42.00000000000001" opacity="1.0" stroke="none" width="42.00000000000001" x="760.0" y="440.0" /><rect fill="darkcyan" height="50.25" opacity="1.0" stroke="none" width="50.25" x="760.0" y="520.0" /><rect fill="darkcyan" height="58.5" opacity="1.0" stroke="none" width="58.5" x="760.0" y="600.0" /><rect fill="darkcyan" height="66.75" opacity="1.0" stroke="none" width="66.75" x="760.0" y="680.0" /><rect fill="darkcyan" height="75.0" opacity="1.0" stroke="none" width="75.0" x="760.0" y="760.0" /><rect fill="darkcyan" height="75.0" opacity="1.0" stroke="none" width="75.0" x="760.0" y="840.0" /><rect fill="darkcyan" height="0.75" opacity="1.0" stroke="none" width="0.75" x="840.0" y="40.0" /><rect fill="darkcyan" height="9.0" opacity="1.0" stroke="none" width="9.0" x="840.0" y="120.0" /><rect fill="darkcyan" height="17.25" opacity="1.0" stroke="none" width="17.25" x="840.0" y="200.0" /><rect fill="darkcyan" height="25.500000000000004" opacity="1.0" stroke="none" width="25.500000000000004" x="840.0" y="280.0" /><rect fill="darkcyan" height="33.75" opacity="1.0" stroke="none" width="33.75" x="840.0" y="360.0" /><rect fill="darkcyan" height="42.00000000000001" opacity="1.0" stroke="none" width="42.00000000000001" x="840.0" y="440.0" /><rect fill="darkcyan" height="50.25" opacity="1.0" stroke="none" width="50.25" x="840.0" y="520.0" /><rect fill="darkcyan" height="58.5" opacity="1.0" stroke="none" width="58.5" x="840.0" y="600.0" /><rect fill="darkcyan" height="66.75" opacity="1.0" stroke="none" width="66.75" x="840.0" y="680.0" /><rect fill="darkcyan" height="75.0" opacity="1.0" stroke="none" width="75.0" x="840.0" y="760.0" /><rect fill="darkcyan" height="75.0" opacity="1.0" stroke="none" width="75.0" x="840.0" y="840.0" /></svg>