<?xml version="1.0" encoding="utf-8" ?>
<svg baseProfile="full" height="800" version="1.1" width="800" xmlns="http://www.w3.org/2000/svg" xmlns:ev="http://www.w3.org/2001/xml-events" xmlns:xlink="http://www.w3.org/1999/xlink"><defs /><polygon fill="darkcyan" opacity="1.0" points="39.625,39.625 39.625,40.375 40.375,40.375 40.375,39.625" stroke="none" /><polygon fill="darkcyan" opacity="1.0" points="35.5,115.5 35.5,124.5 44.5,124.5 44.5,115.5" stroke="none" /><polygon fill="darkcyan" opacity="1.0" points="31.375,191.375 31.375,208.625 48.625,208.625 48.625,191.375" stroke="none" /><polygon fill="darkcyan" opacity="1.0" points="27.25,267.25 27.25,292.75 52.75,292.75 52.75,267.25" stroke="none" /><polygon fill="darkcyan" opacity="1.0" points="23.125,343.125 23.125,376.875 56.875,376.875 56.875,343.125" stroke="none" /><polygon fill="darkcyan" opacity="1.0" points="18.999999999999996,419.0 18.999999999999996,461.0 61.0,461.0 61.0,419.0" stroke="none" /><polygon fill="darkcyan" opacity="1.0" points="14.875,494.875 14.875,545.125 65.125,545.125 65.125,494.875" stroke="none" /><polygon fill="darkcyan" opacity="1.0" points="10.75,570.75 10.75,629.25 69.25,629.25 69.25,570.75" stroke="none" /><polygon fill="darkcyan" opacity="1.0" points="6.625,646.625 6.625,713.375 73.375,713.375 73.375,646.625" stroke="none" /><polygon fill="darkcyan" opacity="1.0" points="2.5,722.5 2.5,797.5 77.5,797.5 77.5,722.5" stroke="none" /><polygon fill="darkcyan" opacity="1.0" points="2.5,802.5 2.5,877.5 77.5,877.5 77.5,802.5" stroke="none" /><polygon fill="darkcyan" opacity="1.0" points="119.625,39.625 119.625,40.375 120.375,40.375 120.375,39.625" stroke="none" /><polygon fill="darkcyan" opacity="1.0" points="115.5,115.5 115.5,124.5 124.5,124.5 124.5,115.5" stroke="none" /><polygon fill="darkcyan" opacity="1.0" points="111.375,191.375 111.375,208.625 128.625,208.625 128.625,191.375" stroke="none" /><polygon fill="darkcyan" opacity="1.0" points="107.25,267.25 107.25,292.75 132.75,292.75 132.75,267.25" stroke="none" /><polygon fill="darkcyan" opacity="1.0" points="103.125,343.125 103.125,376.875 136.875,376.875 136.875,343.125" stroke="none" /><polygon fill="darkcyan" opacity="1.0" points="99.0,419.0 99.0,461.0 141.0,461.0 141.0,419.0" stroke="none" /><polygon fill="darkcyan" opacity="1.0" points="94.875,494.875 94.875,545.125 145.125,545.125 145.125,494.875" stroke="none" /><polygon fill="darkcyan" opacity="1.0" points="90.75,570.75 90.75,629.25 149.25,629.25 149.25,570.75" stroke="none" /><polygon fill="darkcyan" opacity="1.0" points="86.625,646.625 86.625,713.375 153.375,713.375 153.375,646.625" stroke="none" /><polygon fill="darkcyan" opacity="1.0" points="82.5,722.5 82.5,797.5 157.5,797.5 157.5,722.5" stroke="none" /><polygon fill="darkcyan" opacity="1.0" points="82.5,802.5 82.5,877.5 157.5,877.5 157.5,802.5" stroke="none" /><polygon fill="darkcyan" opacity="1.0" points="199.625,39.625 199.625,40.375 200.375,40.375 200.375,39.625" stroke="none" /><polygon fill="darkcyan" opacity="1.0" points="195.5,115.5 195.5,124.5 204.5,124.5 204.5,115.5" stroke="none" /><polygon fill="darkcyan" opacity="1.0" points="191.375,191.375 191.375,208.625 208.625,208.625 208.625,191.375" stroke="none" /><polygon fill="darkcyan" opacity="1.0" points="187.25,267.25 187.25,292.75 212.75,292.75 212.75,267.25" stroke="none" /><polygon fill="darkcyan" opacity="1.0" points="183.125,343.125 183.125,376.875 216.875,376.875 216.875,343.125" stroke="none" /><polygon fill="darkcyan" opacity="1.0" points="179.0,419.0 179.0,461.0 221.0,461.0 221.0,419.0" stroke="none" /><polygon fill="darkcyan" opacity="1.0" points="174.875,494.875 174.875,545.125 225.125,545.125 225.125,494.875" stroke="none" /><polygon fill="darkcyan" opacity="1.0" points="170.75,570.75 170.75,629.25 229.25,629.25 229.25,570.75" stroke="none" /><polygon fill="darkcyan" opacity="1.0" points="166.625,646.625 166.625,713.375 233.375,713.375 233.375,646.625" stroke="none" /><polygon fill="darkcyan" opacity="1.0" points="162.5,722.5 162.5,797.5 237.5,797.5 237.5,722.5" stroke="none" /><polygon fill="darkcyan" opacity="1.0" points="162.5,802.5 162.5,877.5 237.5,877.5 237.5,802.5" stroke="none" /><polygon fill="darkcyan" opacity="1.0" points="279.625,39.625 279.625,40.375 280.375,40.375 280.375,39.625" stroke="none" /><polygon fill="darkcyan" opacity="1.0" points="275.5,115.5 275.5,124.5 284.5,124.5 284.5,115.5" stroke="none" /><polygon fill="darkcyan" opacity="1.0" points="271.375,191.375 271.375,208.625 288.625,208.625 288.625,191.375" stroke="none" /><polygon fill="darkcyan" opacity="1.0" points="267.25,267.25 267.25,292.75 292.75,292.75 292.75,267.25" stroke="none" /><polygon fill="darkcyan" opacity="1.0" points="263.125,343.125 263.125,376.875 296.875,376.875 296.875,343.125" stroke="none" /><polygon fill="darkcyan" opacity="1.0" points="259.0,419.0 259.0,461.0 301.0,461.0 301.0,419.0" stroke="none" /><polygon fill="darkcyan" opacity="1.0" points="254.875,494.875 254.875,545.125 305.125,545.125 305.125,494.875" stroke="none" /><polygon fill="darkcyan" opacity="1.0" points="250.75,570.75 250.75,629.25 309.25,629.25 309.25,570.75" stroke="none" /><polygon fill="darkcyan" opacity="1.0" points="246.625,646.625 246.625,713.375 313.375,713.375 313.375,646.625" stroke="none" /><polygon fill="darkcyan" opacity="1.0" points="242.5,722.5 242.5,797.5 317.5,797.5 317.5,722.5" stroke="none" /><polygon fill="darkcyan" opacity="1.0" points="242.5,802.5 242.5,877.5 317.5,877.5 317.5,802.5" stroke="none" /><polygon fill="darkcyan" opacity="1.0" points="359.625,39.625 359.625,40.375 360.375,40.375 360.375,39.625" stroke="none" /><polygon fill="darkcyan" opacity="1.0" points="355.5,115.5 355.5,124.5 364.5,124.5 364.5,115.5" stroke="none" /><polygon fill="darkcyan" opacity="1.0" points="351.375,191.375 351.375,208.625 368.625,208.625 368.625,191.375" stroke="none" /><polygon fill="darkcyan" opacity="1.0" points="347.25,267.25 347.25,292.75 372.75,292.75 372.75,267.25" stroke="none" /><polygon fill="darkcyan" opacity="1.0" points="343.125,343.125 343.125,376.875 376.875,376.875 376.875,343.125" stroke="none" /><polygon fill="darkcyan" opacity="1.0" points="339.0,419.0 339.0,461.0 381.0,461.0 381.0,419.0" stroke="none" /><polygon fill="darkcyan" opacity="1.0" points="334.875,494.875 334.875,545.125 385.125,545.125 385.125,494.875" stroke="none" /><polygon fill="darkcyan" opacity="1.0" points="330.75,570.75 330.75,629.25 389.25,629.25 389.25,570.75" stroke="none" /><polygon fill="darkcyan" opacity="1.0" points="326.625,646.625 326.625,713.375 393.375,713.375 393.375,646.625" stroke="none" /><polygon fill="darkcyan" opacity="1.0" points="322.5,722.5 322.5,797.5 397.5,797.5 397.5,722.5" stroke="none" /><polygon fill="darkcyan" opacity="1.0" points="322.5,802.5 322.5,877.5 397.5,877.5 397.5,802.5" stroke="none" /><polygon fill="darkcyan" opacity="1.0" points="439.625,39.625 439.625,40.375 440.375,40.375 440.375,39.625" stroke="none" /><polygon fill="darkcyan" opacity="1.0" points="435.5,115.5 435.5,124.5 444.5,124.5 444.5,115.5" stroke="none" /><polygon fill="darkcyan" opacity="1.0" points="431.375,191.375 431.375,208.625 448.625,208.625 448.625,191.375" stroke="none" /><polygon fill="darkcyan" opacity="1.0" points="427.25,267.25 427.25,292.75 452.75,292.75 452.75,267.25" stroke="none" /><polygon fill="darkcyan" opacity="1.0" points="423.125,343.125 423.125,376.875 456.875,376.875 456.875,343.125" stroke="none" /><polygon fill="darkcyan" opacity="1.0" points="419.0,419.0 419.0,461.0 461.0,461.0 461.0,419.0" stroke="none" /><polygon fill="darkcyan" opacity="1.0" points="414.875,494.875 414.875,545.125 465.125,545.125 465.125,494.875" stroke="none" /><polygon fill="darkcyan" opacity="1.0" points="410.75,570.75 410.75,629.25 469.25,629.25 469.25,570.75" stroke="none" /><polygon fill="darkcyan" opacity="1.0" points="406.625,646.625 406.625,713.375 473.375,713.375 473.375,646.625" stroke="none" /><polygon fill="darkcyan" opacity="1.0" points="402.5,722.5 402.5,797.5 477.5,797.5 477.5,722.5" stroke="none" /><polygon fill="darkcyan" opacity="1.0" points="402.5,802.5 402.5,877.5 477.5,877.5 477.5,802.5" stroke="none" /><polygon fill="darkcyan" opacity="1.0" points="519.625,39.625 519.625,40.375 520.375,40.375 520.375,39.625" stroke="none" /><polygon fill="darkcyan" opacity="1.0" points="515.5,115.5 515.5,124.5 524.5,124.5 524.5,115.5" stroke="none" /><polygon fill="darkcyan" opacity="1.0" points="511.375,191.375 511.375,208.625 528.625,208.625 528.625,191.375" stroke="none" /><polygon fill="darkcyan" opacity="1.0" points="507.25,267.25 507.25,292.75 532.75,292.75 532.75,267.25" stroke="none" /><polygon fill="darkcyan" opacity="1.0" points="503.125,343.125 503.125,376.875 536.875,376.875 536.875,343.125" stroke="none" /><polygon fill="darkcyan" opacity="1.0" points="499.0,419.0 499.0,461.0 541.0,461.0 541.0,419.0" stroke="none" /><polygon fill="darkcyan" opacity="1.0" points="494.875,494.875 494.875,545.125 545.125,545.125 545.125,494.875" stroke="none" /><polygon fill="darkcyan" opacity="1.0" points="490.75,570.75 490.75,629.25 549.25,629.25 549.25,570.75" stroke="none" /><polygon fill="darkcyan" opacity="1.0" points="486.625,646.625 486.625,713.375 553.375,713.375 553.375,646.625" stroke="none" /><polygon fill="darkcyan" opacity="1.0" points="482.5,722.5 482.5,797.5 557.5,797.5 557.5,722.5" stroke="none" /><polygon fill="darkcyan" opacity="1.0" points="482.5,802.5 482.5,877.5 557.5,877.5 557.5,802.5" stroke="none" /><polygon fill="darkcyan" opacity="1.0" points="599.625,39.625 599.625,40.375 600.375,40.375 600.375,39.625" stroke="none" /><polygon fill="darkcyan" opacity="1.0" points="595.5,115.5 595.5,124.5 604.5,124.5 604.5,115.5" stroke="none" /><polygon fill="darkcyan" opacity="1.0" points="591.375,191.375 591.375,208.625 608.625,208.625 608.625,191.375" stroke="none" /><polygon fill="darkcyan" opacity="1.0" points="587.25,267.25 587.25,292.75 612.75,292.75 612.75,267.25" stroke="none" /><polygon fill="darkcyan" opacity="1.0" points="583.125,343.125 583.125,376.875 616.875,376.875 616.875,343.125" stroke="none" /><polygon fill="darkcyan" opacity="1.0" points="579.0,419.0 579.0,461.0 621.0,461.0 621.0,419.0" stroke="none" /><polygon fill="darkcyan" opacity="1.0" points="574.875,494.875 574.875,545.125 625.125,545.125 625.125,494.875" stroke="none" /><polygon fill="darkcyan" opacity="1.0" points="570.75,570.75 570.75,629.25 629.25,629.25 629.25,570.75" stroke="none" /><polygon fill="darkcyan" opacity="1.0" points="566.625,646.625 566.625,713.375 633.375,713.375 633.375,646.625" stroke="none" /><polygon fill="darkcyan" opacity="1.0" points="562.5,722.5 562.5,797.5 637.5,797.5 637.5,722.5" stroke="none" /><polygon fill="darkcyan" opacity="1.0" points="562.5,802.5 562.5,877.5 637.5,877.5 637.5,802.5" stroke="none" /><polygon fill="darkcyan" opacity="1.0" points="679.625,39.625 679.625,40.375 680.375,40.375 680.375,39.625" stroke="none" /><polygon fill="darkcyan" opacity="1.0" points="675.5,115.5 675.5,124.5 684.5,124.5 684.5,115.5" stroke="none" /><polygon fill="darkcyan" opacity="1.0" points="671.375,191.375 671.375,208.625 688.625,208.625 688.625,191.375" stroke="none" /><polygon fill="darkcyan" opacity="1.0" points="667.25,267.25 667.25,292.75 692.75,292.75 692.75,267.25" stroke="none" /><polygon fill="darkcyan" opacity="1.0" points="663.125,343.125 663.125,376.875 696.875,376.875 696.875,343.125" stroke="none" /><polygon fill="darkcyan" opacity="1.0" points="659.0,419.0 659.0,461.0 701.0,461.0 701.0,419.0" stroke="none" /><polygon fill="darkcyan" opacity="1.0" points="654.875,494.875 654.875,545.125 705.125,545.125 705.125,494.875" stroke="none" /><polygon fill="darkcyan" opacity="1.0" points="650.75,570.75 650.75,629.25 709.25,629.25 709.25,570.75" stroke="none" /><polygon fill="darkcyan" opacity="1.0" points="646.625,646.625 646.625,713.375 713.375,713.375 713.375,646.625" stroke="none" /><polygon fill="darkcyan" opacity="1.0" points="642.5,722.5 642.5,797.5 717.5,797.5 717.5,722.5" stroke="none" /><polygon fill="darkcyan" opacity="1.0" points="642.5,802.5 642.5,877.5 717.5,877.5 717.5,802.5" stroke="none" /><polygon fill="darkcyan" opacity="1.0" points="759.625,39.625 759.625,40.375 760.375,40.375 760.375,39.625" stroke="none" /><polygon fill="darkcyan" opacity="1.0" points="755.5,115.5 755.5,124.5 764.5,124.5 764.5,115.5" stroke="none" /><polygon fill="darkcyan" opacity="1.0" points="751.375,191.375 751.375,208.625 768.625,208.625 768.625,191.375" stroke="none" /><polygon fill="darkcyan" opacity="1.0" points="747.25,267.25 747.25,292.75 772.75,292.75 772.75,267.25" stroke="none" /><polygon fill="darkcyan" opacity="1.0" points="743.125,343.125 743.125,376.875 776.875,376.875 776.875,343.125" stroke="none" /><polygon fill="darkcyan" opacity="1.0" points="739.0,419.0 739.0,461.0 781.0,461.0 781.0,419.0" stroke="none" /><polygon fill="darkcyan" opacity="1.0" points="734.875,494.875 734.875,545.125 785.125,545.125 785.125,494.875" stroke="none" /><polygon fill="darkcyan" opacity="1.0" points="730.75,570.75 730.75,629.25 789.25,629.25 789.25,570.75" stroke="none" /><polygon fill="darkcyan" opacity="1.0" points="726.625,646.625 726.625,713.375 793.375,713.375 793.375,646.625" stroke="none" /><polygon fill="darkcyan" opacity="1.0" points="722.5,722.5 722.5,797.5 797.5,797.5 797.5,722.5" stroke="none" /><polygon fill="darkcyan" opacity="1.0" points="722.5,802.5 722.5,877.5 797.5,877.5 797.5,802.5" stroke="none" /><polygon fill="darkcyan" opacity="1.0" points="839.625,39.625 839.625,40.375 840.375,40.375 840.375,39.625" stroke="none" /><polygon fill="darkcyan" opacity="1.0" points="835.5,115.5 835.5,124.5 844.5,124.5 844.5,115.5" stroke="none" /><polygon fill="darkcyan" opacity="1.0" points="831.375,191.375 831.375,208.625 848.625,208.625 848.625,191.375" stroke="none" /><polygon fill="darkcyan" opacity="1.0" points="827.25,267.25 827.25,292.75 852.75,292.75 852.75,267.25" stroke="none" /><polygon fill="darkcyan" opacity="1.0" points="823.125,343.125 823.125,376.875 856.875,376.875 856.875,343.125" stroke="none" /><polygon fill="darkcyan" opacity="1.0" points="819.0,419.0 819.0,461.0 861.0,461.0 861.0,419.0" stroke="none" /><polygon fill="darkcyan" opacity="1.0" points="814.875,494.875 814.875,545.125 865.125,545.125 865.125,494.875" stroke="none" /><polygon fill="darkcyan" opacity="1.0" points="810.75,570.75 810.75,629.25 869.25,629.25 869.25,570.75" stroke="none" /><polygon fill="darkcyan" opacity="1.0" points="806.625,646.625 806.625,713.375 873.375,713.375 873.375,646.625" stroke="none" /><polygon fill="darkcyan" opacity="1.0" points="802.5,722.5 802.5,797.5 877.5,797.5 877.5,722.5" stroke="none" /><polygon fill="darkcyan" opacity="1.0" points="802.5,802.5 802.5,877.5 877.5,877.5 877.5,802.5" stroke="none" /></svg>