<?xml version="1.0" encoding="utf-8" ?>
<svg baseProfile="full" height="800" version="1.1" width="800" xmlns="http://www.w3.org/2000/svg" xmlns:ev="http://www.w3.org/2001/xml-events" xmlns:xlink="http://www.w3.org/1999/xlink"><defs /><polygon fill="darkcyan" opacity="1.0" points="16.375,16.375 16.375,16.625 16.625,16.625 16.625,16.375" stroke="none" /><polygon fill="darkcyan" opacity="1.0" points="15.34375,48.34375 15.34375,50.65625 17.65625,50.65625 17.65625,48.34375" stroke="none" /><polygon fill="darkcyan" opacity="1.0" points="14.3125,80.3125 14.3125,84.6875 18.6875,84.6875 18.6875,80.3125" stroke="none" /><polygon fill="darkcyan" opacity="1.0" points="13.28125,112.28125 13.28125,118.71875 19.71875,118.71875 19.71875,112.28125" stroke="none" /><polygon fill="darkcyan" opacity="1.0" points="12.25,144.25 12.25,152.75 20.75,152.75 20.75,144.25" stroke="none" /><polygon fill="darkcyan" opacity="1.0" points="11.21875,176.21875 11.21875,186.78125 21.78125,186.78125 21.78125,176.21875" stroke="none" /><polygon fill="darkcyan" opacity="1.0" points="10.1875,208.1875 10.1875,220.8125 22.8125,220.8125 22.8125,208.1875" stroke="none" /><polygon fill="darkcyan" opacity="1.0" points="9.15625,240.15625 9.15625,254.84375 23.84375,254.84375 23.84375,240.15625" stroke="none" /><polygon fill="darkcyan" opacity="1.0" points="8.125,272.125 8.125,288.875 24.875,288.875 24.875,272.125" stroke="none" /><polygon fill="darkcyan" opacity="1.0" points="7.09375,304.09375 7.09375,322.90625 25.90625,322.90625 25.90625,304.09375" stroke="none" /><polygon fill="darkcyan" opacity="1.0" points="6.062499999999998,336.0625 6.062499999999998,356.9375 26.9375,356.9375 26.9375,336.0625" stroke="none" /><polygon fill="darkcyan" opacity="1.0" points="5.031249999999998,368.03125 5.031249999999998,390.96875 27.96875,390.96875 27.96875,368.03125" stroke="none" /><polygon fill="darkcyan" opacity="1.0" points="4.0,400.0 4.0,425.0 29.0,425.0 29.0,400.0" stroke="none" /><polygon fill="darkcyan" opacity="1.0" points="4.0,433.0 4.0,458.0 29.0,458.0 29.0,433.0" stroke="none" /><polygon fill="darkcyan" opacity="1.0" points="5.031249999999998,467.03125 5.031249999999998,489.96875 27.96875,489.96875 27.96875,467.03125" stroke="none" /><polygon fill="darkcyan" opacity="1.0" points="6.062499999999998,501.0625 6.062499999999998,521.9375 26.9375,521.9375 26.9375,501.0625" stroke="none" /><polygon fill="darkcyan" opacity="1.0" points="7.09375,535.09375 7.09375,553.90625 25.90625,553.90625 25.90625,535.09375" stroke="none" /><polygon fill="darkcyan" opacity="1.0" points="8.125,569.125 8.125,585.875 24.875,585.875 24.875,569.125" stroke="none" /><polygon fill="darkcyan" opacity="1.0" points="9.15625,603.15625 9.15625,617.84375 23.84375,617.84375 23.84375,603.15625" stroke="none" /><polygon fill="darkcyan" opacity="1.0" points="10.1875,637.1875 10.1875,649.8125 22.8125,649.8125 22.8125,637.1875" stroke="none" /><polygon fill="darkcyan" opacity="1.0" points="11.21875,671.21875 11.21875,681.78125 21.78125,681.78125 21.78125,671.21875" stroke="none" /><polygon fill="darkcyan" opacity="1.0" points="12.25,705.25 12.25,713.75 20.75,713.75 20.75,705.25" stroke="none" /><polygon fill="darkcyan" opacity="1.0" points="13.28125,739.28125 13.28125,745.71875 19.71875,745.71875 19.71875,739.28125" stroke="none" /><polygon fill="darkcyan" opacity="1.0" points="14.3125,773.3125 14.3125,777.6875 18.6875,777.6875 18.6875,773.3125" stroke="none" /><polygon fill="darkcyan" opacity="1.0" points="15.34375,807.34375 15.34375,809.65625 17.65625,809.65625 17.65625,807.34375" stroke="none" /><polygon fill="darkcyan" opacity="1.0" points="16.375,841.375 16.375,841.625 16.625,841.625 16.625,841.375" stroke="none" /><polygon fill="darkcyan" opacity="1.0" points="49.375,16.375 49.375,16.625 49.625,16.625 49.625,16.375" stroke="none" /><polygon fill="darkcyan" opacity="1.0" points="48.34375,48.34375 48.34375,50.65625 50.65625,50.65625 50.65625,48.34375" stroke="none" /><polygon fill="darkcyan" opacity="1.0" points="47.3125,80.3125 47.3125,84.6875 51.6875,84.6875 51.6875,80.3125" stroke="none" /><polygon fill="darkcyan" opacity="1.0" points="46.28125,112.28125 46.28125,118.71875 52.71875,118.71875 52.71875,112.28125" stroke="none" /><polygon fill="darkcyan" opacity="1.0" points="45.25,144.25 45.25,152.75 53.75,152.75 53.75,144.25" stroke="none" /><polygon fill="darkcyan" opacity="1.0" points="44.21875,176.21875 44.21875,186.78125 54.78125,186.78125 54.78125,176.21875" stroke="none" /><polygon fill="darkcyan" opacity="1.0" points="43.1875,208.1875 43.1875,220.8125 55.8125,220.8125 55.8125,208.1875" stroke="none" /><polygon fill="darkcyan" opacity="1.0" points="42.15625,240.15625 42.15625,254.84375 56.84375,254.84375 56.84375,240.15625" stroke="none" /><polygon fill="darkcyan" opacity="1.0" points="41.125,272.125 41.125,288.875 57.875,288.875 57.875,272.125" stroke="none" /><polygon fill="darkcyan" opacity="1.0" points="40.09375,304.09375 40.09375,322.90625 58.90625,322.90625 58.90625,304.09375" stroke="none" /><polygon fill="darkcyan" opacity="1.0" points="39.0625,336.0625 39.0625,356.9375 59.9375,356.9375 59.9375,336.0625" stroke="none" /><polygon fill="darkcyan" opacity="1.0" points="38.03125,368.03125 38.03125,390.96875 60.96875,390.96875 60.96875,368.03125" stroke="none" /><polygon fill="darkcyan" opacity="1.0" points="37.0,400.0 37.0,425.0 62.0,425.0 62.0,400.0" stroke="none" /><polygon fill="darkcyan" opacity="1.0" points="37.0,433.0 37.0,458.0 62.0,458.0 62.0,433.0" stroke="none" /><polygon fill="darkcyan" opacity="1.0" points="38.03125,467.03125 38.03125,489.96875 60.96875,489.96875 60.96875,467.03125" stroke="none" /><polygon fill="darkcyan" opacity="1.0" points="39.0625,501.0625 39.0625,521.9375 59.9375,521.9375 59.9375,501.0625" stroke="none" /><polygon fill="darkcyan" opacity="1.0" points="40.09375,535.09375 40.09375,553.90625 58.90625,553.90625 58.90625,535.09375" stroke="none" /><polygon fill="darkcyan" opacity="1.0" points="41.125,569.125 41.125,585.875 57.875,585.875 57.875,569.125" stroke="none" /><polygon fill="darkcyan" opacity="1.0" points="42.15625,603.15625 42.15625,617.84375 56.84375,617.84375 56.84375,603.15625" stroke="none" /><polygon fill="darkcyan" opacity="1.0" points="43.1875,637.1875 43.1875,649.8125 55.8125,649.8125 55.8125,637.1875" stroke="none" /><polygon fill="darkcyan" opacity="1.0" points="44.21875,671.21875 44.21875,681.78125 54.78125,681.78125 54.78125,671.21875" stroke="none" /><polygon fill="darkcyan" opacity="1.0" points="45.25,705.25 45.25,713.75 53.75,713.75 53.75,705.25" stroke="none" /><polygon fill="darkcyan" opacity="1.0" points="46.28125,739.28125 46.28125,745.71875 52.71875,745.71875 52.71875,739.28125" stroke="none" /><polygon fill="darkcyan" opacity="1.0" points="47.3125,773.3125 47.3125,777.6875 51.6875,777.6875 51.6875,773.3125" stroke="none" /><polygon fill="darkcyan" opacity="1.0" points="48.34375,807.34375 48.34375,809.65625 50.65625,809.65625 50.65625,807.34375" stroke="none" /><polygon fill="darkcyan" opacity="1.0" points="49.375,841.375 49.375,841.625 49.625,841.625 49.625,841.375" stroke="none" /><polygon fill="darkcyan" opacity="1.0" points="82.375,16.375 82.375,16.625 82.625,16.625 82.625,16.375" stroke="none" /><polygon fill="darkcyan" opacity="1.0" points="81.34375,48.34375 81.34375,50.65625 83.65625,50.65625 83.65625,48.34375" stroke="none" /><polygon fill="darkcyan" opacity="1.0" points="80.3125,80.3125 80.3125,84.6875 84.6875,84.6875 84.6875,80.3125" stroke="none" /><polygon fill="darkcyan" opacity="1.0" points="79.28125,112.28125 79.28125,118.71875 85.71875,118.71875 85.71875,112.28125" stroke="none" /><polygon fill="darkcyan" opacity="1.0" points="78.25,144.25 78.25,152.75 86.75,152.75 86.75,144.25" stroke="none" /><polygon fill="darkcyan" opacity="1.0" points="77.21875,176.21875 77.21875,186.78125 87.78125,186.78125 87.78125,176.21875" stroke="none" /><polygon fill="darkcyan" opacity="1.0" points="76.1875,208.1875 76.1875,220.8125 88.8125,220.8125 88.8125,208.1875" stroke="none" /><polygon fill="darkcyan" opacity="1.0" points="75.15625,240.15625 75.15625,254.84375 89.84375,254.84375 89.84375,240.15625" stroke="none" /><polygon fill="darkcyan" opacity="1.0" points="74.125,272.125 74.125,288.875 90.875,288.875 90.875,272.125" stroke="none" /><polygon fill="darkcyan" opacity="1.0" points="73.09375,304.09375 73.09375,322.90625 91.90625,322.90625 91.90625,304.09375" stroke="none" /><polygon fill="darkcyan" opacity="1.0" points="72.0625,336.0625 72.0625,356.9375 92.9375,356.9375 92.9375,336.0625" stroke="none" /><polygon fill="darkcyan" opacity="1.0" points="71.03125,368.03125 71.03125,390.96875 93.96875,390.96875 93.96875,368.03125" stroke="none" /><polygon fill="darkcyan" opacity="1.0" points="70.0,400.0 70.0,425.0 95.0,425.0 95.0,400.0" stroke="none" /><polygon fill="darkcyan" opacity="1.0" points="70.0,433.0 70.0,458.0 95.0,458.0 95.0,433.0" stroke="none" /><polygon fill="darkcyan" opacity="1.0" points="71.03125,467.03125 71.03125,489.96875 93.96875,489.96875 93.96875,467.03125" stroke="none" /><polygon fill="darkcyan" opacity="1.0" points="72.0625,501.0625 72.0625,521.9375 92.9375,521.9375 92.9375,501.0625" stroke="none" /><polygon fill="darkcyan" opacity="1.0" points="73.09375,535.09375 73.09375,553.90625 91.90625,553.90625 91.90625,535.09375" stroke="none" /><polygon fill="darkcyan" opacity="1.0" points="74.125,569.125 74.125,585.875 90.875,585.875 90.875,569.125" stroke="none" /><polygon fill="darkcyan" opacity="1.0" points="75.15625,603.15625 75.15625,617.84375 89.84375,617.84375 89.84375,603.15625" stroke="none" /><polygon fill="darkcyan" opacity="1.0" points="76.1875,637.1875 76.1875,649.8125 88.8125,649.8125 88.8125,637.1875" stroke="none" /><polygon fill="darkcyan" opacity="1.0" points="77.21875,671.21875 77.21875,681.78125 87.78125,681.78125 87.78125,671.21875" stroke="none" /><polygon fill="darkcyan" opacity="1.0" points="78.25,705.25 78.25,713.75 86.75,713.75 86.75,705.25" stroke="none" /><polygon fill="darkcyan" opacity="1.0" points="79.28125,739.28125 79.28125,745.71875 85.71875,745.71875 85.71875,739.28125" stroke="none" /><polygon fill="darkcyan" opacity="1.0" points="80.3125,773.3125 80.3125,777.6875 84.6875,777.6875 84.6875,773.3125" stroke="none" /><polygon fill="darkcyan" opacity="1.0" points="81.34375,807.34375 81.34375,809.65625 83.65625,809.65625 83.65625,807.34375" stroke="none" /><polygon fill="darkcyan" opacity="1.0" points="82.375,841.375 82.375,841.625 82.625,841.625 82.625,841.375" stroke="none" /><polygon fill="darkcyan" opacity="1.0" points="115.375,16.375 115.375,16.625 115.625,16.625 115.625,16.375" stroke="none" /><polygon fill="darkcyan" opacity="1.0" points="114.34375,48.34375 114.34375,50.65625 116.65625,50.65625 116.65625,48.34375" stroke="none" /><polygon fill="darkcyan" opacity="1.0" points="113.3125,80.3125 113.3125,84.6875 117.6875,84.6875 117.6875,80.3125" stroke="none" /><polygon fill="darkcyan" opacity="1.0" points="112.28125,112.28125 112.28125,118.71875 118.71875,118.71875 118.71875,112.28125" stroke="none" /><polygon fill="darkcyan" opacity="1.0" points="111.25,144.25 111.25,152.75 119.75,152.75 119.75,144.25" stroke="none" /><polygon fill="darkcyan" opacity="1.0" points="110.21875,176.21875 110.21875,186.78125 120.78125,186.78125 120.78125,176.21875" stroke="none" /><polygon fill="darkcyan" opacity="1.0" points="109.1875,208.1875 109.1875,220.8125 121.8125,220.8125 121.8125,208.1875" stroke="none" /><polygon fill="darkcyan" opacity="1.0" points="108.15625,240.15625 108.15625,254.84375 122.84375,254.84375 122.84375,240.15625" stroke="none" /><polygon fill="darkcyan" opacity="1.0" points="107.125,272.125 107.125,288.875 123.875,288.875 123.875,272.125" stroke="none" /><polygon fill="darkcyan" opacity="1.0" points="106.09375,304.09375 106.09375,322.90625 124.90625,322.90625 124.90625,304.09375" stroke="none" /><polygon fill="darkcyan" opacity="1.0" points="105.0625,336.0625 105.0625,356.9375 125.9375,356.9375 125.9375,336.0625" stroke="none" /><polygon fill="darkcyan" opacity="1.0" points="104.03125,368.03125 104.03125,390.96875 126.96875,390.96875 126.96875,368.03125" stroke="none" /><polygon fill="darkcyan" opacity="1.0" points="103.0,400.0 103.0,425.0 128.0,425.0 128.0,400.0" stroke="none" /><polygon fill="darkcyan" opacity="1.0" points="103.0,433.0 103.0,458.0 128.0,458.0 128.0,433.0" stroke="none" /><polygon fill="darkcyan" opacity="1.0" points="104.03125,467.03125 104.03125,489.96875 126.96875,489.96875 126.96875,467.03125" stroke="none" /><polygon fill="darkcyan" opacity="1.0" points="105.0625,501.0625 105.0625,521.9375 125.9375,521.9375 125.9375,501.0625" stroke="none" /><polygon fill="darkcyan" opacity="1.0" points="106.09375,535.09375 106.09375,553.90625 124.90625,553.90625 124.90625,535.09375" stroke="none" /><polygon fill="darkcyan" opacity="1.0" points="107.125,569.125 107.125,585.875 123.875,585.875 123.875,569.125" stroke="none" /><polygon fill="darkcyan" opacity="1.0" points="108.15625,603.15625 108.15625,617.84375 122.84375,617.84375 122.84375,603.15625" stroke="none" /><polygon fill="darkcyan" opacity="1.0" points="109.1875,637.1875 109.1875,649.8125 121.8125,649.8125 121.8125,637.1875" stroke="none" /><polygon fill="darkcyan" opacity="1.0" points="110.21875,671.21875 110.21875,681.78125 120.78125,681.78125 120.78125,671.21875" stroke="none" /><polygon fill="darkcyan" opacity="1.0" points="111.25,705.25 111.25,713.75 119.75,713.75 119.75,705.25" stroke="none" /><polygon fill="darkcyan" opacity="1.0" points="112.28125,739.28125 112.28125,745.71875 118.71875,745.71875 118.71875,739.28125" stroke="none" /><polygon fill="darkcyan" opacity="1.0" points="113.3125,773.3125 113.3125,777.6875 117.6875,777.6875 117.6875,773.3125" stroke="none" /><polygon fill="darkcyan" opacity="1.0" points="114.34375,807.34375 114.34375,809.65625 116.65625,809.65625 116.65625,807.34375" stroke="none" /><polygon fill="darkcyan" opacity="1.0" points="115.375,841.375 115.375,841.625 115.625,841.625 115.625,841.375" stroke="none" /><polygon fill="darkcyan" opacity="1.0" points="148.375,16.375 148.375,16.625 148.625,16.625 148.625,16.375" stroke="none" /><polygon fill="darkcyan" opacity="1.0" points="147.34375,48.34375 147.34375,50.65625 149.65625,50.65625 149.65625,48.34375" stroke="none" /><polygon fill="darkcyan" opacity="1.0" points="146.3125,80.3125 146.3125,84.6875 150.6875,84.6875 150.6875,80.3125" stroke="none" /><polygon fill="darkcyan" opacity="1.0" points="145.28125,112.28125 145.28125,118.71875 151.71875,118.71875 151.71875,112.28125" stroke="none" /><polygon fill="darkcyan" opacity="1.0" points="144.25,144.25 144.25,152.75 152.75,152.75 152.75,144.25" stroke="none" /><polygon fill="darkcyan" opacity="1.0" points="143.21875,176.21875 143.21875,186.78125 153.78125,186.78125 153.78125,176.21875" stroke="none" /><polygon fill="darkcyan" opacity="1.0" points="142.1875,208.1875 142.1875,220.8125 154.8125,220.8125 154.8125,208.1875" stroke="none" /><polygon fill="darkcyan" opacity="1.0" points="141.15625,240.15625 141.15625,254.84375 155.84375,254.84375 155.84375,240.15625" stroke="none" /><polygon fill="darkcyan" opacity="1.0" points="140.125,272.125 140.125,288.875 156.875,288.875 156.875,272.125" stroke="none" /><polygon fill="darkcyan" opacity="1.0" points="139.09375,304.09375 139.09375,322.90625 157.90625,322.90625 157.90625,304.09375" stroke="none" /><polygon fill="darkcyan" opacity="1.0" points="138.0625,336.0625 138.0625,356.9375 158.9375,356.9375 158.9375,336.0625" stroke="none" /><polygon fill="darkcyan" opacity="1.0" points="137.03125,368.03125 137.03125,390.96875 159.96875,390.96875 159.96875,368.03125" stroke="none" /><polygon fill="darkcyan" opacity="1.0" points="136.0,400.0 136.0,425.0 161.0,425.0 161.0,400.0" stroke="none" /><polygon fill="darkcyan" opacity="1.0" points="136.0,433.0 136.0,458.0 161.0,458.0 161.0,433.0" stroke="none" /><polygon fill="darkcyan" opacity="1.0" points="137.03125,467.03125 137.03125,489.96875 159.96875,489.96875 159.96875,467.03125" stroke="none" /><polygon fill="darkcyan" opacity="1.0" points="138.0625,501.0625 138.0625,521.9375 158.9375,521.9375 158.9375,501.0625" stroke="none" /><polygon fill="darkcyan" opacity="1.0" points="139.09375,535.09375 139.09375,553.90625 157.90625,553.90625 157.90625,535.09375" stroke="none" /><polygon fill="darkcyan" opacity="1.0" points="140.125,569.125 140.125,585.875 156.875,585.875 156.875,569.125" stroke="none" /><polygon fill="darkcyan" opacity="1.0" points="141.15625,603.15625 141.15625,617.84375 155.84375,617.84375 155.84375,603.15625" stroke="none" /><polygon fill="darkcyan" opacity="1.0" points="142.1875,637.1875 142.1875,649.8125 154.8125,649.8125 154.8125,637.1875" stroke="none" /><polygon fill="darkcyan" opacity="1.0" points="143.21875,671.21875 143.21875,681.78125 153.78125,681.78125 153.78125,671.21875" stroke="none" /><polygon fill="darkcyan" opacity="1.0" points="144.25,705.25 144.25,713.75 152.75,713.75 152.75,705.25" stroke="none" /><polygon fill="darkcyan" opacity="1.0" points="145.28125,739.28125 145.28125,745.71875 151.71875,745.71875 151.71875,739.28125" stroke="none" /><polygon fill="darkcyan" opacity="1.0" points="146.3125,773.3125 146.3125,777.6875 150.6875,777.6875 150.6875,773.3125" stroke="none" /><polygon fill="darkcyan" opacity="1.0" points="147.34375,807.34375 147.34375,809.65625 149.65625,809.65625 149.65625,807.34375" stroke="none" /><polygon fill="darkcyan" opacity="1.0" points="148.375,841.375 148.375,841.625 148.625,841.625 148.625,841.375" stroke="none" /><polygon fill="darkcyan" opacity="1.0" points="181.375,16.375 181.375,16.625 181.625,16.625 181.625,16.375" stroke="none" /><polygon fill="darkcyan" opacity="1.0" points="180.34375,48.34375 180.34375,50.65625 182.65625,50.65625 182.65625,48.34375" stroke="none" /><polygon fill="darkcyan" opacity="1.0" points="179.3125,80.3125 179.3125,84.6875 183.6875,84.6875 183.6875,80.3125" stroke="none" /><polygon fill="darkcyan" opacity="1.0" points="178.28125,112.28125 178.28125,118.71875 184.71875,118.71875 184.71875,112.28125" stroke="none" /><polygon fill="darkcyan" opacity="1.0" points="177.25,144.25 177.25,152.75 185.75,152.75 185.75,144.25" stroke="none" /><polygon fill="darkcyan" opacity="1.0" points="176.21875,176.21875 176.21875,186.78125 186.78125,186.78125 186.78125,176.21875" stroke="none" /><polygon fill="darkcyan" opacity="1.0" points="175.1875,208.1875 175.1875,220.8125 187.8125,220.8125 187.8125,208.1875" stroke="none" /><polygon fill="darkcyan" opacity="1.0" points="174.15625,240.15625 174.15625,254.84375 188.84375,254.84375 188.84375,240.15625" stroke="none" /><polygon fill="darkcyan" opacity="1.0" points="173.125,272.125 173.125,288.875 189.875,288.875 189.875,272.125" stroke="none" /><polygon fill="darkcyan" opacity="1.0" points="172.09375,304.09375 172.09375,322.90625 190.90625,322.90625 190.90625,304.09375" stroke="none" /><polygon fill="darkcyan" opacity="1.0" points="171.0625,336.0625 171.0625,356.9375 191.9375,356.9375 191.9375,336.0625" stroke="none" /><polygon fill="darkcyan" opacity="1.0" points="170.03125,368.03125 170.03125,390.96875 192.96875,390.96875 192.96875,368.03125" stroke="none" /><polygon fill="darkcyan" opacity="1.0" points="169.0,400.0 169.0,425.0 194.0,425.0 194.0,400.0" stroke="none" /><polygon fill="darkcyan" opacity="1.0" points="169.0,433.0 169.0,458.0 194.0,458.0 194.0,433.0" stroke="none" /><polygon fill="darkcyan" opacity="1.0" points="170.03125,467.03125 170.03125,489.96875 192.96875,489.96875 192.96875,467.03125" stroke="none" /><polygon fill="darkcyan" opacity="1.0" points="171.0625,501.0625 171.0625,521.9375 191.9375,521.9375 191.9375,501.0625" stroke="none" /><polygon fill="darkcyan" opacity="1.0" points="172.09375,535.09375 172.09375,553.90625 190.90625,553.90625 190.90625,535.09375" stroke="none" /><polygon fill="darkcyan" opacity="1.0" points="173.125,569.125 173.125,585.875 189.875,585.875 189.875,569.125" stroke="none" /><polygon fill="darkcyan" opacity="1.0" points="174.15625,603.15625 174.15625,617.84375 188.84375,617.84375 188.84375,603.15625" stroke="none" /><polygon fill="darkcyan" opacity="1.0" points="175.1875,637.1875 175.1875,649.8125 187.8125,649.8125 187.8125,637.1875" stroke="none" /><polygon fill="darkcyan" opacity="1.0" points="176.21875,671.21875 176.21875,681.78125 186.78125,681.78125 186.78125,671.21875" stroke="none" /><polygon fill="darkcyan" opacity="1.0" points="177.25,705.25 177.25,713.75 185.75,713.75 185.75,705.25" stroke="none" /><polygon fill="darkcyan" opacity="1.0" points="178.28125,739.28125 178.28125,745.71875 184.71875,745.71875 184.71875,739.28125" stroke="none" /><polygon fill="darkcyan" opacity="1.0" points="179.3125,773.3125 179.3125,777.6875 183.6875,777.6875 183.6875,773.3125" stroke="none" /><polygon fill="darkcyan" opacity="1.0" points="180.34375,807.34375 180.34375,809.65625 182.65625,809.65625 182.65625,807.34375" stroke="none" /><polygon fill="darkcyan" opacity="1.0" points="181.375,841.375 181.375,841.625 181.625,841.625 181.625,841.375" stroke="none" /><polygon fill="darkcyan" opacity="1.0" points="214.375,16.375 214.375,16.625 214.625,16.625 214.625,16.375" stroke="none" /><polygon fill="darkcyan" opacity="1.0" points="213.34375,48.34375 213.34375,50.65625 215.65625,50.65625 215.65625,48.34375" stroke="none" /><polygon fill="darkcyan" opacity="1.0" points="212.3125,80.3125 212.3125,84.6875 216.6875,84.6875 216.6875,80.3125" stroke="none" /><polygon fill="darkcyan" opacity="1.0" points="211.28125,112.28125 211.28125,118.71875 217.71875,118.71875 217.71875,112.28125" stroke="none" /><polygon fill="darkcyan" opacity="1.0" points="210.25,144.25 210.25,152.75 218.75,152.75 218.75,144.25" stroke="none" /><polygon fill="darkcyan" opacity="1.0" points="209.21875,176.21875 209.21875,186.78125 219.78125,186.78125 219.78125,176.21875" stroke="none" /><polygon fill="darkcyan" opacity="1.0" points="208.1875,208.1875 208.1875,220.8125 220.8125,220.8125 220.8125,208.1875" stroke="none" /><polygon fill="darkcyan" opacity="1.0" points="207.15625,240.15625 207.15625,254.84375 221.84375,254.84375 221.84375,240.15625" stroke="none" /><polygon fill="darkcyan" opacity="1.0" points="206.125,272.125 206.125,288.875 222.875,288.875 222.875,272.125" stroke="none" /><polygon fill="darkcyan" opacity="1.0" points="205.09375,304.09375 205.09375,322.90625 223.90625,322.90625 223.90625,304.09375" stroke="none" /><polygon fill="darkcyan" opacity="1.0" points="204.0625,336.0625 204.0625,356.9375 224.9375,356.9375 224.9375,336.0625" stroke="none" /><polygon fill="darkcyan" opacity="1.0" points="203.03125,368.03125 203.03125,390.96875 225.96875,390.96875 225.96875,368.03125" stroke="none" /><polygon fill="darkcyan" opacity="1.0" points="202.0,400.0 202.0,425.0 227.0,425.0 227.0,400.0" stroke="none" /><polygon fill="darkcyan" opacity="1.0" points="202.0,433.0 202.0,458.0 227.0,458.0 227.0,433.0" stroke="none" /><polygon fill="darkcyan" opacity="1.0" points="203.03125,467.03125 203.03125,489.96875 225.96875,489.96875 225.96875,467.03125" stroke="none" /><polygon fill="darkcyan" opacity="1.0" points="204.0625,501.0625 204.0625,521.9375 224.9375,521.9375 224.9375,501.0625" stroke="none" /><polygon fill="darkcyan" opacity="1.0" points="205.09375,535.09375 205.09375,553.90625 223.90625,553.90625 223.90625,535.09375" stroke="none" /><polygon fill="darkcyan" opacity="1.0" points="206.125,569.125 206.125,585.875 222.875,585.875 222.875,569.125" stroke="none" /><polygon fill="darkcyan" opacity="1.0" points="207.15625,603.15625 207.15625,617.84375 221.84375,617.84375 221.84375,603.15625" stroke="none" /><polygon fill="darkcyan" opacity="1.0" points="208.1875,637.1875 208.1875,649.8125 220.8125,649.8125 220.8125,637.1875" stroke="none" /><polygon fill="darkcyan" opacity="1.0" points="209.21875,671.21875 209.21875,681.78125 219.78125,681.78125 219.78125,671.21875" stroke="none" /><polygon fill="darkcyan" opacity="1.0" points="210.25,705.25 210.25,713.75 218.75,713.75 218.75,705.25" stroke="none" /><polygon fill="darkcyan" opacity="1.0" points="211.28125,739.28125 211.28125,745.71875 217.71875,745.71875 217.71875,739.28125" stroke="none" /><polygon fill="darkcyan" opacity="1.0" points="212.3125,773.3125 212.3125,777.6875 216.6875,777.6875 216.6875,773.3125" stroke="none" /><polygon fill="darkcyan" opacity="1.0" points="213.34375,807.34375 213.34375,809.65625 215.65625,809.65625 215.65625,807.34375" stroke="none" /><polygon fill="darkcyan" opacity="1.0" points="214.375,841.375 214.375,841.625 214.625,841.625 214.625,841.375" stroke="none" /><polygon fill="darkcyan" opacity="1.0" points="247.375,16.375 247.375,16.625 247.625,16.625 247.625,16.375" stroke="none" /><polygon fill="darkcyan" opacity="1.0" points="246.34375,48.34375 246.34375,50.65625 248.65625,50.65625 248.65625,48.34375" stroke="none" /><polygon fill="darkcyan" opacity="1.0" points="245.3125,80.3125 245.3125,84.6875 249.6875,84.6875 249.6875,80.3125" stroke="none" /><polygon fill="darkcyan" opacity="1.0" points="244.28125,112.28125 244.28125,118.71875 250.71875,118.71875 250.71875,112.28125" stroke="none" /><polygon fill="darkcyan" opacity="1.0" points="243.25,144.25 243.25,152.75 251.75,152.75 251.75,144.25" stroke="none" /><polygon fill="darkcyan" opacity="1.0" points="242.21875,176.21875 242.21875,186.78125 252.78125,186.78125 252.78125,176.21875" stroke="none" /><polygon fill="darkcyan" opacity="1.0" points="241.1875,208.1875 241.1875,220.8125 253.8125,220.8125 253.8125,208.1875" stroke="none" /><polygon fill="darkcyan" opacity="1.0" points="240.15625,240.15625 240.15625,254.84375 254.84375,254.84375 254.84375,240.15625" stroke="none" /><polygon fill="darkcyan" opacity="1.0" points="239.125,272.125 239.125,288.875 255.875,288.875 255.875,272.125" stroke="none" /><polygon fill="darkcyan" opacity="1.0" points="238.09375,304.09375 238.09375,322.90625 256.90625,322.90625 256.90625,304.09375" stroke="none" /><polygon fill="darkcyan" opacity="1.0" points="237.0625,336.0625 237.0625,356.9375 257.9375,356.9375 257.9375,336.0625" stroke="none" /><polygon fill="darkcyan" opacity="1.0" points="236.03125,368.03125 236.03125,390.96875 258.96875,390.96875 258.96875,368.03125" stroke="none" /><polygon fill="darkcyan" opacity="1.0" points="235.0,400.0 235.0,425.0 260.0,425.0 260.0,400.0" stroke="none" /><polygon fill="darkcyan" opacity="1.0" points="235.0,433.0 235.0,458.0 260.0,458.0 260.0,433.0" stroke="none" /><polygon fill="darkcyan" opacity="1.0" points="236.03125,467.03125 236.03125,489.96875 258.96875,489.96875 258.96875,467.03125" stroke="none" /><polygon fill="darkcyan" opacity="1.0" points="237.0625,501.0625 237.0625,521.9375 257.9375,521.9375 257.9375,501.0625" stroke="none" /><polygon fill="darkcyan" opacity="1.0" points="238.09375,535.09375 238.09375,553.90625 256.90625,553.90625 256.90625,535.09375" stroke="none" /><polygon fill="darkcyan" opacity="1.0" points="239.125,569.125 239.125,585.875 255.875,585.875 255.875,569.125" stroke="none" /><polygon fill="darkcyan" opacity="1.0" points="240.15625,603.15625 240.15625,617.84375 254.84375,617.84375 254.84375,603.15625" stroke="none" /><polygon fill="darkcyan" opacity="1.0" points="241.1875,637.1875 241.1875,649.8125 253.8125,649.8125 253.8125,637.1875" stroke="none" /><polygon fill="darkcyan" opacity="1.0" points="242.21875,671.21875 242.21875,681.78125 252.78125,681.78125 252.78125,671.21875" stroke="none" /><polygon fill="darkcyan" opacity="1.0" points="243.25,705.25 243.25,713.75 251.75,713.75 251.75,705.25" stroke="none" /><polygon fill="darkcyan" opacity="1.0" points="244.28125,739.28125 244.28125,745.71875 250.71875,745.71875 250.71875,739.28125" stroke="none" /><polygon fill="darkcyan" opacity="1.0" points="245.3125,773.3125 245.3125,777.6875 249.6875,777.6875 249.6875,773.3125" stroke="none" /><polygon fill="darkcyan" opacity="1.0" points="246.34375,807.34375 246.34375,809.65625 248.65625,809.65625 248.65625,807.34375" stroke="none" /><polygon fill="darkcyan" opacity="1.0" points="247.375,841.375 247.375,841.625 247.625,841.625 247.625,841.375" stroke="none" /><polygon fill="darkcyan" opacity="1.0" points="280.375,16.375 280.375,16.625 280.625,16.625 280.625,16.375" stroke="none" /><polygon fill="darkcyan" opacity="1.0" points="279.34375,48.34375 279.34375,50.65625 281.65625,50.65625 281.65625,48.34375" stroke="none" /><polygon fill="darkcyan" opacity="1.0" points="278.3125,80.3125 278.3125,84.6875 282.6875,84.6875 282.6875,80.3125" stroke="none" /><polygon fill="darkcyan" opacity="1.0" points="277.28125,112.28125 277.28125,118.71875 283.71875,118.71875 283.71875,112.28125" stroke="none" /><polygon fill="darkcyan" opacity="1.0" points="276.25,144.25 276.25,152.75 284.75,152.75 284.75,144.25" stroke="none" /><polygon fill="darkcyan" opacity="1.0" points="275.21875,176.21875 275.21875,186.78125 285.78125,186.78125 285.78125,176.21875" stroke="none" /><polygon fill="darkcyan" opacity="1.0" points="274.1875,208.1875 274.1875,220.8125 286.8125,220.8125 286.8125,208.1875" stroke="none" /><polygon fill="darkcyan" opacity="1.0" points="273.15625,240.15625 273.15625,254.84375 287.84375,254.84375 287.84375,240.15625" stroke="none" /><polygon fill="darkcyan" opacity="1.0" points="272.125,272.125 272.125,288.875 288.875,288.875 288.875,272.125" stroke="none" /><polygon fill="darkcyan" opacity="1.0" points="271.09375,304.09375 271.09375,322.90625 289.90625,322.90625 289.90625,304.09375" stroke="none" /><polygon fill="darkcyan" opacity="1.0" points="270.0625,336.0625 270.0625,356.9375 290.9375,356.9375 290.9375,336.0625" stroke="none" /><polygon fill="darkcyan" opacity="1.0" points="269.03125,368.03125 269.03125,390.96875 291.96875,390.96875 291.96875,368.03125" stroke="none" /><polygon fill="darkcyan" opacity="1.0" points="268.0,400.0 268.0,425.0 293.0,425.0 293.0,400.0" stroke="none" /><polygon fill="darkcyan" opacity="1.0" points="268.0,433.0 268.0,458.0 293.0,458.0 293.0,433.0" stroke="none" /><polygon fill="darkcyan" opacity="1.0" points="269.03125,467.03125 269.03125,489.96875 291.96875,489.96875 291.96875,467.03125" stroke="none" /><polygon fill="darkcyan" opacity="1.0" points="270.0625,501.0625 270.0625,521.9375 290.9375,521.9375 290.9375,501.0625" stroke="none" /><polygon fill="darkcyan" opacity="1.0" points="271.09375,535.09375 271.09375,553.90625 289.90625,553.90625 289.90625,535.09375" stroke="none" /><polygon fill="darkcyan" opacity="1.0" points="272.125,569.125 272.125,585.875 288.875,585.875 288.875,569.125" stroke="none" /><polygon fill="darkcyan" opacity="1.0" points="273.15625,603.15625 273.15625,617.84375 287.84375,617.84375 287.84375,603.15625" stroke="none" /><polygon fill="darkcyan" opacity="1.0" points="274.1875,637.1875 274.1875,649.8125 286.8125,649.8125 286.8125,637.1875" stroke="none" /><polygon fill="darkcyan" opacity="1.0" points="275.21875,671.21875 275.21875,681.78125 285.78125,681.78125 285.78125,671.21875" stroke="none" /><polygon fill="darkcyan" opacity="1.0" points="276.25,705.25 276.25,713.75 284.75,713.75 284.75,705.25" stroke="none" /><polygon fill="darkcyan" opacity="1.0" points="277.28125,739.28125 277.28125,745.71875 283.71875,745.71875 283.71875,739.28125" stroke="none" /><polygon fill="darkcyan" opacity="1.0" points="278.3125,773.3125 278.3125,777.6875 282.6875,777.6875 282.6875,773.3125" stroke="none" /><polygon fill="darkcyan" opacity="1.0" points="279.34375,807.34375 279.34375,809.65625 281.65625,809.65625 281.65625,807.34375" stroke="none" /><polygon fill="darkcyan" opacity="1.0" points="280.375,841.375 280.375,841.625 280.625,841.625 280.625,841.375" stroke="none" /><polygon fill="darkcyan" opacity="1.0" points="313.375,16.375 313.375,16.625 313.625,16.625 313.625,16.375" stroke="none" /><polygon fill="darkcyan" opacity="1.0" points="312.34375,48.34375 312.34375,50.65625 314.65625,50.65625 314.65625,48.34375" stroke="none" /><polygon fill="darkcyan" opacity="1.0" points="311.3125,80.3125 311.3125,84.6875 315.6875,84.6875 315.6875,80.3125" stroke="none" /><polygon fill="darkcyan" opacity="1.0" points="310.28125,112.28125 310.28125,118.71875 316.71875,118.71875 316.71875,112.28125" stroke="none" /><polygon fill="darkcyan" opacity="1.0" points="309.25,144.25 309.25,152.75 317.75,152.75 317.75,144.25" stroke="none" /><polygon fill="darkcyan" opacity="1.0" points="308.21875,176.21875 308.21875,186.78125 318.78125,186.78125 318.78125,176.21875" stroke="none" /><polygon fill="darkcyan" opacity="1.0" points="307.1875,208.1875 307.1875,220.8125 319.8125,220.8125 319.8125,208.1875" stroke="none" /><polygon fill="darkcyan" opacity="1.0" points="306.15625,240.15625 306.15625,254.84375 320.84375,254.84375 320.84375,240.15625" stroke="none" /><polygon fill="darkcyan" opacity="1.0" points="305.125,272.125 305.125,288.875 321.875,288.875 321.875,272.125" stroke="none" /><polygon fill="darkcyan" opacity="1.0" points="304.09375,304.09375 304.09375,322.90625 322.90625,322.90625 322.90625,304.09375" stroke="none" /><polygon fill="darkcyan" opacity="1.0" points="303.0625,336.0625 303.0625,356.9375 323.9375,356.9375 323.9375,336.0625" stroke="none" /><polygon fill="darkcyan" opacity="1.0" points="302.03125,368.03125 302.03125,390.96875 324.96875,390.96875 324.96875,368.03125" stroke="none" /><polygon fill="darkcyan" opacity="1.0" points="301.0,400.0 301.0,425.0 326.0,425.0 326.0,400.0" stroke="none" /><polygon fill="darkcyan" opacity="1.0" points="301.0,433.0 301.0,458.0 326.0,458.0 326.0,433.0" stroke="none" /><polygon fill="darkcyan" opacity="1.0" points="302.03125,467.03125 302.03125,489.96875 324.96875,489.96875 324.96875,467.03125" stroke="none" /><polygon fill="darkcyan" opacity="1.0" points="303.0625,501.0625 303.0625,521.9375 323.9375,521.9375 323.9375,501.0625" stroke="none" /><polygon fill="darkcyan" opacity="1.0" points="304.09375,535.09375 304.09375,553.90625 322.90625,553.90625 322.90625,535.09375" stroke="none" /><polygon fill="darkcyan" opacity="1.0" points="305.125,569.125 305.125,585.875 321.875,585.875 321.875,569.125" stroke="none" /><polygon fill="darkcyan" opacity="1.0" points="306.15625,603.15625 306.15625,617.84375 320.84375,617.84375 320.84375,603.15625" stroke="none" /><polygon fill="darkcyan" opacity="1.0" points="307.1875,637.1875 307.1875,649.8125 319.8125,649.8125 319.8125,637.1875" stroke="none" /><polygon fill="darkcyan" opacity="1.0" points="308.21875,671.21875 308.21875,681.78125 318.78125,681.78125 318.78125,671.21875" stroke="none" /><polygon fill="darkcyan" opacity="1.0" points="309.25,705.25 309.25,713.75 317.75,713.75 317.75,705.25" stroke="none" /><polygon fill="darkcyan" opacity="1.0" points="310.28125,739.28125 310.28125,745.71875 316.71875,745.71875 316.71875,739.28125" stroke="none" /><polygon fill="darkcyan" opacity="1.0" points="311.3125,773.3125 311.3125,777.6875 315.6875,777.6875 315.6875,773.3125" stroke="none" /><polygon fill="darkcyan" opacity="1.0" points="312.34375,807.34375 312.34375,809.65625 314.65625,809.65625 314.65625,807.34375" stroke="none" /><polygon fill="darkcyan" opacity="1.0" points="313.375,841.375 313.375,841.625 313.625,841.625 313.625,841.375" stroke="none" /><polygon fill="darkcyan" opacity="1.0" points="346.375,16.375 346.375,16.625 346.625,16.625 346.625,16.375" stroke="none" /><polygon fill="darkcyan" opacity="1.0" points="345.34375,48.34375 345.34375,50.65625 347.65625,50.65625 347.65625,48.34375" stroke="none" /><polygon fill="darkcyan" opacity="1.0" points="344.3125,80.3125 344.3125,84.6875 348.6875,84.6875 348.6875,80.3125" stroke="none" /><polygon fill="darkcyan" opacity="1.0" points="343.28125,112.28125 343.28125,118.71875 349.71875,118.71875 349.71875,112.28125" stroke="none" /><polygon fill="darkcyan" opacity="1.0" points="342.25,144.25 342.25,152.75 350.75,152.75 350.75,144.25" stroke="none" /><polygon fill="darkcyan" opacity="1.0" points="341.21875,176.21875 341.21875,186.78125 351.78125,186.78125 351.78125,176.21875" stroke="none" /><polygon fill="darkcyan" opacity="1.0" points="340.1875,208.1875 340.1875,220.8125 352.8125,220.8125 352.8125,208.1875" stroke="none" /><polygon fill="darkcyan" opacity="1.0" points="339.15625,240.15625 339.15625,254.84375 353.84375,254.84375 353.84375,240.15625" stroke="none" /><polygon fill="darkcyan" opacity="1.0" points="338.125,272.125 338.125,288.875 354.875,288.875 354.875,272.125" stroke="none" /><polygon fill="darkcyan" opacity="1.0" points="337.09375,304.09375 337.09375,322.90625 355.90625,322.90625 355.90625,304.09375" stroke="none" /><polygon fill="darkcyan" opacity="1.0" points="336.0625,336.0625 336.0625,356.9375 356.9375,356.9375 356.9375,336.0625" stroke="none" /><polygon fill="darkcyan" opacity="1.0" points="335.03125,368.03125 335.03125,390.96875 357.96875,390.96875 357.96875,368.03125" stroke="none" /><polygon fill="darkcyan" opacity="1.0" points="334.0,400.0 334.0,425.0 359.0,425.0 359.0,400.0" stroke="none" /><polygon fill="darkcyan" opacity="1.0" points="334.0,433.0 334.0,458.0 359.0,458.0 359.0,433.0" stroke="none" /><polygon fill="darkcyan" opacity="1.0" points="335.03125,467.03125 335.03125,489.96875 357.96875,489.96875 357.96875,467.03125" stroke="none" /><polygon fill="darkcyan" opacity="1.0" points="336.0625,501.0625 336.0625,521.9375 356.9375,521.9375 356.9375,501.0625" stroke="none" /><polygon fill="darkcyan" opacity="1.0" points="337.09375,535.09375 337.09375,553.90625 355.90625,553.90625 355.90625,535.09375" stroke="none" /><polygon fill="darkcyan" opacity="1.0" points="338.125,569.125 338.125,585.875 354.875,585.875 354.875,569.125" stroke="none" /><polygon fill="darkcyan" opacity="1.0" points="339.15625,603.15625 339.15625,617.84375 353.84375,617.84375 353.84375,603.15625" stroke="none" /><polygon fill="darkcyan" opacity="1.0" points="340.1875,637.1875 340.1875,649.8125 352.8125,649.8125 352.8125,637.1875" stroke="none" /><polygon fill="darkcyan" opacity="1.0" points="341.21875,671.21875 341.21875,681.78125 351.78125,681.78125 351.78125,671.21875" stroke="none" /><polygon fill="darkcyan" opacity="1.0" points="342.25,705.25 342.25,713.75 350.75,713.75 350.75,705.25" stroke="none" /><polygon fill="darkcyan" opacity="1.0" points="343.28125,739.28125 343.28125,745.71875 349.71875,745.71875 349.71875,739.28125" stroke="none" /><polygon fill="darkcyan" opacity="1.0" points="344.3125,773.3125 344.3125,777.6875 348.6875,777.6875 348.6875,773.3125" stroke="none" /><polygon fill="darkcyan" opacity="1.0" points="345.34375,807.34375 345.34375,809.65625 347.65625,809.65625 347.65625,807.34375" stroke="none" /><polygon fill="darkcyan" opacity="1.0" points="346.375,841.375 346.375,841.625 346.625,841.625 346.625,841.375" stroke="none" /><polygon fill="darkcyan" opacity="1.0" points="379.375,16.375 379.375,16.625 379.625,16.625 379.625,16.375" stroke="none" /><polygon fill="darkcyan" opacity="1.0" points="378.34375,48.34375 378.34375,50.65625 380.65625,50.65625 380.65625,48.34375" stroke="none" /><polygon fill="darkcyan" opacity="1.0" points="377.3125,80.3125 377.3125,84.6875 381.6875,84.6875 381.6875,80.3125" stroke="none" /><polygon fill="darkcyan" opacity="1.0" points="376.28125,112.28125 376.28125,118.71875 382.71875,118.71875 382.71875,112.28125" stroke="none" /><polygon fill="darkcyan" opacity="1.0" points="375.25,144.25 375.25,152.75 383.75,152.75 383.75,144.25" stroke="none" /><polygon fill="darkcyan" opacity="1.0" points="374.21875,176.21875 374.21875,186.78125 384.78125,186.78125 384.78125,176.21875" stroke="none" /><polygon fill="darkcyan" opacity="1.0" points="373.1875,208.1875 373.1875,220.8125 385.8125,220.8125 385.8125,208.1875" stroke="none" /><polygon fill="darkcyan" opacity="1.0" points="372.15625,240.15625 372.15625,254.84375 386.84375,254.84375 386.84375,240.15625" stroke="none" /><polygon fill="darkcyan" opacity="1.0" points="371.125,272.125 371.125,288.875 387.875,288.875 387.875,272.125" stroke="none" /><polygon fill="darkcyan" opacity="1.0" points="370.09375,304.09375 370.09375,322.90625 388.90625,322.90625 388.90625,304.09375" stroke="none" /><polygon fill="darkcyan" opacity="1.0" points="369.0625,336.0625 369.0625,356.9375 389.9375,356.9375 389.9375,336.0625" stroke="none" /><polygon fill="darkcyan" opacity="1.0" points="368.03125,368.03125 368.03125,390.96875 390.96875,390.96875 390.96875,368.03125" stroke="none" /><polygon fill="darkcyan" opacity="1.0" points="367.0,400.0 367.0,425.0 392.0,425.0 392.0,400.0" stroke="none" /><polygon fill="darkcyan" opacity="1.0" points="367.0,433.0 367.0,458.0 392.0,458.0 392.0,433.0" stroke="none" /><polygon fill="darkcyan" opacity="1.0" points="368.03125,467.03125 368.03125,489.96875 390.96875,489.96875 390.96875,467.03125" stroke="none" /><polygon fill="darkcyan" opacity="1.0" points="369.0625,501.0625 369.0625,521.9375 389.9375,521.9375 389.9375,501.0625" stroke="none" /><polygon fill="darkcyan" opacity="1.0" points="370.09375,535.09375 370.09375,553.90625 388.90625,553.90625 388.90625,535.09375" stroke="none" /><polygon fill="darkcyan" opacity="1.0" points="371.125,569.125 371.125,585.875 387.875,585.875 387.875,569.125" stroke="none" /><polygon fill="darkcyan" opacity="1.0" points="372.15625,603.15625 372.15625,617.84375 386.84375,617.84375 386.84375,603.15625" stroke="none" /><polygon fill="darkcyan" opacity="1.0" points="373.1875,637.1875 373.1875,649.8125 385.8125,649.8125 385.8125,637.1875" stroke="none" /><polygon fill="darkcyan" opacity="1.0" points="374.21875,671.21875 374.21875,681.78125 384.78125,681.78125 384.78125,671.21875" stroke="none" /><polygon fill="darkcyan" opacity="1.0" points="375.25,705.25 375.25,713.75 383.75,713.75 383.75,705.25" stroke="none" /><polygon fill="darkcyan" opacity="1.0" points="376.28125,739.28125 376.28125,745.71875 382.71875,745.71875 382.71875,739.28125" stroke="none" /><polygon fill="darkcyan" opacity="1.0" points="377.3125,773.3125 377.3125,777.6875 381.6875,777.6875 381.6875,773.3125" stroke="none" /><polygon fill="darkcyan" opacity="1.0" points="378.34375,807.34375 378.34375,809.65625 380.65625,809.65625 380.65625,807.34375" stroke="none" /><polygon fill="darkcyan" opacity="1.0" points="379.375,841.375 379.375,841.625 379.625,841.625 379.625,841.375" stroke="none" /><polygon fill="darkcyan" opacity="1.0" points="412.375,16.375 412.375,16.625 412.625,16.625 412.625,16.375" stroke="none" /><polygon fill="darkcyan" opacity="1.0" points="411.34375,48.34375 411.34375,50.65625 413.65625,50.65625 413.65625,48.34375" stroke="none" /><polygon fill="darkcyan" opacity="1.0" points="410.3125,80.3125 410.3125,84.6875 414.6875,84.6875 414.6875,80.3125" stroke="none" /><polygon fill="darkcyan" opacity="1.0" points="409.28125,112.28125 409.28125,118.71875 415.71875,118.71875 415.71875,112.28125" stroke="none" /><polygon fill="darkcyan" opacity="1.0" points="408.25,144.25 408.25,152.75 416.75,152.75 416.75,144.25" stroke="none" /><polygon fill="darkcyan" opacity="1.0" points="407.21875,176.21875 407.21875,186.78125 417.78125,186.78125 417.78125,176.21875" stroke="none" /><polygon fill="darkcyan" opacity="1.0" points="406.1875,208.1875 406.1875,220.8125 418.8125,220.8125 418.8125,208.1875" stroke="none" /><polygon fill="darkcyan" opacity="1.0" points="405.15625,240.15625 405.15625,254.84375 419.84375,254.84375 419.84375,240.15625" stroke="none" /><polygon fill="darkcyan" opacity="1.0" points="404.125,272.125 404.125,288.875 420.875,288.875 420.875,272.125" stroke="none" /><polygon fill="darkcyan" opacity="1.0" points="403.09375,304.09375 403.09375,322.90625 421.90625,322.90625 421.90625,304.09375" stroke="none" /><polygon fill="darkcyan" opacity="1.0" points="402.0625,336.0625 402.0625,356.9375 422.9375,356.9375 422.9375,336.0625" stroke="none" /><polygon fill="darkcyan" opacity="1.0" points="401.03125,368.03125 401.03125,390.96875 423.96875,390.96875 423.96875,368.03125" stroke="none" /><polygon fill="darkcyan" opacity="1.0" points="400.0,400.0 400.0,425.0 425.0,425.0 425.0,400.0" stroke="none" /><polygon fill="darkcyan" opacity="1.0" points="400.0,433.0 400.0,458.0 425.0,458.0 425.0,433.0" stroke="none" /><polygon fill="darkcyan" opacity="1.0" points="401.03125,467.03125 401.03125,489.96875 423.96875,489.96875 423.96875,467.03125" stroke="none" /><polygon fill="darkcyan" opacity="1.0" points="402.0625,501.0625 402.0625,521.9375 422.9375,521.9375 422.9375,501.0625" stroke="none" /><polygon fill="darkcyan" opacity="1.0" points="403.09375,535.09375 403.09375,553.90625 421.90625,553.90625 421.90625,535.09375" stroke="none" /><polygon fill="darkcyan" opacity="1.0" points="404.125,569.125 404.125,585.875 420.875,585.875 420.875,569.125" stroke="none" /><polygon fill="darkcyan" opacity="1.0" points="405.15625,603.15625 405.15625,617.84375 419.84375,617.84375 419.84375,603.15625" stroke="none" /><polygon fill="darkcyan" opacity="1.0" points="406.1875,637.1875 406.1875,649.8125 418.8125,649.8125 418.8125,637.1875" stroke="none" /><polygon fill="darkcyan" opacity="1.0" points="407.21875,671.21875 407.21875,681.78125 417.78125,681.78125 417.78125,671.21875" stroke="none" /><polygon fill="darkcyan" opacity="1.0" points="408.25,705.25 408.25,713.75 416.75,713.75 416.75,705.25" stroke="none" /><polygon fill="darkcyan" opacity="1.0" points="409.28125,739.28125 409.28125,745.71875 415.71875,745.71875 415.71875,739.28125" stroke="none" /><polygon fill="darkcyan" opacity="1.0" points="410.3125,773.3125 410.3125,777.6875 414.6875,777.6875 414.6875,773.3125" stroke="none" /><polygon fill="darkcyan" opacity="1.0" points="411.34375,807.34375 411.34375,809.65625 413.65625,809.65625 413.65625,807.34375" stroke="none" /><polygon fill="darkcyan" opacity="1.0" points="412.375,841.375 412.375,841.625 412.625,841.625 412.625,841.375" stroke="none" /><polygon fill="darkcyan" opacity="1.0" points="445.375,16.375 445.375,16.625 445.625,16.625 445.625,16.375" stroke="none" /><polygon fill="darkcyan" opacity="1.0" points="444.34375,48.34375 444.34375,50.65625 446.65625,50.65625 446.65625,48.34375" stroke="none" /><polygon fill="darkcyan" opacity="1.0" points="443.3125,80.3125 443.3125,84.6875 447.6875,84.6875 447.6875,80.3125" stroke="none" /><polygon fill="darkcyan" opacity="1.0" points="442.28125,112.28125 442.28125,118.71875 448.71875,118.71875 448.71875,112.28125" stroke="none" /><polygon fill="darkcyan" opacity="1.0" points="441.25,144.25 441.25,152.75 449.75,152.75 449.75,144.25" stroke="none" /><polygon fill="darkcyan" opacity="1.0" points="440.21875,176.21875 440.21875,186.78125 450.78125,186.78125 450.78125,176.21875" stroke="none" /><polygon fill="darkcyan" opacity="1.0" points="439.1875,208.1875 439.1875,220.8125 451.8125,220.8125 451.8125,208.1875" stroke="none" /><polygon fill="darkcyan" opacity="1.0" points="438.15625,240.15625 438.15625,254.84375 452.84375,254.84375 452.84375,240.15625" stroke="none" /><polygon fill="darkcyan" opacity="1.0" points="437.125,272.125 437.125,288.875 453.875,288.875 453.875,272.125" stroke="none" /><polygon fill="darkcyan" opacity="1.0" points="436.09375,304.09375 436.09375,322.90625 454.90625,322.90625 454.90625,304.09375" stroke="none" /><polygon fill="darkcyan" opacity="1.0" points="435.0625,336.0625 435.0625,356.9375 455.9375,356.9375 455.9375,336.0625" stroke="none" /><polygon fill="darkcyan" opacity="1.0" points="434.03125,368.03125 434.03125,390.96875 456.96875,390.96875 456.96875,368.03125" stroke="none" /><polygon fill="darkcyan" opacity="1.0" points="433.0,400.0 433.0,425.0 458.0,425.0 458.0,400.0" stroke="none" /><polygon fill="darkcyan" opacity="1.0" points="433.0,433.0 433.0,458.0 458.0,458.0 458.0,433.0" stroke="none" /><polygon fill="darkcyan" opacity="1.0" points="434.03125,467.03125 434.03125,489.96875 456.96875,489.96875 456.96875,467.03125" stroke="none" /><polygon fill="darkcyan" opacity="1.0" points="435.0625,501.0625 435.0625,521.9375 455.9375,521.9375 455.9375,501.0625" stroke="none" /><polygon fill="darkcyan" opacity="1.0" points="436.09375,535.09375 436.09375,553.90625 454.90625,553.90625 454.90625,535.09375" stroke="none" /><polygon fill="darkcyan" opacity="1.0" points="437.125,569.125 437.125,585.875 453.875,585.875 453.875,569.125" stroke="none" /><polygon fill="darkcyan" opacity="1.0" points="438.15625,603.15625 438.15625,617.84375 452.84375,617.84375 452.84375,603.15625" stroke="none" /><polygon fill="darkcyan" opacity="1.0" points="439.1875,637.1875 439.1875,649.8125 451.8125,649.8125 451.8125,637.1875" stroke="none" /><polygon fill="darkcyan" opacity="1.0" points="440.21875,671.21875 440.21875,681.78125 450.78125,681.78125 450.78125,671.21875" stroke="none" /><polygon fill="darkcyan" opacity="1.0" points="441.25,705.25 441.25,713.75 449.75,713.75 449.75,705.25" stroke="none" /><polygon fill="darkcyan" opacity="1.0" points="442.28125,739.28125 442.28125,745.71875 448.71875,745.71875 448.71875,739.28125" stroke="none" /><polygon fill="darkcyan" opacity="1.0" points="443.3125,773.3125 443.3125,777.6875 447.6875,777.6875 447.6875,773.3125" stroke="none" /><polygon fill="darkcyan" opacity="1.0" points="444.34375,807.34375 444.34375,809.65625 446.65625,809.65625 446.65625,807.34375" stroke="none" /><polygon fill="darkcyan" opacity="1.0" points="445.375,841.375 445.375,841.625 445.625,841.625 445.625,841.375" stroke="none" /><polygon fill="darkcyan" opacity="1.0" points="478.375,16.375 478.375,16.625 478.625,16.625 478.625,16.375" stroke="none" /><polygon fill="darkcyan" opacity="1.0" points="477.34375,48.34375 477.34375,50.65625 479.65625,50.65625 479.65625,48.34375" stroke="none" /><polygon fill="darkcyan" opacity="1.0" points="476.3125,80.3125 476.3125,84.6875 480.6875,84.6875 480.6875,80.3125" stroke="none" /><polygon fill="darkcyan" opacity="1.0" points="475.28125,112.28125 475.28125,118.71875 481.71875,118.71875 481.71875,112.28125" stroke="none" /><polygon fill="darkcyan" opacity="1.0" points="474.25,144.25 474.25,152.75 482.75,152.75 482.75,144.25" stroke="none" /><polygon fill="darkcyan" opacity="1.0" points="473.21875,176.21875 473.21875,186.78125 483.78125,186.78125 483.78125,176.21875" stroke="none" /><polygon fill="darkcyan" opacity="1.0" points="472.1875,208.1875 472.1875,220.8125 484.8125,220.8125 484.8125,208.1875" stroke="none" /><polygon fill="darkcyan" opacity="1.0" points="471.15625,240.15625 471.15625,254.84375 485.84375,254.84375 485.84375,240.15625" stroke="none" /><polygon fill="darkcyan" opacity="1.0" points="470.125,272.125 470.125,288.875 486.875,288.875 486.875,272.125" stroke="none" /><polygon fill="darkcyan" opacity="1.0" points="469.09375,304.09375 469.09375,322.90625 487.90625,322.90625 487.90625,304.09375" stroke="none" /><polygon fill="darkcyan" opacity="1.0" points="468.0625,336.0625 468.0625,356.9375 488.9375,356.9375 488.9375,336.0625" stroke="none" /><polygon fill="darkcyan" opacity="1.0" points="467.03125,368.03125 467.03125,390.96875 489.96875,390.96875 489.96875,368.03125" stroke="none" /><polygon fill="darkcyan" opacity="1.0" points="466.0,400.0 466.0,425.0 491.0,425.0 491.0,400.0" stroke="none" /><polygon fill="darkcyan" opacity="1.0" points="466.0,433.0 466.0,458.0 491.0,458.0 491.0,433.0" stroke="none" /><polygon fill="darkcyan" opacity="1.0" points="467.03125,467.03125 467.03125,489.96875 489.96875,489.96875 489.96875,467.03125" stroke="none" /><polygon fill="darkcyan" opacity="1.0" points="468.0625,501.0625 468.0625,521.9375 488.9375,521.9375 488.9375,501.0625" stroke="none" /><polygon fill="darkcyan" opacity="1.0" points="469.09375,535.09375 469.09375,553.90625 487.90625,553.90625 487.90625,535.09375" stroke="none" /><polygon fill="darkcyan" opacity="1.0" points="470.125,569.125 470.125,585.875 486.875,585.875 486.875,569.125" stroke="none" /><polygon fill="darkcyan" opacity="1.0" points="471.15625,603.15625 471.15625,617.84375 485.84375,617.84375 485.84375,603.15625" stroke="none" /><polygon fill="darkcyan" opacity="1.0" points="472.1875,637.1875 472.1875,649.8125 484.8125,649.8125 484.8125,637.1875" stroke="none" /><polygon fill="darkcyan" opacity="1.0" points="473.21875,671.21875 473.21875,681.78125 483.78125,681.78125 483.78125,671.21875" stroke="none" /><polygon fill="darkcyan" opacity="1.0" points="474.25,705.25 474.25,713.75 482.75,713.75 482.75,705.25" stroke="none" /><polygon fill="darkcyan" opacity="1.0" points="475.28125,739.28125 475.28125,745.71875 481.71875,745.71875 481.71875,739.28125" stroke="none" /><polygon fill="darkcyan" opacity="1.0" points="476.3125,773.3125 476.3125,777.6875 480.6875,777.6875 480.6875,773.3125" stroke="none" /><polygon fill="darkcyan" opacity="1.0" points="477.34375,807.34375 477.34375,809.65625 479.65625,809.65625 479.65625,807.34375" stroke="none" /><polygon fill="darkcyan" opacity="1.0" points="478.375,841.375 478.375,841.625 478.625,841.625 478.625,841.375" stroke="none" /><polygon fill="darkcyan" opacity="1.0" points="511.375,16.375 511.375,16.625 511.625,16.625 511.625,16.375" stroke="none" /><polygon fill="darkcyan" opacity="1.0" points="510.34375,48.34375 510.34375,50.65625 512.65625,50.65625 512.65625,48.34375" stroke="none" /><polygon fill="darkcyan" opacity="1.0" points="509.3125,80.3125 509.3125,84.6875 513.6875,84.6875 513.6875,80.3125" stroke="none" /><polygon fill="darkcyan" opacity="1.0" points="508.28125,112.28125 508.28125,118.71875 514.71875,118.71875 514.71875,112.28125" stroke="none" /><polygon fill="darkcyan" opacity="1.0" points="507.25,144.25 507.25,152.75 515.75,152.75 515.75,144.25" stroke="none" /><polygon fill="darkcyan" opacity="1.0" points="506.21875,176.21875 506.21875,186.78125 516.78125,186.78125 516.78125,176.21875" stroke="none" /><polygon fill="darkcyan" opacity="1.0" points="505.1875,208.1875 505.1875,220.8125 517.8125,220.8125 517.8125,208.1875" stroke="none" /><polygon fill="darkcyan" opacity="1.0" points="504.15625,240.15625 504.15625,254.84375 518.84375,254.84375 518.84375,240.15625" stroke="none" /><polygon fill="darkcyan" opacity="1.0" points="503.125,272.125 503.125,288.875 519.875,288.875 519.875,272.125" stroke="none" /><polygon fill="darkcyan" opacity="1.0" points="502.09375,304.09375 502.09375,322.90625 520.90625,322.90625 520.90625,304.09375" stroke="none" /><polygon fill="darkcyan" opacity="1.0" points="501.0625,336.0625 501.0625,356.9375 521.9375,356.9375 521.9375,336.0625" stroke="none" /><polygon fill="darkcyan" opacity="1.0" points="500.03125,368.03125 500.03125,390.96875 522.96875,390.96875 522.96875,368.03125" stroke="none" /><polygon fill="darkcyan" opacity="1.0" points="499.0,400.0 499.0,425.0 524.0,425.0 524.0,400.0" stroke="none" /><polygon fill="darkcyan" opacity="1.0" points="499.0,433.0 499.0,458.0 524.0,458.0 524.0,433.0" stroke="none" /><polygon fill="darkcyan" opacity="1.0" points="500.03125,467.03125 500.03125,489.96875 522.96875,489.96875 522.96875,467.03125" stroke="none" /><polygon fill="darkcyan" opacity="1.0" points="501.0625,501.0625 501.0625,521.9375 521.9375,521.9375 521.9375,501.0625" stroke="none" /><polygon fill="darkcyan" opacity="1.0" points="502.09375,535.09375 502.09375,553.90625 520.90625,553.90625 520.90625,535.09375" stroke="none" /><polygon fill="darkcyan" opacity="1.0" points="503.125,569.125 503.125,585.875 519.875,585.875 519.875,569.125" stroke="none" /><polygon fill="darkcyan" opacity="1.0" points="504.15625,603.15625 504.15625,617.84375 518.84375,617.84375 518.84375,603.15625" stroke="none" /><polygon fill="darkcyan" opacity="1.0" points="505.1875,637.1875 505.1875,649.8125 517.8125,649.8125 517.8125,637.1875" stroke="none" /><polygon fill="darkcyan" opacity="1.0" points="506.21875,671.21875 506.21875,681.78125 516.78125,681.78125 516.78125,671.21875" stroke="none" /><polygon fill="darkcyan" opacity="1.0" points="507.25,705.25 507.25,713.75 515.75,713.75 515.75,705.25" stroke="none" /><polygon fill="darkcyan" opacity="1.0" points="508.28125,739.28125 508.28125,745.71875 514.71875,745.71875 514.71875,739.28125" stroke="none" /><polygon fill="darkcyan" opacity="1.0" points="509.3125,773.3125 509.3125,777.6875 513.6875,777.6875 513.6875,773.3125" stroke="none" /><polygon fill="darkcyan" opacity="1.0" points="510.34375,807.34375 510.34375,809.65625 512.65625,809.65625 512.65625,807.34375" stroke="none" /><polygon fill="darkcyan" opacity="1.0" points="511.375,841.375 511.375,841.625 511.625,841.625 511.625,841.375" stroke="none" /><polygon fill="darkcyan" opacity="1.0" points="544.375,16.375 544.375,16.625 544.625,16.625 544.625,16.375" stroke="none" /><polygon fill="darkcyan" opacity="1.0" points="543.34375,48.34375 543.34375,50.65625 545.65625,50.65625 545.65625,48.34375" stroke="none" /><polygon fill="darkcyan" opacity="1.0" points="542.3125,80.3125 542.3125,84.6875 546.6875,84.6875 546.6875,80.3125" stroke="none" /><polygon fill="darkcyan" opacity="1.0" points="541.28125,112.28125 541.28125,118.71875 547.71875,118.71875 547.71875,112.28125" stroke="none" /><polygon fill="darkcyan" opacity="1.0" points="540.25,144.25 540.25,152.75 548.75,152.75 548.75,144.25" stroke="none" /><polygon fill="darkcyan" opacity="1.0" points="539.21875,176.21875 539.21875,186.78125 549.78125,186.78125 549.78125,176.21875" stroke="none" /><polygon fill="darkcyan" opacity="1.0" points="538.1875,208.1875 538.1875,220.8125 550.8125,220.8125 550.8125,208.1875" stroke="none" /><polygon fill="darkcyan" opacity="1.0" points="537.15625,240.15625 537.15625,254.84375 551.84375,254.84375 551.84375,240.15625" stroke="none" /><polygon fill="darkcyan" opacity="1.0" points="536.125,272.125 536.125,288.875 552.875,288.875 552.875,272.125" stroke="none" /><polygon fill="darkcyan" opacity="1.0" points="535.09375,304.09375 535.09375,322.90625 553.90625,322.90625 553.90625,304.09375" stroke="none" /><polygon fill="darkcyan" opacity="1.0" points="534.0625,336.0625 534.0625,356.9375 554.9375,356.9375 554.9375,336.0625" stroke="none" /><polygon fill="darkcyan" opacity="1.0" points="533.03125,368.03125 533.03125,390.96875 555.96875,390.96875 555.96875,368.03125" stroke="none" /><polygon fill="darkcyan" opacity="1.0" points="532.0,400.0 532.0,425.0 557.0,425.0 557.0,400.0" stroke="none" /><polygon fill="darkcyan" opacity="1.0" points="532.0,433.0 532.0,458.0 557.0,458.0 557.0,433.0" stroke="none" /><polygon fill="darkcyan" opacity="1.0" points="533.03125,467.03125 533.03125,489.96875 555.96875,489.96875 555.96875,467.03125" stroke="none" /><polygon fill="darkcyan" opacity="1.0" points="534.0625,501.0625 534.0625,521.9375 554.9375,521.9375 554.9375,501.0625" stroke="none" /><polygon fill="darkcyan" opacity="1.0" points="535.09375,535.09375 535.09375,553.90625 553.90625,553.90625 553.90625,535.09375" stroke="none" /><polygon fill="darkcyan" opacity="1.0" points="536.125,569.125 536.125,585.875 552.875,585.875 552.875,569.125" stroke="none" /><polygon fill="darkcyan" opacity="1.0" points="537.15625,603.15625 537.15625,617.84375 551.84375,617.84375 551.84375,603.15625" stroke="none" /><polygon fill="darkcyan" opacity="1.0" points="538.1875,637.1875 538.1875,649.8125 550.8125,649.8125 550.8125,637.1875" stroke="none" /><polygon fill="darkcyan" opacity="1.0" points="539.21875,671.21875 539.21875,681.78125 549.78125,681.78125 549.78125,671.21875" stroke="none" /><polygon fill="darkcyan" opacity="1.0" points="540.25,705.25 540.25,713.75 548.75,713.75 548.75,705.25" stroke="none" /><polygon fill="darkcyan" opacity="1.0" points="541.28125,739.28125 541.28125,745.71875 547.71875,745.71875 547.71875,739.28125" stroke="none" /><polygon fill="darkcyan" opacity="1.0" points="542.3125,773.3125 542.3125,777.6875 546.6875,777.6875 546.6875,773.3125" stroke="none" /><polygon fill="darkcyan" opacity="1.0" points="543.34375,807.34375 543.34375,809.65625 545.65625,809.65625 545.65625,807.34375" stroke="none" /><polygon fill="darkcyan" opacity="1.0" points="544.375,841.375 544.375,841.625 544.625,841.625 544.625,841.375" stroke="none" /><polygon fill="darkcyan" opacity="1.0" points="577.375,16.375 577.375,16.625 577.625,16.625 577.625,16.375" stroke="none" /><polygon fill="darkcyan" opacity="1.0" points="576.34375,48.34375 576.34375,50.65625 578.65625,50.65625 578.65625,48.34375" stroke="none" /><polygon fill="darkcyan" opacity="1.0" points="575.3125,80.3125 575.3125,84.6875 579.6875,84.6875 579.6875,80.3125" stroke="none" /><polygon fill="darkcyan" opacity="1.0" points="574.28125,112.28125 574.28125,118.71875 580.71875,118.71875 580.71875,112.28125" stroke="none" /><polygon fill="darkcyan" opacity="1.0" points="573.25,144.25 573.25,152.75 581.75,152.75 581.75,144.25" stroke="none" /><polygon fill="darkcyan" opacity="1.0" points="572.21875,176.21875 572.21875,186.78125 582.78125,186.78125 582.78125,176.21875" stroke="none" /><polygon fill="darkcyan" opacity="1.0" points="571.1875,208.1875 571.1875,220.8125 583.8125,220.8125 583.8125,208.1875" stroke="none" /><polygon fill="darkcyan" opacity="1.0" points="570.15625,240.15625 570.15625,254.84375 584.84375,254.84375 584.84375,240.15625" stroke="none" /><polygon fill="darkcyan" opacity="1.0" points="569.125,272.125 569.125,288.875 585.875,288.875 585.875,272.125" stroke="none" /><polygon fill="darkcyan" opacity="1.0" points="568.09375,304.09375 568.09375,322.90625 586.90625,322.90625 586.90625,304.09375" stroke="none" /><polygon fill="darkcyan" opacity="1.0" points="567.0625,336.0625 567.0625,356.9375 587.9375,356.9375 587.9375,336.0625" stroke="none" /><polygon fill="darkcyan" opacity="1.0" points="566.03125,368.03125 566.03125,390.96875 588.96875,390.96875 588.96875,368.03125" stroke="none" /><polygon fill="darkcyan" opacity="1.0" points="565.0,400.0 565.0,425.0 590.0,425.0 590.0,400.0" stroke="none" /><polygon fill="darkcyan" opacity="1.0" points="565.0,433.0 565.0,458.0 590.0,458.0 590.0,433.0" stroke="none" /><polygon fill="darkcyan" opacity="1.0" points="566.03125,467.03125 566.03125,489.96875 588.96875,489.96875 588.96875,467.03125" stroke="none" /><polygon fill="darkcyan" opacity="1.0" points="567.0625,501.0625 567.0625,521.9375 587.9375,521.9375 587.9375,501.0625" stroke="none" /><polygon fill="darkcyan" opacity="1.0" points="568.09375,535.09375 568.09375,553.90625 586.90625,553.90625 586.90625,535.09375" stroke="none" /><polygon fill="darkcyan" opacity="1.0" points="569.125,569.125 569.125,585.875 585.875,585.875 585.875,569.125" stroke="none" /><polygon fill="darkcyan" opacity="1.0" points="570.15625,603.15625 570.15625,617.84375 584.84375,617.84375 584.84375,603.15625" stroke="none" /><polygon fill="darkcyan" opacity="1.0" points="571.1875,637.1875 571.1875,649.8125 583.8125,649.8125 583.8125,637.1875" stroke="none" /><polygon fill="darkcyan" opacity="1.0" points="572.21875,671.21875 572.21875,681.78125 582.78125,681.78125 582.78125,671.21875" stroke="none" /><polygon fill="darkcyan" opacity="1.0" points="573.25,705.25 573.25,713.75 581.75,713.75 581.75,705.25" stroke="none" /><polygon fill="darkcyan" opacity="1.0" points="574.28125,739.28125 574.28125,745.71875 580.71875,745.71875 580.71875,739.28125" stroke="none" /><polygon fill="darkcyan" opacity="1.0" points="575.3125,773.3125 575.3125,777.6875 579.6875,777.6875 579.6875,773.3125" stroke="none" /><polygon fill="darkcyan" opacity="1.0" points="576.34375,807.34375 576.34375,809.65625 578.65625,809.65625 578.65625,807.34375" stroke="none" /><polygon fill="darkcyan" opacity="1.0" points="577.375,841.375 577.375,841.625 577.625,841.625 577.625,841.375" stroke="none" /><polygon fill="darkcyan" opacity="1.0" points="610.375,16.375 610.375,16.625 610.625,16.625 610.625,16.375" stroke="none" /><polygon fill="darkcyan" opacity="1.0" points="609.34375,48.34375 609.34375,50.65625 611.65625,50.65625 611.65625,48.34375" stroke="none" /><polygon fill="darkcyan" opacity="1.0" points="608.3125,80.3125 608.3125,84.6875 612.6875,84.6875 612.6875,80.3125" stroke="none" /><polygon fill="darkcyan" opacity="1.0" points="607.28125,112.28125 607.28125,118.71875 613.71875,118.71875 613.71875,112.28125" stroke="none" /><polygon fill="darkcyan" opacity="1.0" points="606.25,144.25 606.25,152.75 614.75,152.75 614.75,144.25" stroke="none" /><polygon fill="darkcyan" opacity="1.0" points="605.21875,176.21875 605.21875,186.78125 615.78125,186.78125 615.78125,176.21875" stroke="none" /><polygon fill="darkcyan" opacity="1.0" points="604.1875,208.1875 604.1875,220.8125 616.8125,220.8125 616.8125,208.1875" stroke="none" /><polygon fill="darkcyan" opacity="1.0" points="603.15625,240.15625 603.15625,254.84375 617.84375,254.84375 617.84375,240.15625" stroke="none" /><polygon fill="darkcyan" opacity="1.0" points="602.125,272.125 602.125,288.875 618.875,288.875 618.875,272.125" stroke="none" /><polygon fill="darkcyan" opacity="1.0" points="601.09375,304.09375 601.09375,322.90625 619.90625,322.90625 619.90625,304.09375" stroke="none" /><polygon fill="darkcyan" opacity="1.0" points="600.0625,336.0625 600.0625,356.9375 620.9375,356.9375 620.9375,336.0625" stroke="none" /><polygon fill="darkcyan" opacity="1.0" points="599.03125,368.03125 599.03125,390.96875 621.96875,390.96875 621.96875,368.03125" stroke="none" /><polygon fill="darkcyan" opacity="1.0" points="598.0,400.0 598.0,425.0 623.0,425.0 623.0,400.0" stroke="none" /><polygon fill="darkcyan" opacity="1.0" points="598.0,433.0 598.0,458.0 623.0,458.0 623.0,433.0" stroke="none" /><polygon fill="darkcyan" opacity="1.0" points="599.03125,467.03125 599.03125,489.96875 621.96875,489.96875 621.96875,467.03125" stroke="none" /><polygon fill="darkcyan" opacity="1.0" points="600.0625,501.0625 600.0625,521.9375 620.9375,521.9375 620.9375,501.0625" stroke="none" /><polygon fill="darkcyan" opacity="1.0" points="601.09375,535.09375 601.09375,553.90625 619.90625,553.90625 619.90625,535.09375" stroke="none" /><polygon fill="darkcyan" opacity="1.0" points="602.125,569.125 602.125,585.875 618.875,585.875 618.875,569.125" stroke="none" /><polygon fill="darkcyan" opacity="1.0" points="603.15625,603.15625 603.15625,617.84375 617.84375,617.84375 617.84375,603.15625" stroke="none" /><polygon fill="darkcyan" opacity="1.0" points="604.1875,637.1875 604.1875,649.8125 616.8125,649.8125 616.8125,637.1875" stroke="none" /><polygon fill="darkcyan" opacity="1.0" points="605.21875,671.21875 605.21875,681.78125 615.78125,681.78125 615.78125,671.21875" stroke="none" /><polygon fill="darkcyan" opacity="1.0" points="606.25,705.25 606.25,713.75 614.75,713.75 614.75,705.25" stroke="none" /><polygon fill="darkcyan" opacity="1.0" points="607.28125,739.28125 607.28125,745.71875 613.71875,745.71875 613.71875,739.28125" stroke="none" /><polygon fill="darkcyan" opacity="1.0" points="608.3125,773.3125 608.3125,777.6875 612.6875,777.6875 612.6875,773.3125" stroke="none" /><polygon fill="darkcyan" opacity="1.0" points="609.34375,807.34375 609.34375,809.65625 611.65625,809.65625 611.65625,807.34375" stroke="none" /><polygon fill="darkcyan" opacity="1.0" points="610.375,841.375 610.375,841.625 610.625,841.625 610.625,841.375" stroke="none" /><polygon fill="darkcyan" opacity="1.0" points="643.375,16.375 643.375,16.625 643.625,16.625 643.625,16.375" stroke="none" /><polygon fill="darkcyan" opacity="1.0" points="642.34375,48.34375 642.34375,50.65625 644.65625,50.65625 644.65625,48.34375" stroke="none" /><polygon fill="darkcyan" opacity="1.0" points="641.3125,80.3125 641.3125,84.6875 645.6875,84.6875 645.6875,80.3125" stroke="none" /><polygon fill="darkcyan" opacity="1.0" points="640.28125,112.28125 640.28125,118.71875 646.71875,118.71875 646.71875,112.28125" stroke="none" /><polygon fill="darkcyan" opacity="1.0" points="639.25,144.25 639.25,152.75 647.75,152.75 647.75,144.25" stroke="none" /><polygon fill="darkcyan" opacity="1.0" points="638.21875,176.21875 638.21875,186.78125 648.78125,186.78125 648.78125,176.21875" stroke="none" /><polygon fill="darkcyan" opacity="1.0" points="637.1875,208.1875 637.1875,220.8125 649.8125,220.8125 649.8125,208.1875" stroke="none" /><polygon fill="darkcyan" opacity="1.0" points="636.15625,240.15625 636.15625,254.84375 650.84375,254.84375 650.84375,240.15625" stroke="none" /><polygon fill="darkcyan" opacity="1.0" points="635.125,272.125 635.125,288.875 651.875,288.875 651.875,272.125" stroke="none" /><polygon fill="darkcyan" opacity="1.0" points="634.09375,304.09375 634.09375,322.90625 652.90625,322.90625 652.90625,304.09375" stroke="none" /><polygon fill="darkcyan" opacity="1.0" points="633.0625,336.0625 633.0625,356.9375 653.9375,356.9375 653.9375,336.0625" stroke="none" /><polygon fill="darkcyan" opacity="1.0" points="632.03125,368.03125 632.03125,390.96875 654.96875,390.96875 654.96875,368.03125" stroke="none" /><polygon fill="darkcyan" opacity="1.0" points="631.0,400.0 631.0,425.0 656.0,425.0 656.0,400.0" stroke="none" /><polygon fill="darkcyan" opacity="1.0" points="631.0,433.0 631.0,458.0 656.0,458.0 656.0,433.0" stroke="none" /><polygon fill="darkcyan" opacity="1.0" points="632.03125,467.03125 632.03125,489.96875 654.96875,489.96875 654.96875,467.03125" stroke="none" /><polygon fill="darkcyan" opacity="1.0" points="633.0625,501.0625 633.0625,521.9375 653.9375,521.9375 653.9375,501.0625" stroke="none" /><polygon fill="darkcyan" opacity="1.0" points="634.09375,535.09375 634.09375,553.90625 652.90625,553.90625 652.90625,535.09375" stroke="none" /><polygon fill="darkcyan" opacity="1.0" points="635.125,569.125 635.125,585.875 651.875,585.875 651.875,569.125" stroke="none" /><polygon fill="darkcyan" opacity="1.0" points="636.15625,603.15625 636.15625,617.84375 650.84375,617.84375 650.84375,603.15625" stroke="none" /><polygon fill="darkcyan" opacity="1.0" points="637.1875,637.1875 637.1875,649.8125 649.8125,649.8125 649.8125,637.1875" stroke="none" /><polygon fill="darkcyan" opacity="1.0" points="638.21875,671.21875 638.21875,681.78125 648.78125,681.78125 648.78125,671.21875" stroke="none" /><polygon fill="darkcyan" opacity="1.0" points="639.25,705.25 639.25,713.75 647.75,713.75 647.75,705.25" stroke="none" /><polygon fill="darkcyan" opacity="1.0" points="640.28125,739.28125 640.28125,745.71875 646.71875,745.71875 646.71875,739.28125" stroke="none" /><polygon fill="darkcyan" opacity="1.0" points="641.3125,773.3125 641.3125,777.6875 645.6875,777.6875 645.6875,773.3125" stroke="none" /><polygon fill="darkcyan" opacity="1.0" points="642.34375,807.34375 642.34375,809.65625 644.65625,809.65625 644.65625,807.34375" stroke="none" /><polygon fill="darkcyan" opacity="1.0" points="643.375,841.375 643.375,841.625 643.625,841.625 643.625,841.375" stroke="none" /><polygon fill="darkcyan" opacity="1.0" points="676.375,16.375 676.375,16.625 676.625,16.625 676.625,16.375" stroke="none" /><polygon fill="darkcyan" opacity="1.0" points="675.34375,48.34375 675.34375,50.65625 677.65625,50.65625 677.65625,48.34375" stroke="none" /><polygon fill="darkcyan" opacity="1.0" points="674.3125,80.3125 674.3125,84.6875 678.6875,84.6875 678.6875,80.3125" stroke="none" /><polygon fill="darkcyan" opacity="1.0" points="673.28125,112.28125 673.28125,118.71875 679.71875,118.71875 679.71875,112.28125" stroke="none" /><polygon fill="darkcyan" opacity="1.0" points="672.25,144.25 672.25,152.75 680.75,152.75 680.75,144.25" stroke="none" /><polygon fill="darkcyan" opacity="1.0" points="671.21875,176.21875 671.21875,186.78125 681.78125,186.78125 681.78125,176.21875" stroke="none" /><polygon fill="darkcyan" opacity="1.0" points="670.1875,208.1875 670.1875,220.8125 682.8125,220.8125 682.8125,208.1875" stroke="none" /><polygon fill="darkcyan" opacity="1.0" points="669.15625,240.15625 669.15625,254.84375 683.84375,254.84375 683.84375,240.15625" stroke="none" /><polygon fill="darkcyan" opacity="1.0" points="668.125,272.125 668.125,288.875 684.875,288.875 684.875,272.125" stroke="none" /><polygon fill="darkcyan" opacity="1.0" points="667.09375,304.09375 667.09375,322.90625 685.90625,322.90625 685.90625,304.09375" stroke="none" /><polygon fill="darkcyan" opacity="1.0" points="666.0625,336.0625 666.0625,356.9375 686.9375,356.9375 686.9375,336.0625" stroke="none" /><polygon fill="darkcyan" opacity="1.0" points="665.03125,368.03125 665.03125,390.96875 687.96875,390.96875 687.96875,368.03125" stroke="none" /><polygon fill="darkcyan" opacity="1.0" points="664.0,400.0 664.0,425.0 689.0,425.0 689.0,400.0" stroke="none" /><polygon fill="darkcyan" opacity="1.0" points="664.0,433.0 664.0,458.0 689.0,458.0 689.0,433.0" stroke="none" /><polygon fill="darkcyan" opacity="1.0" points="665.03125,467.03125 665.03125,489.96875 687.96875,489.96875 687.96875,467.03125" stroke="none" /><polygon fill="darkcyan" opacity="1.0" points="666.0625,501.0625 666.0625,521.9375 686.9375,521.9375 686.9375,501.0625" stroke="none" /><polygon fill="darkcyan" opacity="1.0" points="667.09375,535.09375 667.09375,553.90625 685.90625,553.90625 685.90625,535.09375" stroke="none" /><polygon fill="darkcyan" opacity="1.0" points="668.125,569.125 668.125,585.875 684.875,585.875 684.875,569.125" stroke="none" /><polygon fill="darkcyan" opacity="1.0" points="669.15625,603.15625 669.15625,617.84375 683.84375,617.84375 683.84375,603.15625" stroke="none" /><polygon fill="darkcyan" opacity="1.0" points="670.1875,637.1875 670.1875,649.8125 682.8125,649.8125 682.8125,637.1875" stroke="none" /><polygon fill="darkcyan" opacity="1.0" points="671.21875,671.21875 671.21875,681.78125 681.78125,681.78125 681.78125,671.21875" stroke="none" /><polygon fill="darkcyan" opacity="1.0" points="672.25,705.25 672.25,713.75 680.75,713.75 680.75,705.25" stroke="none" /><polygon fill="darkcyan" opacity="1.0" points="673.28125,739.28125 673.28125,745.71875 679.71875,745.71875 679.71875,739.28125" stroke="none" /><polygon fill="darkcyan" opacity="1.0" points="674.3125,773.3125 674.3125,777.6875 678.6875,777.6875 678.6875,773.3125" stroke="none" /><polygon fill="darkcyan" opacity="1.0" points="675.34375,807.34375 675.34375,809.65625 677.65625,809.65625 677.65625,807.34375" stroke="none" /><polygon fill="darkcyan" opacity="1.0" points="676.375,841.375 676.375,841.625 676.625,841.625 676.625,841.375" stroke="none" /><polygon fill="darkcyan" opacity="1.0" points="709.375,16.375 709.375,16.625 709.625,16.625 709.625,16.375" stroke="none" /><polygon fill="darkcyan" opacity="1.0" points="708.34375,48.34375 708.34375,50.65625 710.65625,50.65625 710.65625,48.34375" stroke="none" /><polygon fill="darkcyan" opacity="1.0" points="707.3125,80.3125 707.3125,84.6875 711.6875,84.6875 711.6875,80.3125" stroke="none" /><polygon fill="darkcyan" opacity="1.0" points="706.28125,112.28125 706.28125,118.71875 712.71875,118.71875 712.71875,112.28125" stroke="none" /><polygon fill="darkcyan" opacity="1.0" points="705.25,144.25 705.25,152.75 713.75,152.75 713.75,144.25" stroke="none" /><polygon fill="darkcyan" opacity="1.0" points="704.21875,176.21875 704.21875,186.78125 714.78125,186.78125 714.78125,176.21875" stroke="none" /><polygon fill="darkcyan" opacity="1.0" points="703.1875,208.1875 703.1875,220.8125 715.8125,220.8125 715.8125,208.1875" stroke="none" /><polygon fill="darkcyan" opacity="1.0" points="702.15625,240.15625 702.15625,254.84375 716.84375,254.84375 716.84375,240.15625" stroke="none" /><polygon fill="darkcyan" opacity="1.0" points="701.125,272.125 701.125,288.875 717.875,288.875 717.875,272.125" stroke="none" /><polygon fill="darkcyan" opacity="1.0" points="700.09375,304.09375 700.09375,322.90625 718.90625,322.90625 718.90625,304.09375" stroke="none" /><polygon fill="darkcyan" opacity="1.0" points="699.0625,336.0625 699.0625,356.9375 719.9375,356.9375 719.9375,336.0625" stroke="none" /><polygon fill="darkcyan" opacity="1.0" points="698.03125,368.03125 698.03125,390.96875 720.96875,390.96875 720.96875,368.03125" stroke="none" /><polygon fill="darkcyan" opacity="1.0" points="697.0,400.0 697.0,425.0 722.0,425.0 722.0,400.0" stroke="none" /><polygon fill="darkcyan" opacity="1.0" points="697.0,433.0 697.0,458.0 722.0,458.0 722.0,433.0" stroke="none" /><polygon fill="darkcyan" opacity="1.0" points="698.03125,467.03125 698.03125,489.96875 720.96875,489.96875 720.96875,467.03125" stroke="none" /><polygon fill="darkcyan" opacity="1.0" points="699.0625,501.0625 699.0625,521.9375 719.9375,521.9375 719.9375,501.0625" stroke="none" /><polygon fill="darkcyan" opacity="1.0" points="700.09375,535.09375 700.09375,553.90625 718.90625,553.90625 718.90625,535.09375" stroke="none" /><polygon fill="darkcyan" opacity="1.0" points="701.125,569.125 701.125,585.875 717.875,585.875 717.875,569.125" stroke="none" /><polygon fill="darkcyan" opacity="1.0" points="702.15625,603.15625 702.15625,617.84375 716.84375,617.84375 716.84375,603.15625" stroke="none" /><polygon fill="darkcyan" opacity="1.0" points="703.1875,637.1875 703.1875,649.8125 715.8125,649.8125 715.8125,637.1875" stroke="none" /><polygon fill="darkcyan" opacity="1.0" points="704.21875,671.21875 704.21875,681.78125 714.78125,681.78125 714.78125,671.21875" stroke="none" /><polygon fill="darkcyan" opacity="1.0" points="705.25,705.25 705.25,713.75 713.75,713.75 713.75,705.25" stroke="none" /><polygon fill="darkcyan" opacity="1.0" points="706.28125,739.28125 706.28125,745.71875 712.71875,745.71875 712.71875,739.28125" stroke="none" /><polygon fill="darkcyan" opacity="1.0" points="707.3125,773.3125 707.3125,777.6875 711.6875,777.6875 711.6875,773.3125" stroke="none" /><polygon fill="darkcyan" opacity="1.0" points="708.34375,807.34375 708.34375,809.65625 710.65625,809.65625 710.65625,807.34375" stroke="none" /><polygon fill="darkcyan" opacity="1.0" points="709.375,841.375 709.375,841.625 709.625,841.625 709.625,841.375" stroke="none" /><polygon fill="darkcyan" opacity="1.0" points="742.375,16.375 742.375,16.625 742.625,16.625 742.625,16.375" stroke="none" /><polygon fill="darkcyan" opacity="1.0" points="741.34375,48.34375 741.34375,50.65625 743.65625,50.65625 743.65625,48.34375" stroke="none" /><polygon fill="darkcyan" opacity="1.0" points="740.3125,80.3125 740.3125,84.6875 744.6875,84.6875 744.6875,80.3125" stroke="none" /><polygon fill="darkcyan" opacity="1.0" points="739.28125,112.28125 739.28125,118.71875 745.71875,118.71875 745.71875,112.28125" stroke="none" /><polygon fill="darkcyan" opacity="1.0" points="738.25,144.25 738.25,152.75 746.75,152.75 746.75,144.25" stroke="none" /><polygon fill="darkcyan" opacity="1.0" points="737.21875,176.21875 737.21875,186.78125 747.78125,186.78125 747.78125,176.21875" stroke="none" /><polygon fill="darkcyan" opacity="1.0" points="736.1875,208.1875 736.1875,220.8125 748.8125,220.8125 748.8125,208.1875" stroke="none" /><polygon fill="darkcyan" opacity="1.0" points="735.15625,240.15625 735.15625,254.84375 749.84375,254.84375 749.84375,240.15625" stroke="none" /><polygon fill="darkcyan" opacity="1.0" points="734.125,272.125 734.125,288.875 750.875,288.875 750.875,272.125" stroke="none" /><polygon fill="darkcyan" opacity="1.0" points="733.09375,304.09375 733.09375,322.90625 751.90625,322.90625 751.90625,304.09375" stroke="none" /><polygon fill="darkcyan" opacity="1.0" points="732.0625,336.0625 732.0625,356.9375 752.9375,356.9375 752.9375,336.0625" stroke="none" /><polygon fill="darkcyan" opacity="1.0" points="731.03125,368.03125 731.03125,390.96875 753.96875,390.96875 753.96875,368.03125" stroke="none" /><polygon fill="darkcyan" opacity="1.0" points="730.0,400.0 730.0,425.0 755.0,425.0 755.0,400.0" stroke="none" /><polygon fill="darkcyan" opacity="1.0" points="730.0,433.0 730.0,458.0 755.0,458.0 755.0,433.0" stroke="none" /><polygon fill="darkcyan" opacity="1.0" points="731.03125,467.03125 731.03125,489.96875 753.96875,489.96875 753.96875,467.03125" stroke="none" /><polygon fill="darkcyan" opacity="1.0" points="732.0625,501.0625 732.0625,521.9375 752.9375,521.9375 752.9375,501.0625" stroke="none" /><polygon fill="darkcyan" opacity="1.0" points="733.09375,535.09375 733.09375,553.90625 751.90625,553.90625 751.90625,535.09375" stroke="none" /><polygon fill="darkcyan" opacity="1.0" points="734.125,569.125 734.125,585.875 750.875,585.875 750.875,569.125" stroke="none" /><polygon fill="darkcyan" opacity="1.0" points="735.15625,603.15625 735.15625,617.84375 749.84375,617.84375 749.84375,603.15625" stroke="none" /><polygon fill="darkcyan" opacity="1.0" points="736.1875,637.1875 736.1875,649.8125 748.8125,649.8125 748.8125,637.1875" stroke="none" /><polygon fill="darkcyan" opacity="1.0" points="737.21875,671.21875 737.21875,681.78125 747.78125,681.78125 747.78125,671.21875" stroke="none" /><polygon fill="darkcyan" opacity="1.0" points="738.25,705.25 738.25,713.75 746.75,713.75 746.75,705.25" stroke="none" /><polygon fill="darkcyan" opacity="1.0" points="739.28125,739.28125 739.28125,745.71875 745.71875,745.71875 745.71875,739.28125" stroke="none" /><polygon fill="darkcyan" opacity="1.0" points="740.3125,773.3125 740.3125,777.6875 744.6875,777.6875 744.6875,773.3125" stroke="none" /><polygon fill="darkcyan" opacity="1.0" points="741.34375,807.34375 741.34375,809.65625 743.65625,809.65625 743.65625,807.34375" stroke="none" /><polygon fill="darkcyan" opacity="1.0" points="742.375,841.375 742.375,841.625 742.625,841.625 742.625,841.375" stroke="none" /><polygon fill="darkcyan" opacity="1.0" points="775.375,16.375 775.375,16.625 775.625,16.625 775.625,16.375" stroke="none" /><polygon fill="darkcyan" opacity="1.0" points="774.34375,48.34375 774.34375,50.65625 776.65625,50.65625 776.65625,48.34375" stroke="none" /><polygon fill="darkcyan" opacity="1.0" points="773.3125,80.3125 773.3125,84.6875 777.6875,84.6875 777.6875,80.3125" stroke="none" /><polygon fill="darkcyan" opacity="1.0" points="772.28125,112.28125 772.28125,118.71875 778.71875,118.71875 778.71875,112.28125" stroke="none" /><polygon fill="darkcyan" opacity="1.0" points="771.25,144.25 771.25,152.75 779.75,152.75 779.75,144.25" stroke="none" /><polygon fill="darkcyan" opacity="1.0" points="770.21875,176.21875 770.21875,186.78125 780.78125,186.78125 780.78125,176.21875" stroke="none" /><polygon fill="darkcyan" opacity="1.0" points="769.1875,208.1875 769.1875,220.8125 781.8125,220.8125 781.8125,208.1875" stroke="none" /><polygon fill="darkcyan" opacity="1.0" points="768.15625,240.15625 768.15625,254.84375 782.84375,254.84375 782.84375,240.15625" stroke="none" /><polygon fill="darkcyan" opacity="1.0" points="767.125,272.125 767.125,288.875 783.875,288.875 783.875,272.125" stroke="none" /><polygon fill="darkcyan" opacity="1.0" points="766.09375,304.09375 766.09375,322.90625 784.90625,322.90625 784.90625,304.09375" stroke="none" /><polygon fill="darkcyan" opacity="1.0" points="765.0625,336.0625 765.0625,356.9375 785.9375,356.9375 785.9375,336.0625" stroke="none" /><polygon fill="darkcyan" opacity="1.0" points="764.03125,368.03125 764.03125,390.96875 786.96875,390.96875 786.96875,368.03125" stroke="none" /><polygon fill="darkcyan" opacity="1.0" points="763.0,400.0 763.0,425.0 788.0,425.0 788.0,400.0" stroke="none" /><polygon fill="darkcyan" opacity="1.0" points="763.0,433.0 763.0,458.0 788.0,458.0 788.0,433.0" stroke="none" /><polygon fill="darkcyan" opacity="1.0" points="764.03125,467.03125 764.03125,489.96875 786.96875,489.96875 786.96875,467.03125" stroke="none" /><polygon fill="darkcyan" opacity="1.0" points="765.0625,501.0625 765.0625,521.9375 785.9375,521.9375 785.9375,501.0625" stroke="none" /><polygon fill="darkcyan" opacity="1.0" points="766.09375,535.09375 766.09375,553.90625 784.90625,553.90625 784.90625,535.09375" stroke="none" /><polygon fill="darkcyan" opacity="1.0" points="767.125,569.125 767.125,585.875 783.875,585.875 783.875,569.125" stroke="none" /><polygon fill="darkcyan" opacity="1.0" points="768.15625,603.15625 768.15625,617.84375 782.84375,617.84375 782.84375,603.15625" stroke="none" /><polygon fill="darkcyan" opacity="1.0" points="769.1875,637.1875 769.1875,649.8125 781.8125,649.8125 781.8125,637.1875" stroke="none" /><polygon fill="darkcyan" opacity="1.0" points="770.21875,671.21875 770.21875,681.78125 780.78125,681.78125 780.78125,671.21875" stroke="none" /><polygon fill="darkcyan" opacity="1.0" points="771.25,705.25 771.25,713.75 779.75,713.75 779.75,705.25" stroke="none" /><polygon fill="darkcyan" opacity="1.0" points="772.28125,739.28125 772.28125,745.71875 778.71875,745.71875 778.71875,739.28125" stroke="none" /><polygon fill="darkcyan" opacity="1.0" points="773.3125,773.3125 773.3125,777.6875 777.6875,777.6875 777.6875,773.3125" stroke="none" /><polygon fill="darkcyan" opacity="1.0" points="774.34375,807.34375 774.34375,809.65625 776.65625,809.65625 776.65625,807.34375" stroke="none" /><polygon fill="darkcyan" opacity="1.0" points="775.375,841.375 775.375,841.625 775.625,841.625 775.625,841.375" stroke="none" /><polygon fill="darkcyan" opacity="1.0" points="808.375,16.375 808.375,16.625 808.625,16.625 808.625,16.375" stroke="none" /><polygon fill="darkcyan" opacity="1.0" points="807.34375,48.34375 807.34375,50.65625 809.65625,50.65625 809.65625,48.34375" stroke="none" /><polygon fill="darkcyan" opacity="1.0" points="806.3125,80.3125 806.3125,84.6875 810.6875,84.6875 810.6875,80.3125" stroke="none" /><polygon fill="darkcyan" opacity="1.0" points="805.28125,112.28125 805.28125,118.71875 811.71875,118.71875 811.71875,112.28125" stroke="none" /><polygon fill="darkcyan" opacity="1.0" points="804.25,144.25 804.25,152.75 812.75,152.75 812.75,144.25" stroke="none" /><polygon fill="darkcyan" opacity="1.0" points="803.21875,176.21875 803.21875,186.78125 813.78125,186.78125 813.78125,176.21875" stroke="none" /><polygon fill="darkcyan" opacity="1.0" points="802.1875,208.1875 802.1875,220.8125 814.8125,220.8125 814.8125,208.1875" stroke="none" /><polygon fill="darkcyan" opacity="1.0" points="801.15625,240.15625 801.15625,254.84375 815.84375,254.84375 815.84375,240.15625" stroke="none" /><polygon fill="darkcyan" opacity="1.0" points="800.125,272.125 800.125,288.875 816.875,288.875 816.875,272.125" stroke="none" /><polygon fill="darkcyan" opacity="1.0" points="799.09375,304.09375 799.09375,322.90625 817.90625,322.90625 817.90625,304.09375" stroke="none" /><polygon fill="darkcyan" opacity="1.0" points="798.0625,336.0625 798.0625,356.9375 818.9375,356.9375 818.9375,336.0625" stroke="none" /><polygon fill="darkcyan" opacity="1.0" points="797.03125,368.03125 797.03125,390.96875 819.96875,390.96875 819.96875,368.03125" stroke="none" /><polygon fill="darkcyan" opacity="1.0" points="796.0,400.0 796.0,425.0 821.0,425.0 821.0,400.0" stroke="none" /><polygon fill="darkcyan" opacity="1.0" points="796.0,433.0 796.0,458.0 821.0,458.0 821.0,433.0" stroke="none" /><polygon fill="darkcyan" opacity="1.0" points="797.03125,467.03125 797.03125,489.96875 819.96875,489.96875 819.96875,467.03125" stroke="none" /><polygon fill="darkcyan" opacity="1.0" points="798.0625,501.0625 798.0625,521.9375 818.9375,521.9375 818.9375,501.0625" stroke="none" /><polygon fill="darkcyan" opacity="1.0" points="799.09375,535.09375 799.09375,553.90625 817.90625,553.90625 817.90625,535.09375" stroke="none" /><polygon fill="darkcyan" opacity="1.0" points="800.125,569.125 800.125,585.875 816.875,585.875 816.875,569.125" stroke="none" /><polygon fill="darkcyan" opacity="1.0" points="801.15625,603.15625 801.15625,617.84375 815.84375,617.84375 815.84375,603.15625" stroke="none" /><polygon fill="darkcyan" opacity="1.0" points="802.1875,637.1875 802.1875,649.8125 814.8125,649.8125 814.8125,637.1875" stroke="none" /><polygon fill="darkcyan" opacity="1.0" points="803.21875,671.21875 803.21875,681.78125 813.78125,681.78125 813.78125,671.21875" stroke="none" /><polygon fill="darkcyan" opacity="1.0" points="804.25,705.25 804.25,713.75 812.75,713.75 812.75,705.25" stroke="none" /><polygon fill="darkcyan" opacity="1.0" points="805.28125,739.28125 805.28125,745.71875 811.71875,745.71875 811.71875,739.28125" stroke="none" /><polygon fill="darkcyan" opacity="1.0" points="806.3125,773.3125 806.3125,777.6875 810.6875,777.6875 810.6875,773.3125" stroke="none" /><polygon fill="darkcyan" opacity="1.0" points="807.34375,807.34375 807.34375,809.65625 809.65625,809.65625 809.65625,807.34375" stroke="none" /><polygon fill="darkcyan" opacity="1.0" points="808.375,841.375 808.375,841.625 808.625,841.625 808.625,841.375" stroke="none" /><polygon fill="darkcyan" opacity="1.0" points="841.375,16.375 841.375,16.625 841.625,16.625 841.625,16.375" stroke="none" /><polygon fill="darkcyan" opacity="1.0" points="840.34375,48.34375 840.34375,50.65625 842.65625,50.65625 842.65625,48.34375" stroke="none" /><polygon fill="darkcyan" opacity="1.0" points="839.3125,80.3125 839.3125,84.6875 843.6875,84.6875 843.6875,80.3125" stroke="none" /><polygon fill="darkcyan" opacity="1.0" points="838.28125,112.28125 838.28125,118.71875 844.71875,118.71875 844.71875,112.28125" stroke="none" /><polygon fill="darkcyan" opacity="1.0" points="837.25,144.25 837.25,152.75 845.75,152.75 845.75,144.25" stroke="none" /><polygon fill="darkcyan" opacity="1.0" points="836.21875,176.21875 836.21875,186.78125 846.78125,186.78125 846.78125,176.21875" stroke="none" /><polygon fill="darkcyan" opacity="1.0" points="835.1875,208.1875 835.1875,220.8125 847.8125,220.8125 847.8125,208.1875" stroke="none" /><polygon fill="darkcyan" opacity="1.0" points="834.15625,240.15625 834.15625,254.84375 848.84375,254.84375 848.84375,240.15625" stroke="none" /><polygon fill="darkcyan" opacity="1.0" points="833.125,272.125 833.125,288.875 849.875,288.875 849.875,272.125" stroke="none" /><polygon fill="darkcyan" opacity="1.0" points="832.09375,304.09375 832.09375,322.90625 850.90625,322.90625 850.90625,304.09375" stroke="none" /><polygon fill="darkcyan" opacity="1.0" points="831.0625,336.0625 831.0625,356.9375 851.9375,356.9375 851.9375,336.0625" stroke="none" /><polygon fill="darkcyan" opacity="1.0" points="830.03125,368.03125 830.03125,390.96875 852.96875,390.96875 852.96875,368.03125" stroke="none" /><polygon fill="darkcyan" opacity="1.0" points="829.0,400.0 829.0,425.0 854.0,425.0 854.0,400.0" stroke="none" /><polygon fill="darkcyan" opacity="1.0" points="829.0,433.0 829.0,458.0 854.0,458.0 854.0,433.0" stroke="none" /><polygon fill="darkcyan" opacity="1.0" points="830.03125,467.03125 830.03125,489.96875 852.96875,489.96875 852.96875,467.03125" stroke="none" /><polygon fill="darkcyan" opacity="1.0" points="831.0625,501.0625 831.0625,521.9375 851.9375,521.9375 851.9375,501.0625" stroke="none" /><polygon fill="darkcyan" opacity="1.0" points="832.09375,535.09375 832.09375,553.90625 850.90625,553.90625 850.90625,535.09375" stroke="none" /><polygon fill="darkcyan" opacity="1.0" points="833.125,569.125 833.125,585.875 849.875,585.875 849.875,569.125" stroke="none" /><polygon fill="darkcyan" opacity="1.0" points="834.15625,603.15625 834.15625,617.84375 848.84375,617.84375 848.84375,603.15625" stroke="none" /><polygon fill="darkcyan" opacity="1.0" points="835.1875,637.1875 835.1875,649.8125 847.8125,649.8125 847.8125,637.1875" stroke="none" /><polygon fill="darkcyan" opacity="1.0" points="836.21875,671.21875 836.21875,681.78125 846.78125,681.78125 846.78125,671.21875" stroke="none" /><polygon fill="darkcyan" opacity="1.0" points="837.25,705.25 837.25,713.75 845.75,713.75 845.75,705.25" stroke="none" /><polygon fill="darkcyan" opacity="1.0" points="838.28125,739.28125 838.28125,745.71875 844.71875,745.71875 844.71875,739.28125" stroke="none" /><polygon fill="darkcyan" opacity="1.0" points="839.3125,773.3125 839.3125,777.6875 843.6875,777.6875 843.6875,773.3125" stroke="none" /><polygon fill="darkcyan" opacity="1.0" points="840.34375,807.34375 840.34375,809.65625 842.65625,809.65625 842.65625,807.34375" stroke="none" /><polygon fill="darkcyan" opacity="1.0" points="841.375,841.375 841.375,841.625 841.625,841.625 841.625,841.375" stroke="none" /></svg>