<?xml version="1.0" encoding="utf-8" ?>
<svg baseProfile="full" height="800" version="1.1" width="800" xmlns="http://www.w3.org/2000/svg" xmlns:ev="http://www.w3.org/2001/xml-events" xmlns:xlink="http://www.w3.org/1999/xlink"><defs /><rect fill="darkcyan" height="20" opacity="1.0" stroke="none" width="20" x="20.0" y="20.0" /><rect fill="darkcyan" height="20" opacity="1.0" stroke="none" width="20" x="20.0" y="60.0" /><rect fill="darkcyan" height="20" opacity="1.0" stroke="none" width="20" x="20.0" y="100.0" /><rect fill="darkcyan" height="20" opacity="1.0" stroke="none" width="20" x="20.0" y="140.0" /><rect fill="darkcyan" height="20" opacity="1.0" stroke="none" width="20" x="20.0" y="180.0" /><rect fill="darkcyan" height="20" opacity="1.0" stroke="none" width="20" x="20.0" y="220.0" /><rect fill="darkcyan" height="20" opacity="1.0" stroke="none" width="20" x="20.0" y="260.0" /><rect fill="darkcyan" height="20" opacity="1.0" stroke="none" width="20" x="20.0" y="300.0" /><rect fill="darkcyan" height="20" opacity="1.0" stroke="none" width="20" x="20.0" y="340.0" /><rect fill="darkcyan" height="20" opacity="1.0" stroke="none" width="20" x="20.0" y="380.0" /><rect fill="darkcyan" height="20" opacity="1.0" stroke="none" width="20" x="20.0" y="420.0" /><rect fill="darkcyan" height="20" opacity="1.0" stroke="none" width="20" x="20.0" y="460.0" /><rect fill="darkcyan" height="20" opacity="1.0" stroke="none" width="20" x="20.0" y="500.0" /><rect fill="darkcyan" height="20" opacity="1.0" stroke="none" width="20" x="20.0" y="540.0" /><rect fill="darkcyan" height="20" opacity="1.0" stroke="none" width="20" x="20.0" y="580.0" /><rect fill="darkcyan" height="20" opacity="1.0" stroke="none" width="20" x="20.0" y="620.0" /><rect fill="darkcyan" height="20" opacity="1.0" stroke="none" width="20" x="20.0" y="660.0" /><rect fill="darkcyan" height="20" opacity="1.0" stroke="none" width="20" x="20.0" y="700.0" /><rect fill="darkcyan" height="20" opacity="1.0" stroke="none" width="20" x="20.0" y="740.0" /><rect fill="darkcyan" height="20" opacity="1.0" stroke="none" width="20" x="20.0" y="780.0" /><rect fill="darkcyan" height="20" opacity="1.0" stroke="none" width="20" x="20.0" y="820.0" /><rect fill="darkcyan" height="20" opacity="1.0" stroke="none" width="20" x="60.0" y="20.0" /><rect fill="darkcyan" height="20" opacity="1.0" stroke="none" width="20" x="60.0" y="60.0" /><rect fill="darkcyan" height="20" opacity="1.0" stroke="none" width="20" x="60.0" y="100.0" /><rect fill="darkcyan" height="20" opacity="1.0" stroke="none" width="20" x="60.0" y="140.0" /><rect fill="darkcyan" height="20" opacity="1.0" stroke="none" width="20" x="60.0" y="180.0" /><rect fill="darkcyan" height="20" opacity="1.0" stroke="none" width="20" x="60.0" y="220.0" /><rect fill="darkcyan" height="20" opacity="1.0" stroke="none" width="20" x="60.0" y="260.0" /><rect fill="darkcyan" height="20" opacity="1.0" stroke="none" width="20" x="60.0" y="300.0" /><rect fill="darkcyan" height="20" opacity="1.0" stroke="none" width="20" x="60.0" y="340.0" /><rect fill="darkcyan" height="20" opacity="1.0" stroke="none" width="20" x="60.0" y="380.0" /><rect fill="darkcyan" height="20" opacity="1.0" stroke="none" width="20" x="60.0" y="420.0" /><rect fill="darkcyan" height="20" opacity="1.0" stroke="none" width="20" x="60.0" y="460.0" /><rect fill="darkcyan" height="20" opacity="1.0" stroke="none" width="20" x="60.0" y="500.0" /><rect fill="darkcyan" height="20" opacity="1.0" stroke="none" width="20" x="60.0" y="540.0" /><rect fill="darkcyan" height="20" opacity="1.0" stroke="none" width="20" x="60.0" y="580.0" /><rect fill="darkcyan" height="20" opacity="1.0" stroke="none" width="20" x="60.0" y="620.0" /><rect fill="darkcyan" height="20" opacity="1.0" stroke="none" width="20" x="60.0" y="660.0" /><rect fill="darkcyan" height="20" opacity="1.0" stroke="none" width="20" x="60.0" y="700.0" /><rect fill="darkcyan" height="20" opacity="1.0" stroke="none" width="20" x="60.0" y="740.0" /><rect fill="darkcyan" height="20" opacity="1.0" stroke="none" width="20" x="60.0" y="780.0" /><rect fill="darkcyan" height="20" opacity="1.0" stroke="none" width="20" x="60.0" y="820.0" /><rect fill="darkcyan" height="20" opacity="1.0" stroke="none" width="20" x="100.0" y="20.0" /><rect fill="darkcyan" height="20" opacity="1.0" stroke="none" width="20" x="100.0" y="60.0" /><rect fill="darkcyan" height="20" opacity="1.0" stroke="none" width="20" x="100.0" y="100.0" /><rect fill="darkcyan" height="20" opacity="1.0" stroke="none" width="20" x="100.0" y="140.0" /><rect fill="darkcyan" height="20" opacity="1.0" stroke="none" width="20" x="100.0" y="180.0" /><rect fill="darkcyan" height="20" opacity="1.0" stroke="none" width="20" x="100.0" y="220.0" /><rect fill="darkcyan" height="20" opacity="1.0" stroke="none" width="20" x="100.0" y="260.0" /><rect fill="darkcyan" height="20" opacity="1.0" stroke="none" width="20" x="100.0" y="300.0" /><rect fill="darkcyan" height="20" opacity="1.0" stroke="none" width="20" x="100.0" y="340.0" /><rect fill="darkcyan" height="20" opacity="1.0" stroke="none" width="20" x="100.0" y="380.0" /><rect fill="darkcyan" height="20" opacity="1.0" stroke="none" width="20" x="100.0" y="420.0" /><rect fill="darkcyan" height="20" opacity="1.0" stroke="none" width="20" x="100.0" y="460.0" /><rect fill="darkcyan" height="20" opacity="1.0" stroke="none" width="20" x="100.0" y="500.0" /><rect fill="darkcyan" height="20" opacity="1.0" stroke="none" width="20" x="100.0" y="540.0" /><rect fill="darkcyan" height="20" opacity="1.0" stroke="none" width="20" x="100.0" y="580.0" /><rect fill="darkcyan" height="20" opacity="1.0" stroke="none" width="20" x="100.0" y="620.0" /><rect fill="darkcyan" height="20" opacity="1.0" stroke="none" width="20" x="100.0" y="660.0" /><rect fill="darkcyan" height="20" opacity="1.0" stroke="none" width="20" x="100.0" y="700.0" /><rect fill="darkcyan" height="20" opacity="1.0" stroke="none" width="20" x="100.0" y="740.0" /><rect fill="darkcyan" height="20" opacity="1.0" stroke="none" width="20" x="100.0" y="780.0" /><rect fill="darkcyan" height="20" opacity="1.0" stroke="none" width="20" x="100.0" y="820.0" /><rect fill="darkcyan" height="20" opacity="1.0" stroke="none" width="20" x="140.0" y="20.0" /><rect fill="darkcyan" height="20" opacity="1.0" stroke="none" width="20" x="140.0" y="60.0" /><rect fill="darkcyan" height="20" opacity="1.0" stroke="none" width="20" x="140.0" y="100.0" /><rect fill="darkcyan" height="20" opacity="1.0" stroke="none" width="20" x="140.0" y="140.0" /><rect fill="darkcyan" height="20" opacity="1.0" stroke="none" width="20" x="140.0" y="180.0" /><rect fill="darkcyan" height="20" opacity="1.0" stroke="none" width="20" x="140.0" y="220.0" /><rect fill="darkcyan" height="20" opacity="1.0" stroke="none" width="20" x="140.0" y="260.0" /><rect fill="darkcyan" height="20" opacity="1.0" stroke="none" width="20" x="140.0" y="300.0" /><rect fill="darkcyan" height="20" opacity="1.0" stroke="none" width="20" x="140.0" y="340.0" /><rect fill="darkcyan" height="20" opacity="1.0" stroke="none" width="20" x="140.0" y="380.0" /><rect fill="darkcyan" height="20" opacity="1.0" stroke="none" width="20" x="140.0" y="420.0" /><rect fill="darkcyan" height="20" opacity="1.0" stroke="none" width="20" x="140.0" y="460.0" /><rect fill="darkcyan" height="20" opacity="1.0" stroke="none" width="20" x="140.0" y="500.0" /><rect fill="darkcyan" height="20" opacity="1.0" stroke="none" width="20" x="140.0" y="540.0" /><rect fill="darkcyan" height="20" opacity="1.0" stroke="none" width="20" x="140.0" y="580.0" /><rect fill="darkcyan" height="20" opacity="1.0" stroke="none" width="20" x="140.0" y="620.0" /><rect fill="darkcyan" height="20" opacity="1.0" stroke="none" width="20" x="140.0" y="660.0" /><rect fill="darkcyan" height="20" opacity="1.0" stroke="none" width="20" x="140.0" y="700.0" /><rect fill="darkcyan" height="20" opacity="1.0" stroke="none" width="20" x="140.0" y="740.0" /><rect fill="darkcyan" height="20" opacity="1.0" stroke="none" width="20" x="140.0" y="780.0" /><rect fill="darkcyan" height="20" opacity="1.0" stroke="none" width="20" x="140.0" y="820.0" /><rect fill="darkcyan" height="20" opacity="1.0" stroke="none" width="20" x="180.0" y="20.0" /><rect fill="darkcyan" height="20" opacity="1.0" stroke="none" width="20" x="180.0" y="60.0" /><rect fill="darkcyan" height="20" opacity="1.0" stroke="none" width="20" x="180.0" y="100.0" /><rect fill="darkcyan" height="20" opacity="1.0" stroke="none" width="20" x="180.0" y="140.0" /><rect fill="darkcyan" height="20" opacity="1.0" stroke="none" width="20" x="180.0" y="180.0" /><rect fill="darkcyan" height="20" opacity="1.0" stroke="none" width="20" x="180.0" y="220.0" /><rect fill="darkcyan" height="20" opacity="1.0" stroke="none" width="20" x="180.0" y="260.0" /><rect fill="darkcyan" height="20" opacity="1.0" stroke="none" width="20" x="180.0" y="300.0" /><rect fill="darkcyan" height="20" opacity="1.0" stroke="none" width="20" x="180.0" y="340.0" /><rect fill="darkcyan" height="20" opacity="1.0" stroke="none" width="20" x="180.0" y="380.0" /><rect fill="darkcyan" height="20" opacity="1.0" stroke="none" width="20" x="180.0" y="420.0" /><rect fill="darkcyan" height="20" opacity="1.0" stroke="none" width="20" x="180.0" y="460.0" /><rect fill="darkcyan" height="20" opacity="1.0" stroke="none" width="20" x="180.0" y="500.0" /><rect fill="darkcyan" height="20" opacity="1.0" stroke="none" width="20" x="180.0" y="540.0" /><rect fill="darkcyan" height="20" opacity="1.0" stroke="none" width="20" x="180.0" y="580.0" /><rect fill="darkcyan" height="20" opacity="1.0" stroke="none" width="20" x="180.0" y="620.0" /><rect fill="darkcyan" height="20" opacity="1.0" stroke="none" width="20" x="180.0" y="660.0" /><rect fill="darkcyan" height="20" opacity="1.0" stroke="none" width="20" x="180.0" y="700.0" /><rect fill="darkcyan" height="20" opacity="1.0" stroke="none" width="20" x="180.0" y="740.0" /><rect fill="darkcyan" height="20" opacity="1.0" stroke="none" width="20" x="180.0" y="780.0" /><rect fill="darkcyan" height="20" opacity="1.0" stroke="none" width="20" x="180.0" y="820.0" /><rect fill="darkcyan" height="20" opacity="1.0" stroke="none" width="20" x="220.0" y="20.0" /><rect fill="darkcyan" height="20" opacity="1.0" stroke="none" width="20" x="220.0" y="60.0" /><rect fill="darkcyan" height="20" opacity="1.0" stroke="none" width="20" x="220.0" y="100.0" /><rect fill="darkcyan" height="20" opacity="1.0" stroke="none" width="20" x="220.0" y="140.0" /><rect fill="darkcyan" height="20" opacity="1.0" stroke="none" width="20" x="220.0" y="180.0" /><rect fill="darkcyan" height="20" opacity="1.0" stroke="none" width="20" x="220.0" y="220.0" /><rect fill="darkcyan" height="20" opacity="1.0" stroke="none" width="20" x="220.0" y="260.0" /><rect fill="darkcyan" height="20" opacity="1.0" stroke="none" width="20" x="220.0" y="300.0" /><rect fill="darkcyan" height="20" opacity="1.0" stroke="none" width="20" x="220.0" y="340.0" /><rect fill="darkcyan" height="20" opacity="1.0" stroke="none" width="20" x="220.0" y="380.0" /><rect fill="darkcyan" height="20" opacity="1.0" stroke="none" width="20" x="220.0" y="420.0" /><rect fill="darkcyan" height="20" opacity="1.0" stroke="none" width="20" x="220.0" y="460.0" /><rect fill="darkcyan" height="20" opacity="1.0" stroke="none" width="20" x="220.0" y="500.0" /><rect fill="darkcyan" height="20" opacity="1.0" stroke="none" width="20" x="220.0" y="540.0" /><rect fill="darkcyan" height="20" opacity="1.0" stroke="none" width="20" x="220.0" y="580.0" /><rect fill="darkcyan" height="20" opacity="1.0" stroke="none" width="20" x="220.0" y="620.0" /><rect fill="darkcyan" height="20" opacity="1.0" stroke="none" width="20" x="220.0" y="660.0" /><rect fill="darkcyan" height="20" opacity="1.0" stroke="none" width="20" x="220.0" y="700.0" /><rect fill="darkcyan" height="20" opacity="1.0" stroke="none" width="20" x="220.0" y="740.0" /><rect fill="darkcyan" height="20" opacity="1.0" stroke="none" width="20" x="220.0" y="780.0" /><rect fill="darkcyan" height="20" opacity="1.0" stroke="none" width="20" x="220.0" y="820.0" /><rect fill="darkcyan" height="20" opacity="1.0" stroke="none" width="20" x="260.0" y="20.0" /><rect fill="darkcyan" height="20" opacity="1.0" stroke="none" width="20" x="260.0" y="60.0" /><rect fill="darkcyan" height="20" opacity="1.0" stroke="none" width="20" x="260.0" y="100.0" /><rect fill="darkcyan" height="20" opacity="1.0" stroke="none" width="20" x="260.0" y="140.0" /><rect fill="darkcyan" height="20" opacity="1.0" stroke="none" width="20" x="260.0" y="180.0" /><rect fill="darkcyan" height="20" opacity="1.0" stroke="none" width="20" x="260.0" y="220.0" /><rect fill="darkcyan" height="20" opacity="1.0" stroke="none" width="20" x="260.0" y="260.0" /><rect fill="darkcyan" height="20" opacity="1.0" stroke="none" width="20" x="260.0" y="300.0" /><rect fill="darkcyan" height="20" opacity="1.0" stroke="none" width="20" x="260.0" y="340.0" /><rect fill="darkcyan" height="20" opacity="1.0" stroke="none" width="20" x="260.0" y="380.0" /><rect fill="darkcyan" height="20" opacity="1.0" stroke="none" width="20" x="260.0" y="420.0" /><rect fill="darkcyan" height="20" opacity="1.0" stroke="none" width="20" x="260.0" y="460.0" /><rect fill="darkcyan" height="20" opacity="1.0" stroke="none" width="20" x="260.0" y="500.0" /><rect fill="darkcyan" height="20" opacity="1.0" stroke="none" width="20" x="260.0" y="540.0" /><rect fill="darkcyan" height="20" opacity="1.0" stroke="none" width="20" x="260.0" y="580.0" /><rect fill="darkcyan" height="20" opacity="1.0" stroke="none" width="20" x="260.0" y="620.0" /><rect fill="darkcyan" height="20" opacity="1.0" stroke="none" width="20" x="260.0" y="660.0" /><rect fill="darkcyan" height="20" opacity="1.0" stroke="none" width="20" x="260.0" y="700.0" /><rect fill="darkcyan" height="20" opacity="1.0" stroke="none" width="20" x="260.0" y="740.0" /><rect fill="darkcyan" height="20" opacity="1.0" stroke="none" width="20" x="260.0" y="780.0" /><rect fill="darkcyan" height="20" opacity="1.0" stroke="none" width="20" x="260.0" y="820.0" /><rect fill="darkcyan" height="20" opacity="1.0" stroke="none" width="20" x="300.0" y="20.0" /><rect fill="darkcyan" height="20" opacity="1.0" stroke="none" width="20" x="300.0" y="60.0" /><rect fill="darkcyan" height="20" opacity="1.0" stroke="none" width="20" x="300.0" y="100.0" /><rect fill="darkcyan" height="20" opacity="1.0" stroke="none" width="20" x="300.0" y="140.0" /><rect fill="darkcyan" height="20" opacity="1.0" stroke="none" width="20" x="300.0" y="180.0" /><rect fill="darkcyan" height="20" opacity="1.0" stroke="none" width="20" x="300.0" y="220.0" /><rect fill="darkcyan" height="20" opacity="1.0" stroke="none" width="20" x="300.0" y="260.0" /><rect fill="darkcyan" height="20" opacity="1.0" stroke="none" width="20" x="300.0" y="300.0" /><rect fill="darkcyan" height="20" opacity="1.0" stroke="none" width="20" x="300.0" y="340.0" /><rect fill="darkcyan" height="20" opacity="1.0" stroke="none" width="20" x="300.0" y="380.0" /><rect fill="darkcyan" height="20" opacity="1.0" stroke="none" width="20" x="300.0" y="420.0" /><rect fill="darkcyan" height="20" opacity="1.0" stroke="none" width="20" x="300.0" y="460.0" /><rect fill="darkcyan" height="20" opacity="1.0" stroke="none" width="20" x="300.0" y="500.0" /><rect fill="darkcyan" height="20" opacity="1.0" stroke="none" width="20" x="300.0" y="540.0" /><rect fill="darkcyan" height="20" opacity="1.0" stroke="none" width="20" x="300.0" y="580.0" /><rect fill="darkcyan" height="20" opacity="1.0" stroke="none" width="20" x="300.0" y="620.0" /><rect fill="darkcyan" height="20" opacity="1.0" stroke="none" width="20" x="300.0" y="660.0" /><rect fill="darkcyan" height="20" opacity="1.0" stroke="none" width="20" x="300.0" y="700.0" /><rect fill="darkcyan" height="20" opacity="1.0" stroke="none" width="20" x="300.0" y="740.0" /><rect fill="darkcyan" height="20" opacity="1.0" stroke="none" width="20" x="300.0" y="780.0" /><rect fill="darkcyan" height="20" opacity="1.0" stroke="none" width="20" x="300.0" y="820.0" /><rect fill="darkcyan" height="20" opacity="1.0" stroke="none" width="20" x="340.0" y="20.0" /><rect fill="darkcyan" height="20" opacity="1.0" stroke="none" width="20" x="340.0" y="60.0" /><rect fill="darkcyan" height="20" opacity="1.0" stroke="none" width="20" x="340.0" y="100.0" /><rect fill="darkcyan" height="20" opacity="1.0" stroke="none" width="20" x="340.0" y="140.0" /><rect fill="darkcyan" height="20" opacity="1.0" stroke="none" width="20" x="340.0" y="180.0" /><rect fill="darkcyan" height="20" opacity="1.0" stroke="none" width="20" x="340.0" y="220.0" /><rect fill="darkcyan" height="20" opacity="1.0" stroke="none" width="20" x="340.0" y="260.0" /><rect fill="darkcyan" height="20" opacity="1.0" stroke="none" width="20" x="340.0" y="300.0" /><rect fill="darkcyan" height="20" opacity="1.0" stroke="none" width="20" x="340.0" y="340.0" /><rect fill="darkcyan" height="20" opacity="1.0" stroke="none" width="20" x="340.0" y="380.0" /><rect fill="darkcyan" height="20" opacity="1.0" stroke="none" width="20" x="340.0" y="420.0" /><rect fill="darkcyan" height="20" opacity="1.0" stroke="none" width="20" x="340.0" y="460.0" /><rect fill="darkcyan" height="20" opacity="1.0" stroke="none" width="20" x="340.0" y="500.0" /><rect fill="darkcyan" height="20" opacity="1.0" stroke="none" width="20" x="340.0" y="540.0" /><rect fill="darkcyan" height="20" opacity="1.0" stroke="none" width="20" x="340.0" y="580.0" /><rect fill="darkcyan" height="20" opacity="1.0" stroke="none" width="20" x="340.0" y="620.0" /><rect fill="darkcyan" height="20" opacity="1.0" stroke="none" width="20" x="340.0" y="660.0" /><rect fill="darkcyan" height="20" opacity="1.0" stroke="none" width="20" x="340.0" y="700.0" /><rect fill="darkcyan" height="20" opacity="1.0" stroke="none" width="20" x="340.0" y="740.0" /><rect fill="darkcyan" height="20" opacity="1.0" stroke="none" width="20" x="340.0" y="780.0" /><rect fill="darkcyan" height="20" opacity="1.0" stroke="none" width="20" x="340.0" y="820.0" /><rect fill="darkcyan" height="20" opacity="1.0" stroke="none" width="20" x="380.0" y="20.0" /><rect fill="darkcyan" height="20" opacity="1.0" stroke="none" width="20" x="380.0" y="60.0" /><rect fill="darkcyan" height="20" opacity="1.0" stroke="none" width="20" x="380.0" y="100.0" /><rect fill="darkcyan" height="20" opacity="1.0" stroke="none" width="20" x="380.0" y="140.0" /><rect fill="darkcyan" height="20" opacity="1.0" stroke="none" width="20" x="380.0" y="180.0" /><rect fill="darkcyan" height="20" opacity="1.0" stroke="none" width="20" x="380.0" y="220.0" /><rect fill="darkcyan" height="20" opacity="1.0" stroke="none" width="20" x="380.0" y="260.0" /><rect fill="darkcyan" height="20" opacity="1.0" stroke="none" width="20" x="380.0" y="300.0" /><rect fill="darkcyan" height="20" opacity="1.0" stroke="none" width="20" x="380.0" y="340.0" /><rect fill="darkcyan" height="20" opacity="1.0" stroke="none" width="20" x="380.0" y="380.0" /><rect fill="darkcyan" height="20" opacity="1.0" stroke="none" width="20" x="380.0" y="420.0" /><rect fill="darkcyan" height="20" opacity="1.0" stroke="none" width="20" x="380.0" y="460.0" /><rect fill="darkcyan" height="20" opacity="1.0" stroke="none" width="20" x="380.0" y="500.0" /><rect fill="darkcyan" height="20" opacity="1.0" stroke="none" width="20" x="380.0" y="540.0" /><rect fill="darkcyan" height="20" opacity="1.0" stroke="none" width="20" x="380.0" y="580.0" /><rect fill="darkcyan" height="20" opacity="1.0" stroke="none" width="20" x="380.0" y="620.0" /><rect fill="darkcyan" height="20" opacity="1.0" stroke="none" width="20" x="380.0" y="660.0" /><rect fill="darkcyan" height="20" opacity="1.0" stroke="none" width="20" x="380.0" y="700.0" /><rect fill="darkcyan" height="20" opacity="1.0" stroke="none" width="20" x="380.0" y="740.0" /><rect fill="darkcyan" height="20" opacity="1.0" stroke="none" width="20" x="380.0" y="780.0" /><rect fill="darkcyan" height="20" opacity="1.0" stroke="none" width="20" x="380.0" y="820.0" /><rect fill="darkcyan" height="20" opacity="1.0" stroke="none" width="20" x="420.0" y="20.0" /><rect fill="darkcyan" height="20" opacity="1.0" stroke="none" width="20" x="420.0" y="60.0" /><rect fill="darkcyan" height="20" opacity="1.0" stroke="none" width="20" x="420.0" y="100.0" /><rect fill="darkcyan" height="20" opacity="1.0" stroke="none" width="20" x="420.0" y="140.0" /><rect fill="darkcyan" height="20" opacity="1.0" stroke="none" width="20" x="420.0" y="180.0" /><rect fill="darkcyan" height="20" opacity="1.0" stroke="none" width="20" x="420.0" y="220.0" /><rect fill="darkcyan" height="20" opacity="1.0" stroke="none" width="20" x="420.0" y="260.0" /><rect fill="darkcyan" height="20" opacity="1.0" stroke="none" width="20" x="420.0" y="300.0" /><rect fill="darkcyan" height="20" opacity="1.0" stroke="none" width="20" x="420.0" y="340.0" /><rect fill="darkcyan" height="20" opacity="1.0" stroke="none" width="20" x="420.0" y="380.0" /><rect fill="darkcyan" height="20" opacity="1.0" stroke="none" width="20" x="420.0" y="420.0" /><rect fill="darkcyan" height="20" opacity="1.0" stroke="none" width="20" x="420.0" y="460.0" /><rect fill="darkcyan" height="20" opacity="1.0" stroke="none" width="20" x="420.0" y="500.0" /><rect fill="darkcyan" height="20" opacity="1.0" stroke="none" width="20" x="420.0" y="540.0" /><rect fill="darkcyan" height="20" opacity="1.0" stroke="none" width="20" x="420.0" y="580.0" /><rect fill="darkcyan" height="20" opacity="1.0" stroke="none" width="20" x="420.0" y="620.0" /><rect fill="darkcyan" height="20" opacity="1.0" stroke="none" width="20" x="420.0" y="660.0" /><rect fill="darkcyan" height="20" opacity="1.0" stroke="none" width="20" x="420.0" y="700.0" /><rect fill="darkcyan" height="20" opacity="1.0" stroke="none" width="20" x="420.0" y="740.0" /><rect fill="darkcyan" height="20" opacity="1.0" stroke="none" width="20" x="420.0" y="780.0" /><rect fill="darkcyan" height="20" opacity="1.0" stroke="none" width="20" x="420.0" y="820.0" /><rect fill="darkcyan" height="20" opacity="1.0" stroke="none" width="20" x="460.0" y="20.0" /><rect fill="darkcyan" height="20" opacity="1.0" stroke="none" width="20" x="460.0" y="60.0" /><rect fill="darkcyan" height="20" opacity="1.0" stroke="none" width="20" x="460.0" y="100.0" /><rect fill="darkcyan" height="20" opacity="1.0" stroke="none" width="20" x="460.0" y="140.0" /><rect fill="darkcyan" height="20" opacity="1.0" stroke="none" width="20" x="460.0" y="180.0" /><rect fill="darkcyan" height="20" opacity="1.0" stroke="none" width="20" x="460.0" y="220.0" /><rect fill="darkcyan" height="20" opacity="1.0" stroke="none" width="20" x="460.0" y="260.0" /><rect fill="darkcyan" height="20" opacity="1.0" stroke="none" width="20" x="460.0" y="300.0" /><rect fill="darkcyan" height="20" opacity="1.0" stroke="none" width="20" x="460.0" y="340.0" /><rect fill="darkcyan" height="20" opacity="1.0" stroke="none" width="20" x="460.0" y="380.0" /><rect fill="darkcyan" height="20" opacity="1.0" stroke="none" width="20" x="460.0" y="420.0" /><rect fill="darkcyan" height="20" opacity="1.0" stroke="none" width="20" x="460.0" y="460.0" /><rect fill="darkcyan" height="20" opacity="1.0" stroke="none" width="20" x="460.0" y="500.0" /><rect fill="darkcyan" height="20" opacity="1.0" stroke="none" width="20" x="460.0" y="540.0" /><rect fill="darkcyan" height="20" opacity="1.0" stroke="none" width="20" x="460.0" y="580.0" /><rect fill="darkcyan" height="20" opacity="1.0" stroke="none" width="20" x="460.0" y="620.0" /><rect fill="darkcyan" height="20" opacity="1.0" stroke="none" width="20" x="460.0" y="660.0" /><rect fill="darkcyan" height="20" opacity="1.0" stroke="none" width="20" x="460.0" y="700.0" /><rect fill="darkcyan" height="20" opacity="1.0" stroke="none" width="20" x="460.0" y="740.0" /><rect fill="darkcyan" height="20" opacity="1.0" stroke="none" width="20" x="460.0" y="780.0" /><rect fill="darkcyan" height="20" opacity="1.0" stroke="none" width="20" x="460.0" y="820.0" /><rect fill="darkcyan" height="20" opacity="1.0" stroke="none" width="20" x="500.0" y="20.0" /><rect fill="darkcyan" height="20" opacity="1.0" stroke="none" width="20" x="500.0" y="60.0" /><rect fill="darkcyan" height="20" opacity="1.0" stroke="none" width="20" x="500.0" y="100.0" /><rect fill="darkcyan" height="20" opacity="1.0" stroke="none" width="20" x="500.0" y="140.0" /><rect fill="darkcyan" height="20" opacity="1.0" stroke="none" width="20" x="500.0" y="180.0" /><rect fill="darkcyan" height="20" opacity="1.0" stroke="none" width="20" x="500.0" y="220.0" /><rect fill="darkcyan" height="20" opacity="1.0" stroke="none" width="20" x="500.0" y="260.0" /><rect fill="darkcyan" height="20" opacity="1.0" stroke="none" width="20" x="500.0" y="300.0" /><rect fill="darkcyan" height="20" opacity="1.0" stroke="none" width="20" x="500.0" y="340.0" /><rect fill="darkcyan" height="20" opacity="1.0" stroke="none" width="20" x="500.0" y="380.0" /><rect fill="darkcyan" height="20" opacity="1.0" stroke="none" width="20" x="500.0" y="420.0" /><rect fill="darkcyan" height="20" opacity="1.0" stroke="none" width="20" x="500.0" y="460.0" /><rect fill="darkcyan" height="20" opacity="1.0" stroke="none" width="20" x="500.0" y="500.0" /><rect fill="darkcyan" height="20" opacity="1.0" stroke="none" width="20" x="500.0" y="540.0" /><rect fill="darkcyan" height="20" opacity="1.0" stroke="none" width="20" x="500.0" y="580.0" /><rect fill="darkcyan" height="20" opacity="1.0" stroke="none" width="20" x="500.0" y="620.0" /><rect fill="darkcyan" height="20" opacity="1.0" stroke="none" width="20" x="500.0" y="660.0" /><rect fill="darkcyan" height="20" opacity="1.0" stroke="none" width="20" x="500.0" y="700.0" /><rect fill="darkcyan" height="20" opacity="1.0" stroke="none" width="20" x="500.0" y="740.0" /><rect fill="darkcyan" height="20" opacity="1.0" stroke="none" width="20" x="500.0" y="780.0" /><rect fill="darkcyan" height="20" opacity="1.0" stroke="none" width="20" x="500.0" y="820.0" /><rect fill="darkcyan" height="20" opacity="1.0" stroke="none" width="20" x="540.0" y="20.0" /><rect fill="darkcyan" height="20" opacity="1.0" stroke="none" width="20" x="540.0" y="60.0" /><rect fill="darkcyan" height="20" opacity="1.0" stroke="none" width="20" x="540.0" y="100.0" /><rect fill="darkcyan" height="20" opacity="1.0" stroke="none" width="20" x="540.0" y="140.0" /><rect fill="darkcyan" height="20" opacity="1.0" stroke="none" width="20" x="540.0" y="180.0" /><rect fill="darkcyan" height="20" opacity="1.0" stroke="none" width="20" x="540.0" y="220.0" /><rect fill="darkcyan" height="20" opacity="1.0" stroke="none" width="20" x="540.0" y="260.0" /><rect fill="darkcyan" height="20" opacity="1.0" stroke="none" width="20" x="540.0" y="300.0" /><rect fill="darkcyan" height="20" opacity="1.0" stroke="none" width="20" x="540.0" y="340.0" /><rect fill="darkcyan" height="20" opacity="1.0" stroke="none" width="20" x="540.0" y="380.0" /><rect fill="darkcyan" height="20" opacity="1.0" stroke="none" width="20" x="540.0" y="420.0" /><rect fill="darkcyan" height="20" opacity="1.0" stroke="none" width="20" x="540.0" y="460.0" /><rect fill="darkcyan" height="20" opacity="1.0" stroke="none" width="20" x="540.0" y="500.0" /><rect fill="darkcyan" height="20" opacity="1.0" stroke="none" width="20" x="540.0" y="540.0" /><rect fill="darkcyan" height="20" opacity="1.0" stroke="none" width="20" x="540.0" y="580.0" /><rect fill="darkcyan" height="20" opacity="1.0" stroke="none" width="20" x="540.0" y="620.0" /><rect fill="darkcyan" height="20" opacity="1.0" stroke="none" width="20" x="540.0" y="660.0" /><rect fill="darkcyan" height="20" opacity="1.0" stroke="none" width="20" x="540.0" y="700.0" /><rect fill="darkcyan" height="20" opacity="1.0" stroke="none" width="20" x="540.0" y="740.0" /><rect fill="darkcyan" height="20" opacity="1.0" stroke="none" width="20" x="540.0" y="780.0" /><rect fill="darkcyan" height="20" opacity="1.0" stroke="none" width="20" x="540.0" y="820.0" /><rect fill="darkcyan" height="20" opacity="1.0" stroke="none" width="20" x="580.0" y="20.0" /><rect fill="darkcyan" height="20" opacity="1.0" stroke="none" width="20" x="580.0" y="60.0" /><rect fill="darkcyan" height="20" opacity="1.0" stroke="none" width="20" x="580.0" y="100.0" /><rect fill="darkcyan" height="20" opacity="1.0" stroke="none" width="20" x="580.0" y="140.0" /><rect fill="darkcyan" height="20" opacity="1.0" stroke="none" width="20" x="580.0" y="180.0" /><rect fill="darkcyan" height="20" opacity="1.0" stroke="none" width="20" x="580.0" y="220.0" /><rect fill="darkcyan" height="20" opacity="1.0" stroke="none" width="20" x="580.0" y="260.0" /><rect fill="darkcyan" height="20" opacity="1.0" stroke="none" width="20" x="580.0" y="300.0" /><rect fill="darkcyan" height="20" opacity="1.0" stroke="none" width="20" x="580.0" y="340.0" /><rect fill="darkcyan" height="20" opacity="1.0" stroke="none" width="20" x="580.0" y="380.0" /><rect fill="darkcyan" height="20" opacity="1.0" stroke="none" width="20" x="580.0" y="420.0" /><rect fill="darkcyan" height="20" opacity="1.0" stroke="none" width="20" x="580.0" y="460.0" /><rect fill="darkcyan" height="20" opacity="1.0" stroke="none" width="20" x="580.0" y="500.0" /><rect fill="darkcyan" height="20" opacity="1.0" stroke="none" width="20" x="580.0" y="540.0" /><rect fill="darkcyan" height="20" opacity="1.0" stroke="none" width="20" x="580.0" y="580.0" /><rect fill="darkcyan" height="20" opacity="1.0" stroke="none" width="20" x="580.0" y="620.0" /><rect fill="darkcyan" height="20" opacity="1.0" stroke="none" width="20" x="580.0" y="660.0" /><rect fill="darkcyan" height="20" opacity="1.0" stroke="none" width="20" x="580.0" y="700.0" /><rect fill="darkcyan" height="20" opacity="1.0" stroke="none" width="20" x="580.0" y="740.0" /><rect fill="darkcyan" height="20" opacity="1.0" stroke="none" width="20" x="580.0" y="780.0" /><rect fill="darkcyan" height="20" opacity="1.0" stroke="none" width="20" x="580.0" y="820.0" /><rect fill="darkcyan" height="20" opacity="1.0" stroke="none" width="20" x="620.0" y="20.0" /><rect fill="darkcyan" height="20" opacity="1.0" stroke="none" width="20" x="620.0" y="60.0" /><rect fill="darkcyan" height="20" opacity="1.0" stroke="none" width="20" x="620.0" y="100.0" /><rect fill="darkcyan" height="20" opacity="1.0" stroke="none" width="20" x="620.0" y="140.0" /><rect fill="darkcyan" height="20" opacity="1.0" stroke="none" width="20" x="620.0" y="180.0" /><rect fill="darkcyan" height="20" opacity="1.0" stroke="none" width="20" x="620.0" y="220.0" /><rect fill="darkcyan" height="20" opacity="1.0" stroke="none" width="20" x="620.0" y="260.0" /><rect fill="darkcyan" height="20" opacity="1.0" stroke="none" width="20" x="620.0" y="300.0" /><rect fill="darkcyan" height="20" opacity="1.0" stroke="none" width="20" x="620.0" y="340.0" /><rect fill="darkcyan" height="20" opacity="1.0" stroke="none" width="20" x="620.0" y="380.0" /><rect fill="darkcyan" height="20" opacity="1.0" stroke="none" width="20" x="620.0" y="420.0" /><rect fill="darkcyan" height="20" opacity="1.0" stroke="none" width="20" x="620.0" y="460.0" /><rect fill="darkcyan" height="20" opacity="1.0" stroke="none" width="20" x="620.0" y="500.0" /><rect fill="darkcyan" height="20" opacity="1.0" stroke="none" width="20" x="620.0" y="540.0" /><rect fill="darkcyan" height="20" opacity="1.0" stroke="none" width="20" x="620.0" y="580.0" /><rect fill="darkcyan" height="20" opacity="1.0" stroke="none" width="20" x="620.0" y="620.0" /><rect fill="darkcyan" height="20" opacity="1.0" stroke="none" width="20" x="620.0" y="660.0" /><rect fill="darkcyan" height="20" opacity="1.0" stroke="none" width="20" x="620.0" y="700.0" /><rect fill="darkcyan" height="20" opacity="1.0" stroke="none" width="20" x="620.0" y="740.0" /><rect fill="darkcyan" height="20" opacity="1.0" stroke="none" width="20" x="620.0" y="780.0" /><rect fill="darkcyan" height="20" opacity="1.0" stroke="none" width="20" x="620.0" y="820.0" /><rect fill="darkcyan" height="20" opacity="1.0" stroke="none" width="20" x="660.0" y="20.0" /><rect fill="darkcyan" height="20" opacity="1.0" stroke="none" width="20" x="660.0" y="60.0" /><rect fill="darkcyan" height="20" opacity="1.0" stroke="none" width="20" x="660.0" y="100.0" /><rect fill="darkcyan" height="20" opacity="1.0" stroke="none" width="20" x="660.0" y="140.0" /><rect fill="darkcyan" height="20" opacity="1.0" stroke="none" width="20" x="660.0" y="180.0" /><rect fill="darkcyan" height="20" opacity="1.0" stroke="none" width="20" x="660.0" y="220.0" /><rect fill="darkcyan" height="20" opacity="1.0" stroke="none" width="20" x="660.0" y="260.0" /><rect fill="darkcyan" height="20" opacity="1.0" stroke="none" width="20" x="660.0" y="300.0" /><rect fill="darkcyan" height="20" opacity="1.0" stroke="none" width="20" x="660.0" y="340.0" /><rect fill="darkcyan" height="20" opacity="1.0" stroke="none" width="20" x="660.0" y="380.0" /><rect fill="darkcyan" height="20" opacity="1.0" stroke="none" width="20" x="660.0" y="420.0" /><rect fill="darkcyan" height="20" opacity="1.0" stroke="none" width="20" x="660.0" y="460.0" /><rect fill="darkcyan" height="20" opacity="1.0" stroke="none" width="20" x="660.0" y="500.0" /><rect fill="darkcyan" height="20" opacity="1.0" stroke="none" width="20" x="660.0" y="540.0" /><rect fill="darkcyan" height="20" opacity="1.0" stroke="none" width="20" x="660.0" y="580.0" /><rect fill="darkcyan" height="20" opacity="1.0" stroke="none" width="20" x="660.0" y="620.0" /><rect fill="darkcyan" height="20" opacity="1.0" stroke="none" width="20" x="660.0" y="660.0" /><rect fill="darkcyan" height="20" opacity="1.0" stroke="none" width="20" x="660.0" y="700.0" /><rect fill="darkcyan" height="20" opacity="1.0" stroke="none" width="20" x="660.0" y="740.0" /><rect fill="darkcyan" height="20" opacity="1.0" stroke="none" width="20" x="660.0" y="780.0" /><rect fill="darkcyan" height="20" opacity="1.0" stroke="none" width="20" x="660.0" y="820.0" /><rect fill="darkcyan" height="20" opacity="1.0" stroke="none" width="20" x="700.0" y="20.0" /><rect fill="darkcyan" height="20" opacity="1.0" stroke="none" width="20" x="700.0" y="60.0" /><rect fill="darkcyan" height="20" opacity="1.0" stroke="none" width="20" x="700.0" y="100.0" /><rect fill="darkcyan" height="20" opacity="1.0" stroke="none" width="20" x="700.0" y="140.0" /><rect fill="darkcyan" height="20" opacity="1.0" stroke="none" width="20" x="700.0" y="180.0" /><rect fill="darkcyan" height="20" opacity="1.0" stroke="none" width="20" x="700.0" y="220.0" /><rect fill="darkcyan" height="20" opacity="1.0" stroke="none" width="20" x="700.0" y="260.0" /><rect fill="darkcyan" height="20" opacity="1.0" stroke="none" width="20" x="700.0" y="300.0" /><rect fill="darkcyan" height="20" opacity="1.0" stroke="none" width="20" x="700.0" y="340.0" /><rect fill="darkcyan" height="20" opacity="1.0" stroke="none" width="20" x="700.0" y="380.0" /><rect fill="darkcyan" height="20" opacity="1.0" stroke="none" width="20" x="700.0" y="420.0" /><rect fill="darkcyan" height="20" opacity="1.0" stroke="none" width="20" x="700.0" y="460.0" /><rect fill="darkcyan" height="20" opacity="1.0" stroke="none" width="20" x="700.0" y="500.0" /><rect fill="darkcyan" height="20" opacity="1.0" stroke="none" width="20" x="700.0" y="540.0" /><rect fill="darkcyan" height="20" opacity="1.0" stroke="none" width="20" x="700.0" y="580.0" /><rect fill="darkcyan" height="20" opacity="1.0" stroke="none" width="20" x="700.0" y="620.0" /><rect fill="darkcyan" height="20" opacity="1.0" stroke="none" width="20" x="700.0" y="660.0" /><rect fill="darkcyan" height="20" opacity="1.0" stroke="none" width="20" x="700.0" y="700.0" /><rect fill="darkcyan" height="20" opacity="1.0" stroke="none" width="20" x="700.0" y="740.0" /><rect fill="darkcyan" height="20" opacity="1.0" stroke="none" width="20" x="700.0" y="780.0" /><rect fill="darkcyan" height="20" opacity="1.0" stroke="none" width="20" x="700.0" y="820.0" /><rect fill="darkcyan" height="20" opacity="1.0" stroke="none" width="20" x="740.0" y="20.0" /><rect fill="darkcyan" height="20" opacity="1.0" stroke="none" width="20" x="740.0" y="60.0" /><rect fill="darkcyan" height="20" opacity="1.0" stroke="none" width="20" x="740.0" y="100.0" /><rect fill="darkcyan" height="20" opacity="1.0" stroke="none" width="20" x="740.0" y="140.0" /><rect fill="darkcyan" height="20" opacity="1.0" stroke="none" width="20" x="740.0" y="180.0" /><rect fill="darkcyan" height="20" opacity="1.0" stroke="none" width="20" x="740.0" y="220.0" /><rect fill="darkcyan" height="20" opacity="1.0" stroke="none" width="20" x="740.0" y="260.0" /><rect fill="darkcyan" height="20" opacity="1.0" stroke="none" width="20" x="740.0" y="300.0" /><rect fill="darkcyan" height="20" opacity="1.0" stroke="none" width="20" x="740.0" y="340.0" /><rect fill="darkcyan" height="20" opacity="1.0" stroke="none" width="20" x="740.0" y="380.0" /><rect fill="darkcyan" height="20" opacity="1.0" stroke="none" width="20" x="740.0" y="420.0" /><rect fill="darkcyan" height="20" opacity="1.0" stroke="none" width="20" x="740.0" y="460.0" /><rect fill="darkcyan" height="20" opacity="1.0" stroke="none" width="20" x="740.0" y="500.0" /><rect fill="darkcyan" height="20" opacity="1.0" stroke="none" width="20" x="740.0" y="540.0" /><rect fill="darkcyan" height="20" opacity="1.0" stroke="none" width="20" x="740.0" y="580.0" /><rect fill="darkcyan" height="20" opacity="1.0" stroke="none" width="20" x="740.0" y="620.0" /><rect fill="darkcyan" height="20" opacity="1.0" stroke="none" width="20" x="740.0" y="660.0" /><rect fill="darkcyan" height="20" opacity="1.0" stroke="none" width="20" x="740.0" y="700.0" /><rect fill="darkcyan" height="20" opacity="1.0" stroke="none" width="20" x="740.0" y="740.0" /><rect fill="darkcyan" height="20" opacity="1.0" stroke="none" width="20" x="740.0" y="780.0" /><rect fill="darkcyan" height="20" opacity="1.0" stroke="none" width="20" x="740.0" y="820.0" /><rect fill="darkcyan" height="20" opacity="1.0" stroke="none" width="20" x="780.0" y="20.0" /><rect fill="darkcyan" height="20" opacity="1.0" stroke="none" width="20" x="780.0" y="60.0" /><rect fill="darkcyan" height="20" opacity="1.0" stroke="none" width="20" x="780.0" y="100.0" /><rect fill="darkcyan" height="20" opacity="1.0" stroke="none" width="20" x="780.0" y="140.0" /><rect fill="darkcyan" height="20" opacity="1.0" stroke="none" width="20" x="780.0" y="180.0" /><rect fill="darkcyan" height="20" opacity="1.0" stroke="none" width="20" x="780.0" y="220.0" /><rect fill="darkcyan" height="20" opacity="1.0" stroke="none" width="20" x="780.0" y="260.0" /><rect fill="darkcyan" height="20" opacity="1.0" stroke="none" width="20" x="780.0" y="300.0" /><rect fill="darkcyan" height="20" opacity="1.0" stroke="none" width="20" x="780.0" y="340.0" /><rect fill="darkcyan" height="20" opacity="1.0" stroke="none" width="20" x="780.0" y="380.0" /><rect fill="darkcyan" height="20" opacity="1.0" stroke="none" width="20" x="780.0" y="420.0" /><rect fill="darkcyan" height="20" opacity="1.0" stroke="none" width="20" x="780.0" y="460.0" /><rect fill="darkcyan" height="20" opacity="1.0" stroke="none" width="20" x="780.0" y="500.0" /><rect fill="darkcyan" height="20" opacity="1.0" stroke="none" width="20" x="780.0" y="540.0" /><rect fill="darkcyan" height="20" opacity="1.0" stroke="none" width="20" x="780.0" y="580.0" /><rect fill="darkcyan" height="20" opacity="1.0" stroke="none" width="20" x="780.0" y="620.0" /><rect fill="darkcyan" height="20" opacity="1.0" stroke="none" width="20" x="780.0" y="660.0" /><rect fill="darkcyan" height="20" opacity="1.0" stroke="none" width="20" x="780.0" y="700.0" /><rect fill="darkcyan" height="20" opacity="1.0" stroke="none" width="20" x="780.0" y="740.0" /><rect fill="darkcyan" height="20" opacity="1.0" stroke="none" width="20" x="780.0" y="780.0" /><rect fill="darkcyan" height="20" opacity="1.0" stroke="none" width="20" x="780.0" y="820.0" /><rect fill="darkcyan" height="20" opacity="1.0" stroke="none" width="20" x="820.0" y="20.0" /><rect fill="darkcyan" height="20" opacity="1.0" stroke="none" width="20" x="820.0" y="60.0" /><rect fill="darkcyan" height="20" opacity="1.0" stroke="none" width="20" x="820.0" y="100.0" /><rect fill="darkcyan" height="20" opacity="1.0" stroke="none" width="20" x="820.0" y="140.0" /><rect fill="darkcyan" height="20" opacity="1.0" stroke="none" width="20" x="820.0" y="180.0" /><rect fill="darkcyan" height="20" opacity="1.0" stroke="none" width="20" x="820.0" y="220.0" /><rect fill="darkcyan" height="20" opacity="1.0" stroke="none" width="20" x="820.0" y="260.0" /><rect fill="darkcyan" height="20" opacity="1.0" stroke="none" width="20" x="820.0" y="300.0" /><rect fill="darkcyan" height="20" opacity="1.0" stroke="none" width="20" x="820.0" y="340.0" /><rect fill="darkcyan" height="20" opacity="1.0" stroke="none" width="20" x="820.0" y="380.0" /><rect fill="darkcyan" height="20" opacity="1.0" stroke="none" width="20" x="820.0" y="420.0" /><rect fill="darkcyan" height="20" opacity="1.0" stroke="none" width="20" x="820.0" y="460.0" /><rect fill="darkcyan" height="20" opacity="1.0" stroke="none" width="20" x="820.0" y="500.0" /><rect fill="darkcyan" height="20" opacity="1.0" stroke="none" width="20" x="820.0" y="540.0" /><rect fill="darkcyan" height="20" opacity="1.0" stroke="none" width="20" x="820.0" y="580.0" /><rect fill="darkcyan" height="20" opacity="1.0" stroke="none" width="20" x="820.0" y="620.0" /><rect fill="darkcyan" height="20" opacity="1.0" stroke="none" width="20" x="820.0" y="660.0" /><rect fill="darkcyan" height="20" opacity="1.0" stroke="none" width="20" x="820.0" y="700.0" /><rect fill="darkcyan" height="20" opacity="1.0" stroke="none" width="20" x="820.0" y="740.0" /><rect fill="darkcyan" height="20" opacity="1.0" stroke="none" width="20" x="820.0" y="780.0" /><rect fill="darkcyan" height="20" opacity="1.0" stroke="none" width="20" x="820.0" y="820.0" /></svg>