<?xml version="1.0" encoding="utf-8" ?>
<svg baseProfile="full" height="800" version="1.1" width="800" xmlns="http://www.w3.org/2000/svg" xmlns:ev="http://www.w3.org/2001/xml-events" xmlns:xlink="http://www.w3.org/1999/xlink"><defs /><rect fill="darkcyan" height="80" opacity="1.0" stroke="none" width="80" x="45.0" y="45.0" /><rect fill="darkcyan" height="80" opacity="1.0" stroke="none" width="80" x="45.0" y="135.0" /><rect fill="darkcyan" height="80" opacity="1.0" stroke="none" width="80" x="45.0" y="225.0" /><rect fill="darkcyan" height="80" opacity="1.0" stroke="none" width="80" x="45.0" y="315.0" /><rect fill="darkcyan" height="80" opacity="1.0" stroke="none" width="80" x="45.0" y="405.0" /><rect fill="darkcyan" height="80" opacity="1.0" stroke="none" width="80" x="45.0" y="495.0" /><rect fill="darkcyan" height="80" opacity="1.0" stroke="none" width="80" x="45.0" y="585.0" /><rect fill="darkcyan" height="80" opacity="1.0" stroke="none" width="80" x="45.0" y="675.0" /><rect fill="darkcyan" height="80" opacity="1.0" stroke="none" width="80" x="45.0" y="765.0" /><rect fill="darkcyan" height="80" opacity="1.0" stroke="none" width="80" x="45.0" y="855.0" /><rect fill="darkcyan" height="80" opacity="1.0" stroke="none" width="80" x="135.0" y="45.0" /><rect fill="darkcyan" height="80" opacity="1.0" stroke="none" width="80" x="135.0" y="135.0" /><rect fill="darkcyan" height="80" opacity="1.0" stroke="none" width="80" x="135.0" y="225.0" /><rect fill="darkcyan" height="80" opacity="1.0" stroke="none" width="80" x="135.0" y="315.0" /><rect fill="darkcyan" height="80" opacity="1.0" stroke="none" width="80" x="135.0" y="405.0" /><rect fill="darkcyan" height="80" opacity="1.0" stroke="none" width="80" x="135.0" y="495.0" /><rect fill="darkcyan" height="80" opacity="1.0" stroke="none" width="80" x="135.0" y="585.0" /><rect fill="darkcyan" height="80" opacity="1.0" stroke="none" width="80" x="135.0" y="675.0" /><rect fill="darkcyan" height="80" opacity="1.0" stroke="none" width="80" x="135.0" y="765.0" /><rect fill="darkcyan" height="80" opacity="1.0" stroke="none" width="80" x="135.0" y="855.0" /><rect fill="darkcyan" height="80" opacity="1.0" stroke="none" width="80" x="225.0" y="45.0" /><rect fill="darkcyan" height="80" opacity="1.0" stroke="none" width="80" x="225.0" y="135.0" /><rect fill="darkcyan" height="80" opacity="1.0" stroke="none" width="80" x="225.0" y="225.0" /><rect fill="darkcyan" height="80" opacity="1.0" stroke="none" width="80" x="225.0" y="315.0" /><rect fill="darkcyan" height="80" opacity="1.0" stroke="none" width="80" x="225.0" y="405.0" /><rect fill="darkcyan" height="80" opacity="1.0" stroke="none" width="80" x="225.0" y="495.0" /><rect fill="darkcyan" height="80" opacity="1.0" stroke="none" width="80" x="225.0" y="585.0" /><rect fill="darkcyan" height="80" opacity="1.0" stroke="none" width="80" x="225.0" y="675.0" /><rect fill="darkcyan" height="80" opacity="1.0" stroke="none" width="80" x="225.0" y="765.0" /><rect fill="darkcyan" height="80" opacity="1.0" stroke="none" width="80" x="225.0" y="855.0" /><rect fill="darkcyan" height="80" opacity="1.0" stroke="none" width="80" x="315.0" y="45.0" /><rect fill="darkcyan" height="80" opacity="1.0" stroke="none" width="80" x="315.0" y="135.0" /><rect fill="darkcyan" height="80" opacity="1.0" stroke="none" width="80" x="315.0" y="225.0" /><rect fill="darkcyan" height="80" opacity="1.0" stroke="none" width="80" x="315.0" y="315.0" /><rect fill="darkcyan" height="80" opacity="1.0" stroke="none" width="80" x="315.0" y="405.0" /><rect fill="darkcyan" height="80" opacity="1.0" stroke="none" width="80" x="315.0" y="495.0" /><rect fill="darkcyan" height="80" opacity="1.0" stroke="none" width="80" x="315.0" y="585.0" /><rect fill="darkcyan" height="80" opacity="1.0" stroke="none" width="80" x="315.0" y="675.0" /><rect fill="darkcyan" height="80" opacity="1.0" stroke="none" width="80" x="315.0" y="765.0" /><rect fill="darkcyan" height="80" opacity="1.0" stroke="none" width="80" x="315.0" y="855.0" /><rect fill="darkcyan" height="80" opacity="1.0" stroke="none" width="80" x="405.0" y="45.0" /><rect fill="darkcyan" height="80" opacity="1.0" stroke="none" width="80" x="405.0" y="135.0" /><rect fill="darkcyan" height="80" opacity="1.0" stroke="none" width="80" x="405.0" y="225.0" /><rect fill="darkcyan" height="80" opacity="1.0" stroke="none" width="80" x="405.0" y="315.0" /><rect fill="darkcyan" height="80" opacity="1.0" stroke="none" width="80" x="405.0" y="405.0" /><rect fill="darkcyan" height="80" opacity="1.0" stroke="none" width="80" x="405.0" y="495.0" /><rect fill="darkcyan" height="80" opacity="1.0" stroke="none" width="80" x="405.0" y="585.0" /><rect fill="darkcyan" height="80" opacity="1.0" stroke="none" width="80" x="405.0" y="675.0" /><rect fill="darkcyan" height="80" opacity="1.0" stroke="none" width="80" x="405.0" y="765.0" /><rect fill="darkcyan" height="80" opacity="1.0" stroke="none" width="80" x="405.0" y="855.0" /><rect fill="darkcyan" height="80" opacity="1.0" stroke="none" width="80" x="495.0" y="45.0" /><rect fill="darkcyan" height="80" opacity="1.0" stroke="none" width="80" x="495.0" y="135.0" /><rect fill="darkcyan" height="80" opacity="1.0" stroke="none" width="80" x="495.0" y="225.0" /><rect fill="darkcyan" height="80" opacity="1.0" stroke="none" width="80" x="495.0" y="315.0" /><rect fill="darkcyan" height="80" opacity="1.0" stroke="none" width="80" x="495.0" y="405.0" /><rect fill="darkcyan" height="80" opacity="1.0" stroke="none" width="80" x="495.0" y="495.0" /><rect fill="darkcyan" height="80" opacity="1.0" stroke="none" width="80" x="495.0" y="585.0" /><rect fill="darkcyan" height="80" opacity="1.0" stroke="none" width="80" x="495.0" y="675.0" /><rect fill="darkcyan" height="80" opacity="1.0" stroke="none" width="80" x="495.0" y="765.0" /><rect fill="darkcyan" height="80" opacity="1.0" stroke="none" width="80" x="495.0" y="855.0" /><rect fill="darkcyan" height="80" opacity="1.0" stroke="none" width="80" x="585.0" y="45.0" /><rect fill="darkcyan" height="80" opacity="1.0" stroke="none" width="80" x="585.0" y="135.0" /><rect fill="darkcyan" height="80" opacity="1.0" stroke="none" width="80" x="585.0" y="225.0" /><rect fill="darkcyan" height="80" opacity="1.0" stroke="none" width="80" x="585.0" y="315.0" /><rect fill="darkcyan" height="80" opacity="1.0" stroke="none" width="80" x="585.0" y="405.0" /><rect fill="darkcyan" height="80" opacity="1.0" stroke="none" width="80" x="585.0" y="495.0" /><rect fill="darkcyan" height="80" opacity="1.0" stroke="none" width="80" x="585.0" y="585.0" /><rect fill="darkcyan" height="80" opacity="1.0" stroke="none" width="80" x="585.0" y="675.0" /><rect fill="darkcyan" height="80" opacity="1.0" stroke="none" width="80" x="585.0" y="765.0" /><rect fill="darkcyan" height="80" opacity="1.0" stroke="none" width="80" x="585.0" y="855.0" /><rect fill="darkcyan" height="80" opacity="1.0" stroke="none" width="80" x="675.0" y="45.0" /><rect fill="darkcyan" height="80" opacity="1.0" stroke="none" width="80" x="675.0" y="135.0" /><rect fill="darkcyan" height="80" opacity="1.0" stroke="none" width="80" x="675.0" y="225.0" /><rect fill="darkcyan" height="80" opacity="1.0" stroke="none" width="80" x="675.0" y="315.0" /><rect fill="darkcyan" height="80" opacity="1.0" stroke="none" width="80" x="675.0" y="405.0" /><rect fill="darkcyan" height="80" opacity="1.0" stroke="none" width="80" x="675.0" y="495.0" /><rect fill="darkcyan" height="80" opacity="1.0" stroke="none" width="80" x="675.0" y="585.0" /><rect fill="darkcyan" height="80" opacity="1.0" stroke="none" width="80" x="675.0" y="675.0" /><rect fill="darkcyan" height="80" opacity="1.0" stroke="none" width="80" x="675.0" y="765.0" /><rect fill="darkcyan" height="80" opacity="1.0" stroke="none" width="80" x="675.0" y="855.0" /><rect fill="darkcyan" height="80" opacity="1.0" stroke="none" width="80" x="765.0" y="45.0" /><rect fill="darkcyan" height="80" opacity="1.0" stroke="none" width="80" x="765.0" y="135.0" /><rect fill="darkcyan" height="80" opacity="1.0" stroke="none" width="80" x="765.0" y="225.0" /><rect fill="darkcyan" height="80" opacity="1.0" stroke="none" width="80" x="765.0" y="315.0" /><rect fill="darkcyan" height="80" opacity="1.0" stroke="none" width="80" x="765.0" y="405.0" /><rect fill="darkcyan" height="80" opacity="1.0" stroke="none" width="80" x="765.0" y="495.0" /><rect fill="darkcyan" height="80" opacity="1.0" stroke="none" width="80" x="765.0" y="585.0" /><rect fill="darkcyan" height="80" opacity="1.0" stroke="none" width="80" x="765.0" y="675.0" /><rect fill="darkcyan" height="80" opacity="1.0" stroke="none" width="80" x="765.0" y="765.0" /><rect fill="darkcyan" height="80" opacity="1.0" stroke="none" width="80" x="765.0" y="855.0" /><rect fill="darkcyan" height="80" opacity="1.0" stroke="none" width="80" x="855.0" y="45.0" /><rect fill="darkcyan" height="80" opacity="1.0" stroke="none" width="80" x="855.0" y="135.0" /><rect fill="darkcyan" height="80" opacity="1.0" stroke="none" width="80" x="855.0" y="225.0" /><rect fill="darkcyan" height="80" opacity="1.0" stroke="none" width="80" x="855.0" y="315.0" /><rect fill="darkcyan" height="80" opacity="1.0" stroke="none" width="80" x="855.0" y="405.0" /><rect fill="darkcyan" height="80" opacity="1.0" stroke="none" width="80" x="855.0" y="495.0" /><rect fill="darkcyan" height="80" opacity="1.0" stroke="none" width="80" x="855.0" y="585.0" /><rect fill="darkcyan" height="80" opacity="1.0" stroke="none" width="80" x="855.0" y="675.0" /><rect fill="darkcyan" height="80" opacity="1.0" stroke="none" width="80" x="855.0" y="765.0" /><rect fill="darkcyan" height="80" opacity="1.0" stroke="none" width="80" x="855.0" y="855.0" /></svg>